<svg width="100" height="100" viewBox="0 0 100 100" fill="none" xmlns="http://www.w3.org/2000/svg">
<path d="M90.4531 66.4844L85.9375 57.4375V51.5625C85.9375 51.1481 85.7729 50.7507 85.4799 50.4576C85.1868 50.1646 84.7894 50 84.375 50H71.875C71.4606 50 71.0632 50.1646 70.7701 50.4576C70.4771 50.7507 70.3125 51.1481 70.3125 51.5625V57.4375L68.9531 60.1562C67.7889 59.3345 66.5022 58.7018 65.1406 58.2812L56.25 55.4844V51.5625C56.2519 51.3102 56.1916 51.0613 56.0744 50.8378C55.9572 50.6143 55.7867 50.4232 55.5781 50.2812C55.3715 50.1362 55.1328 50.0434 54.8824 50.0107C54.6321 49.978 54.3776 50.0065 54.1406 50.0938L50 51.6563V48.1094C52.5799 46.787 54.7844 44.835 56.4095 42.4343C58.0346 40.0335 59.0277 37.2615 59.2969 34.375H59.375C61.0326 34.375 62.6223 33.7165 63.7944 32.5444C64.9665 31.3723 65.625 29.7826 65.625 28.125C65.625 26.4674 64.9665 24.8777 63.7944 23.7056C62.6223 22.5335 61.0326 21.875 59.375 21.875V9.375C59.375 8.9606 59.2104 8.56317 58.9174 8.27015C58.6243 7.97712 58.2269 7.8125 57.8125 7.8125H53.125V4.6875C53.125 4.2731 52.9604 3.87567 52.6674 3.58265C52.3743 3.28962 51.9769 3.125 51.5625 3.125H35.9375C33.0377 3.12831 30.2576 4.28171 28.2072 6.33217C26.1567 8.38264 25.0033 11.1627 25 14.0625V21.875C23.3424 21.875 21.7527 22.5335 20.5806 23.7056C19.4085 24.8777 18.75 26.4674 18.75 28.125C18.75 29.7826 19.4085 31.3723 20.5806 32.5444C21.7527 33.7165 23.3424 34.375 25 34.375H25.0781C25.3473 37.2615 26.3404 40.0335 27.9655 42.4343C29.5906 44.835 31.7951 46.787 34.375 48.1094V51.6563L30.2344 50.0938C29.9974 50.0065 29.7429 49.978 29.4926 50.0107C29.2422 50.0434 29.0035 50.1362 28.7969 50.2812C28.5883 50.4232 28.4178 50.6143 28.3006 50.8378C28.1835 51.0613 28.1231 51.3102 28.125 51.5625V55.5L19.2344 58.2812C16.3705 59.163 13.8661 60.9422 12.0907 63.3562C10.3154 65.7702 9.36333 68.691 9.375 71.6875V95.3125C9.375 95.7269 9.53962 96.1243 9.83265 96.4174C10.1257 96.7104 10.5231 96.875 10.9375 96.875H85.9375C86.3222 96.8773 86.6939 96.7361 86.9799 96.4789C87.266 96.2217 87.4459 95.8671 87.4844 95.4844L90.6094 67.3594C90.6508 67.0585 90.5961 66.7523 90.4531 66.4844ZM59.375 25C60.203 25.0025 60.9965 25.3325 61.582 25.918C62.1675 26.5035 62.4975 27.297 62.5 28.125C62.4939 28.9519 62.1627 29.7432 61.5779 30.3279C60.9932 30.9127 60.2019 31.2439 59.375 31.25V25ZM25 31.25C24.1731 31.2439 23.3818 30.9127 22.7971 30.3279C22.2123 29.7432 21.8811 28.9519 21.875 28.125C21.8775 27.297 22.2075 26.5035 22.793 25.918C23.3785 25.3325 24.172 25.0025 25 25V31.25ZM21.875 93.75H12.5V71.6875C12.4914 69.3553 13.2323 67.082 14.6136 65.2028C15.9949 63.3236 17.9434 61.9379 20.1719 61.25L21.875 60.7188V93.75ZM28.125 93.75H25V59.75L28.125 58.7656V93.75ZM56.25 32.8125C56.2462 35.0418 55.7106 37.238 54.6875 39.2188V34.7031L56.25 31.0469V32.8125ZM52.6719 10.9375H56.25V15.9062C55.749 15.7243 55.2205 15.6292 54.6875 15.625H49.8281C51.1552 14.3265 52.1332 12.7143 52.6719 10.9375ZM28.125 14.0625C28.125 11.9905 28.9481 10.0034 30.4132 8.53823C31.8784 7.0731 33.8655 6.25 35.9375 6.25H50V7.8125C50 9.8845 49.1769 11.8716 47.7118 13.3368C46.2466 14.8019 44.2595 15.625 42.1875 15.625H29.6875C29.1545 15.6292 28.6261 15.7243 28.125 15.9062V14.0625ZM29.6875 39.2188C28.6644 37.238 28.1288 35.0418 28.125 32.8125V31.0469L29.6875 34.7031V39.2188ZM28.125 23.125V20.3125C28.125 19.8981 28.2896 19.5007 28.5826 19.2076C28.8757 18.9146 29.2731 18.75 29.6875 18.75H54.6875C55.1019 18.75 55.4993 18.9146 55.7924 19.2076C56.0854 19.5007 56.25 19.8981 56.25 20.3125V23.125L52.0938 32.8125H32.2813L28.125 23.125ZM32.8125 43.2656V42.1875H39.0625V39.0625H32.8125V35.9375H51.5625V39.0625H45.3125V42.1875H51.5625V43.2656C48.9927 45.5888 45.6518 46.8751 42.1875 46.8751C38.7232 46.8751 35.3823 45.5888 32.8125 43.2656ZM37.5 52.8281V49.3281C40.5608 50.224 43.8142 50.224 46.875 49.3281V52.8281L42.1875 54.5781L37.5 52.8281ZM52.125 64.7656L42.1875 77.1875L32.25 64.7656L42.1875 61.0469L52.125 64.7656ZM31.25 53.8125L40.625 57.3281V58.2969L31.25 61.8125V53.8125ZM53.125 93.75H31.25V68.5156L40.9688 80.6562C41.1136 80.8411 41.2986 80.9906 41.5098 81.0933C41.7209 81.1961 41.9527 81.2495 42.1875 81.2495C42.4223 81.2495 42.6541 81.1961 42.8652 81.0933C43.0764 80.9906 43.2614 80.8411 43.4063 80.6562L53.125 68.5156V93.75ZM53.125 61.8125L43.75 58.2969V57.3281L53.125 53.8125V61.8125ZM73.4375 53.125H82.8125V56.25H73.4375V53.125ZM72.8438 59.375H83.4063L86.5313 65.625H69.7188L72.8438 59.375ZM59.375 93.75H56.25V58.7656L59.375 59.75V93.75ZM62.5 93.75V60.7188L64.2031 61.25C65.4092 61.6314 66.5404 62.2181 67.5469 62.9844L65.7969 66.4844C65.6539 66.7523 65.5992 67.0585 65.6406 67.3594L68.5625 93.75H62.5ZM84.5313 93.75H71.7188L68.9375 68.75H87.3125L84.5313 93.75Z" fill="black"/>
<path d="M43.75 64.0625H40.625V67.1875H43.75V64.0625Z" fill="black"/>
<path d="M43.75 70.3125H40.625V73.4375H43.75V70.3125Z" fill="black"/>
<path d="M35.9375 31.25C37.6634 31.25 39.0625 29.8509 39.0625 28.125C39.0625 26.3991 37.6634 25 35.9375 25C34.2116 25 32.8125 26.3991 32.8125 28.125C32.8125 29.8509 34.2116 31.25 35.9375 31.25Z" fill="black"/>
<path d="M48.4375 31.25C50.1634 31.25 51.5625 29.8509 51.5625 28.125C51.5625 26.3991 50.1634 25 48.4375 25C46.7116 25 45.3125 26.3991 45.3125 28.125C45.3125 29.8509 46.7116 31.25 48.4375 31.25Z" fill="black"/>
</svg>
