<svg width="444" height="523" viewBox="0 0 444 523" fill="none" xmlns="http://www.w3.org/2000/svg">
<g clip-path="url(#clip0)">
<path d="M419.546 486.057C478.187 502.691 424.648 513.094 321.542 520.034C211.277 526.011 78.8805 516.485 20.2302 499.85C-38.3957 483.215 38.3401 470.028 148.605 466.219C300.892 462.566 274.877 476.372 419.547 486.057H419.546Z" fill="#D2D3D5"/>
<path d="M419.141 500.357C374.359 514.341 270.041 525.507 161.113 522.51C52.1864 519.513 -20.1006 503.486 24.6798 489.501C69.4813 475.517 214.399 468.873 323.327 471.87C432.254 474.867 463.941 486.373 419.14 500.356L419.141 500.357Z" fill="#E6E7E8"/>
<path fill-rule="evenodd" clip-rule="evenodd" d="M49.3808 193.521C52.7412 198.837 51.0924 205.921 45.827 209.553C40.56 213.175 33.3415 212.204 29.5797 207.162C25.8195 202.132 27.2619 194.702 32.9311 190.801C38.5979 186.893 46.0236 188.213 49.3808 193.521Z" fill="#848688"/>
<path d="M53.8312 151.87C57.3115 158.46 54.3362 166.874 47.36 170.992C40.3756 175.096 31.5629 173.619 27.4952 167.367C23.4332 161.13 26.123 152.184 33.6906 147.734C41.2616 143.277 50.3549 145.288 53.832 151.87H53.8312Z" fill="#D2D3D5"/>
<path d="M20.1135 173.015C22.7397 176.863 21.3682 182.374 17.1349 185.452C12.8942 188.53 7.22575 188.141 4.38012 184.45C1.53938 180.766 2.78108 175.041 7.23309 171.811C11.6835 168.574 17.4906 169.173 20.1127 173.015H20.1135Z" fill="#D2D3D5"/>
<path d="M111.371 121.911C114.364 130.492 109.158 140.121 99.9404 143.938C90.7142 147.734 80.2348 144.582 76.309 136.386C72.3913 128.204 77.2553 117.726 87.4084 113.538C97.5598 109.344 108.385 113.344 111.371 121.911Z" fill="#D2D3D5"/>
<path fill-rule="evenodd" clip-rule="evenodd" d="M68.8164 110.594C72.424 118.68 67.6489 128.68 58.3876 133.447C49.1189 138.192 38.1891 136.253 33.7322 128.607C29.2786 120.975 33.6539 110.129 43.7735 104.944C53.889 99.7438 65.2153 102.522 68.8164 110.594Z" fill="#848688"/>
<path fill-rule="evenodd" clip-rule="evenodd" d="M17.2099 218.868C19.3988 221.591 18.8913 225.638 16.1208 227.973C13.3477 230.303 9.26939 230.122 6.96466 227.499C4.66237 224.876 5.09395 220.727 7.98363 218.297C10.8709 215.863 15.0194 216.153 17.2099 218.869V218.868Z" fill="#848688"/>
<path fill-rule="evenodd" clip-rule="evenodd" d="M151.5 69.9662C152.838 76.1105 147.796 82.423 140.332 84.3603C132.862 86.2821 125.411 83.1879 123.611 77.1612C121.811 71.1427 126.718 64.3551 134.653 62.3149C142.589 60.26 150.172 63.822 151.5 69.967V69.9662Z" fill="#848688"/>
<path d="M108.749 83.1259C111.047 90.2155 105.929 98.2416 97.457 101.425C88.9805 104.601 79.857 101.933 76.9225 95.0723C73.992 88.2333 78.8748 79.5835 87.9852 76.1627C97.0907 72.742 106.459 76.0427 108.749 83.1259Z" fill="#BDBFC1"/>
<path fill-rule="evenodd" clip-rule="evenodd" d="M203.402 52.2222C204.225 61.2688 195.762 69.4459 184.611 71.1057C173.456 72.7434 163.044 67.3543 161.22 58.4441C159.397 49.5632 167.66 40.3672 179.813 38.5785C191.966 36.775 202.583 43.183 203.402 52.2214V52.2222Z" fill="#848688"/>
<path fill-rule="evenodd" clip-rule="evenodd" d="M150.459 33.5324C152.194 42.2108 144.344 51.1129 133.089 54.0127C121.832 56.8914 110.695 52.869 108.038 44.4192C105.385 35.9841 112.949 26.0966 125.135 22.9746C137.317 19.838 148.736 24.8613 150.459 33.5324Z" fill="#848688"/>
<path fill-rule="evenodd" clip-rule="evenodd" d="M250.84 11.1924C250.772 17.4844 243.661 22.5118 234.986 22.76C226.315 23 218.974 18.3759 218.555 12.0994C218.132 5.83021 225.19 0.257422 234.349 0.00923444C243.505 -0.254465 250.91 4.91502 250.84 11.1924Z" fill="#848688"/>
<path fill-rule="evenodd" clip-rule="evenodd" d="M200.857 14.773C201.527 22.199 193.87 28.9613 183.838 30.3394C173.799 31.7028 164.652 27.2305 163.307 19.9024C161.964 12.5826 169.479 5.07162 180.188 3.61026C190.898 2.14073 200.19 7.35348 200.857 14.773Z" fill="#606062"/>
<path d="M73.6844 61.5907C75.361 68.6142 70.315 75.8451 62.5099 78.0862C54.6999 80.3207 46.6093 76.8485 44.3176 69.9956C42.03 63.1565 46.9063 55.364 55.3257 52.9605C63.7402 50.5423 72.0136 54.5753 73.6844 61.5907Z" fill="#D2D3D5"/>
<path fill-rule="evenodd" clip-rule="evenodd" d="M167.912 142.613C166.718 147.608 161.639 150.678 156.517 149.665C151.399 148.645 147.855 143.867 148.659 138.793C149.458 133.727 154.623 130.339 160.132 131.435C165.645 132.526 169.103 137.625 167.912 142.613V142.613Z" fill="#848688"/>
<path d="M194.793 121.493C192.923 127.284 186.311 130.334 179.929 128.597C173.552 126.847 169.395 120.847 170.732 114.904C172.064 108.974 178.826 105.452 185.738 107.347C192.656 109.239 196.66 115.708 194.793 121.493Z" fill="#D2D3D5"/>
<path d="M163.227 113.8C162.473 117.53 158.471 119.866 154.26 119.141C150.045 118.413 147.044 114.873 147.58 111.105C148.116 107.344 152.17 104.809 156.594 105.575C161.02 106.336 163.979 110.076 163.227 113.8V113.8Z" fill="#D2D3D5"/>
<path d="M245.081 138.107C241.769 144.748 233.176 147.185 225.694 143.963C218.22 140.725 214.092 132.796 216.648 125.828C219.199 118.874 228.094 115.753 236.325 119.311C244.559 122.863 248.387 131.479 245.081 138.107Z" fill="#D2D3D5"/>
<path fill-rule="evenodd" clip-rule="evenodd" d="M227.456 106.752C224.784 113.47 216.219 116.371 208.158 113.665C200.105 110.942 195.011 103.44 196.942 96.4763C198.866 89.5222 207.698 85.9047 216.494 88.8748C225.295 91.8343 230.122 100.046 227.456 106.752V106.752Z" fill="#848688"/>
<path fill-rule="evenodd" clip-rule="evenodd" d="M134.771 138.219C134.427 141.051 131.772 143.059 128.829 142.767C125.887 142.472 123.67 139.982 123.89 137.138C124.112 134.296 126.783 132.186 129.85 132.493C132.917 132.797 135.111 135.391 134.771 138.219Z" fill="#848688"/>
<path fill-rule="evenodd" clip-rule="evenodd" d="M298.302 132.008C295.473 136.291 288.911 136.936 283.527 133.67C278.148 130.392 275.713 124.268 278.21 119.782C280.702 115.3 287.465 114.306 293.178 117.789C298.9 121.263 301.137 127.731 298.302 132.009V132.008Z" fill="#848688"/>
<path d="M266.258 114.479C263.423 119.863 255.816 121.439 249.13 118.293C242.445 115.14 238.808 108.28 241.146 102.655C243.474 97.0447 251.312 94.9751 258.501 98.3591C265.687 101.741 269.094 109.104 266.259 114.479H266.258Z" fill="#BDBFC1"/>
<path fill-rule="evenodd" clip-rule="evenodd" d="M338.238 152.281C333.419 157.916 323.819 157.62 316.497 152.039C309.186 146.442 306.405 137.278 310.574 131.135C314.727 125.008 324.809 124.607 332.777 130.702C340.754 136.788 343.057 146.653 338.239 152.281H338.238Z" fill="#848688"/>
<path fill-rule="evenodd" clip-rule="evenodd" d="M319.006 110.644C314.922 116.603 305.247 117.079 297.141 112.144C289.045 107.194 285.053 98.3844 288.478 92.0156C291.898 85.6583 301.985 84.4533 310.752 89.8081C319.525 95.1515 323.093 104.698 319.006 110.644Z" fill="#848688"/>
<path fill-rule="evenodd" clip-rule="evenodd" d="M389.244 156.677C385.527 160.221 378.538 158.922 373.452 153.986C368.372 149.047 366.894 142.116 370.324 138.295C373.748 134.477 381.025 135.434 386.387 140.654C391.756 145.863 392.953 153.142 389.244 156.677V156.677Z" fill="#848688"/>
<path fill-rule="evenodd" clip-rule="evenodd" d="M358.679 129.459C354.72 134.082 346.406 133.451 339.886 128.364C333.37 123.264 330.774 115.363 334.291 110.401C337.804 105.445 346.475 105.566 353.43 111.002C360.389 116.434 362.635 124.842 358.678 129.459H358.679Z" fill="#606062"/>
<path d="M258.872 81.6881C255.722 86.6698 248.621 87.8348 242.865 84.543C237.11 81.2439 234.53 74.5306 237.232 69.2852C239.926 64.0504 247.258 62.4666 253.459 66.0253C259.666 69.5734 262.022 76.7129 258.872 81.6881Z" fill="#D2D3D5"/>
<path fill-rule="evenodd" clip-rule="evenodd" d="M418.542 431.312H406.534C406.649 430.532 406.708 429.734 406.711 428.921L407.369 212.469C412.077 210.469 416.569 207.163 420.699 202.875C425.269 244.938 432.163 313.182 437.254 364.153C438.848 380.105 440.265 394.358 441.375 405.596C442.029 412.175 439.914 418.699 435.568 423.605C431.217 428.513 425.029 431.312 418.542 431.312Z" fill="#201E1E"/>
<path fill-rule="evenodd" clip-rule="evenodd" d="M389.882 445.719C389.76 445.719 389.638 445.717 389.515 445.715L381.331 445.541L64.4207 438.814L50.8052 438.525C38.1769 438.256 27.7342 429.449 24.8633 417.731C26.074 418.526 27.5205 419.001 29.0918 419.025L384.205 424.472C384.24 424.472 384.272 424.473 384.307 424.473C387.669 424.473 390.523 421.976 390.945 418.627C396.252 376.554 394.476 276.749 392.673 214.229C394.161 214.509 395.641 214.644 397.114 214.644C400.61 214.644 404.043 213.881 407.37 212.469L406.712 428.921C406.708 429.734 406.649 430.532 406.535 431.312C405.355 439.476 398.327 445.719 389.882 445.719H389.882ZM24.5598 388.355L24.9743 368.805L27.9896 226.548L29.011 178.338C29.2827 165.52 39.5426 155.166 52.3463 154.788L63.3373 154.461L301.087 147.402C302.103 149.352 303.2 151.243 304.364 153.075C304.209 156.443 304.164 159.808 304.191 163.034L44.0281 171.339C39.9065 171.468 36.7174 174.972 36.945 179.091C41.127 254.535 30.9299 342.861 24.559 388.355H24.5598Z" fill="#4B4B4D"/>
<path d="M29.091 419.026C24.2678 418.952 20.6242 414.628 21.374 409.859C26.3457 378.228 41.9526 269.428 36.9458 179.092C36.7182 174.973 39.9073 171.469 44.0289 171.339L382.453 160.537C387.094 160.387 390.984 164.011 391.161 168.656C392.597 206.635 397.96 363.032 390.945 418.627C390.52 422.011 387.61 424.525 384.205 424.472L29.0918 419.026L29.091 419.026Z" fill="#848688"/>
<path d="M379.485 420.711C379.449 420.711 379.418 420.711 379.383 420.71L37.6425 415.467C33.0004 415.397 29.4939 411.234 30.2159 406.645C35 376.206 50.0195 271.502 45.202 184.569C44.9817 180.605 48.0517 177.234 52.0175 177.107L304.32 169.052C304.459 173.095 304.682 176.73 304.901 179.618C305.191 183.483 308.407 186.465 312.281 186.465C313.357 186.465 314.381 186.002 315.099 185.201C315.816 184.4 316.16 183.329 316.045 182.259C315.698 179.004 315.247 174.146 314.974 168.714L317.435 168.635C327.398 177.654 339.102 183.126 349.998 183.126C351.82 183.126 353.627 182.974 355.391 182.658C358.225 182.15 360.84 181.25 363.249 179.999C367.17 195.211 376.079 207.846 387.362 212.616C389.146 272.227 391.145 373.276 385.87 415.084C385.465 418.307 382.717 420.71 379.485 420.71V420.711ZM331.787 368.242C327.981 368.242 324.866 371.287 324.784 375.102L324.205 402.408C324.124 406.221 327.105 409.4 330.911 409.56L346.485 410.22C346.674 410.229 346.867 410.232 347.056 410.232C353.008 410.232 357.906 406.273 358.013 401.255L358.509 377.839C358.619 372.704 353.667 368.453 347.497 368.394L331.854 368.242C331.833 368.241 331.81 368.241 331.786 368.241L331.787 368.242ZM286.798 367.806C282.992 367.806 279.877 370.849 279.796 374.666L279.248 400.504C279.167 404.317 282.146 407.494 285.954 407.656L308.812 408.623C308.913 408.628 309.014 408.63 309.115 408.63C312.903 408.63 316.031 405.597 316.112 401.77L316.676 375.186C316.758 371.283 313.64 368.065 309.74 368.028L286.866 367.806C286.842 367.806 286.82 367.806 286.798 367.806H286.798ZM242.19 367.372C238.172 367.372 234.884 370.585 234.799 374.614L234.29 398.6C234.209 402.411 237.19 405.589 240.998 405.751L263.855 406.72C263.957 406.724 264.058 406.727 264.157 406.727C267.946 406.727 271.074 403.692 271.155 399.865L271.687 374.749C271.77 370.847 268.652 367.63 264.753 367.591L242.265 367.373C242.24 367.373 242.215 367.373 242.192 367.373L242.19 367.372ZM196.814 366.931C193.013 366.931 189.899 369.974 189.818 373.787L189.333 396.701C189.252 400.512 192.23 403.686 196.034 403.847L218.904 404.816C219.005 404.821 219.104 404.822 219.206 404.822C222.99 404.822 226.116 401.791 226.197 397.968L226.698 374.307C226.781 370.408 223.666 367.192 219.769 367.155L196.884 366.932C196.861 366.932 196.837 366.932 196.814 366.932V366.931ZM151.826 366.495C148.022 366.495 144.911 369.538 144.829 373.35L144.375 394.798C144.294 398.606 147.27 401.781 151.075 401.944L173.946 402.913C174.046 402.916 174.147 402.919 174.247 402.919C178.033 402.919 181.158 399.888 181.238 396.064L181.71 373.87C181.792 369.972 178.677 366.757 174.779 366.72L151.894 366.497C151.871 366.497 151.847 366.497 151.826 366.497V366.495ZM106.719 366.058C102.981 366.058 99.9225 369.047 99.8425 372.795L99.415 393.009C99.3351 396.754 102.262 399.875 106.001 400.033L129.11 401.011C129.208 401.016 129.307 401.018 129.406 401.018C133.126 401.018 136.198 398.04 136.277 394.28L136.722 373.311C136.803 369.48 133.741 366.319 129.912 366.282L106.787 366.058C106.763 366.058 106.74 366.058 106.718 366.058H106.719ZM76.3073 365.763C70.3224 365.763 65.4502 369.74 65.3442 374.739L65.0349 389.312C64.9297 394.307 69.6216 398.492 75.6131 398.747L84.1532 399.107C84.2519 399.111 84.3515 399.114 84.4494 399.114C88.1696 399.114 91.2412 396.134 91.3211 392.376L91.7233 373.404C91.8106 369.28 88.5163 365.88 84.3947 365.84L76.4403 365.763C76.3963 365.763 76.3522 365.763 76.3082 365.763H76.3073ZM331.957 322.863C328.599 322.863 325.836 325.549 325.764 328.932L325.316 350.062C325.243 353.537 328.037 356.395 331.512 356.396L348.187 356.398C354.182 356.398 359.049 352.416 359.155 347.422L359.461 332.849C359.568 327.812 354.801 323.608 348.758 323.41L332.162 322.867C332.093 322.863 332.025 322.863 331.956 322.863H331.957ZM286.989 321.39C283.633 321.39 280.87 324.077 280.798 327.46L280.318 350.058C280.243 353.533 283.039 356.391 286.514 356.391L311.006 356.393C314.378 356.393 317.132 353.697 317.203 350.322L317.665 328.524C317.737 325.129 315.066 322.306 311.672 322.195L287.196 321.393C287.128 321.391 287.058 321.39 286.989 321.39ZM242.023 319.918C238.667 319.918 235.902 322.604 235.83 325.988L235.319 350.053C235.246 353.528 238.042 356.386 241.515 356.386L266.008 356.389C266.008 356.389 266.008 356.389 266.01 356.389C269.38 356.389 272.135 353.691 272.206 350.318L272.7 327.052C272.771 323.657 270.098 320.834 266.705 320.723L242.23 319.92C242.161 319.919 242.091 319.918 242.024 319.918H242.023ZM197.839 318.47C194.049 318.47 190.927 321.505 190.846 325.326L190.341 349.228C190.257 353.153 193.413 356.381 197.336 356.381L220.226 356.384C220.226 356.384 220.226 356.384 220.228 356.384C224.034 356.384 227.143 353.338 227.224 349.529L227.716 326.372C227.796 322.537 224.778 319.349 220.947 319.225L198.073 318.474C197.996 318.473 197.917 318.471 197.84 318.471L197.839 318.47ZM152.873 316.998C149.082 316.998 145.961 320.033 145.88 323.853L145.341 349.225C145.258 353.149 148.414 356.375 152.338 356.377L175.228 356.38C179.036 356.38 182.145 353.332 182.226 349.524L182.748 324.9C182.829 321.065 179.811 317.878 175.979 317.751L153.106 317.001C153.028 316.998 152.95 316.998 152.873 316.998ZM108.299 315.538C104.291 315.538 100.99 318.748 100.903 322.789L100.34 349.342C100.259 353.2 103.362 356.37 107.218 356.372L130.347 356.373H130.348C134.09 356.373 137.145 353.381 137.224 349.636L137.784 323.308C137.863 319.538 134.897 316.406 131.131 316.282L108.547 315.543C108.465 315.541 108.383 315.539 108.3 315.539L108.299 315.538ZM77.3883 314.529C71.4246 314.529 66.5361 318.494 66.43 323.506L65.9332 346.922C65.823 352.099 70.8559 356.367 77.0701 356.367L84.8353 356.369C88.863 356.369 92.1517 353.147 92.2373 349.118L92.8043 322.353C92.8908 318.296 89.6984 314.925 85.6462 314.793L77.8305 314.536C77.6828 314.531 77.5352 314.529 77.3883 314.529ZM349.364 274.441C349.356 274.441 349.348 274.441 349.336 274.441L333.437 274.471C329.813 274.477 326.857 277.378 326.779 281.005L326.236 306.663C326.158 310.321 329.035 313.359 332.688 313.478L348.651 314.001C348.8 314.006 348.946 314.008 349.095 314.008C355.056 314.008 359.945 310.043 360.051 305.032L360.5 283.888C360.61 278.71 355.575 274.442 349.363 274.442L349.364 274.441ZM311.995 274.51C311.991 274.51 311.987 274.51 311.982 274.51L288.437 274.552C284.812 274.559 281.855 277.461 281.779 281.088L281.269 305.191C281.192 308.847 284.069 311.886 287.721 312.004L311.251 312.776C311.324 312.778 311.398 312.778 311.472 312.778C315.086 312.78 318.06 309.887 318.137 306.245L318.666 281.327C318.746 277.585 315.735 274.51 311.996 274.51H311.995ZM266.996 274.592C266.992 274.592 266.988 274.592 266.983 274.592L243.438 274.633C239.813 274.64 236.856 277.542 236.779 281.168L236.301 303.719C236.224 307.374 239.101 310.412 242.753 310.532L266.281 311.303C266.356 311.305 266.429 311.306 266.504 311.306C270.116 311.306 273.092 308.413 273.169 304.772L273.664 281.408C273.743 277.666 270.735 274.592 266.995 274.592H266.996ZM223.388 274.669C223.385 274.669 223.382 274.669 223.377 274.669L197.105 274.717C194.222 274.722 191.869 277.031 191.807 279.915L191.306 303.594C191.244 306.504 193.533 308.921 196.44 309.015L222.692 309.876C222.751 309.878 222.81 309.879 222.87 309.879C225.745 309.879 228.112 307.579 228.173 304.681L228.695 280.094C228.757 277.118 226.363 274.67 223.388 274.67L223.388 274.669ZM178.389 274.752C178.384 274.752 178.381 274.752 178.378 274.752L152.106 274.799C149.222 274.803 146.869 277.112 146.808 279.999L146.34 302.121C146.278 305.031 148.567 307.448 151.473 307.543L177.726 308.403C177.785 308.405 177.844 308.406 177.904 308.406C180.779 308.406 183.145 306.104 183.208 303.207L183.695 280.176C183.758 277.198 181.365 274.752 178.389 274.752H178.389ZM131.249 274.836C131.245 274.836 131.239 274.836 131.235 274.836L109.151 274.876C105.13 274.884 101.849 278.102 101.765 282.126L101.416 298.577C101.329 302.634 104.522 306.006 108.574 306.138L130.642 306.862C130.724 306.864 130.807 306.864 130.887 306.864C134.896 306.866 138.198 303.656 138.283 299.614L138.649 282.401C138.736 278.249 135.397 274.837 131.248 274.837L131.249 274.836ZM88.0913 274.913C88.088 274.913 88.0847 274.913 88.0815 274.913L78.2107 274.932C72.2249 274.943 67.3739 278.921 67.2687 283.908L67.0191 295.688C66.913 300.724 71.6816 304.928 77.7236 305.126L87.499 305.447C87.561 305.449 87.623 305.45 87.685 305.45C90.7174 305.45 93.2139 303.023 93.2783 299.967L93.6887 280.635C93.7548 277.494 91.229 274.913 88.0913 274.913ZM350.486 221.982C350.324 221.982 350.159 221.985 349.998 221.991L334.311 222.556C330.778 222.682 327.956 225.549 327.881 229.086L327.309 256.058C327.23 259.784 330.217 262.854 333.941 262.875L350.093 262.966C350.121 262.966 350.145 262.966 350.172 262.966C356.16 262.966 361.03 258.987 361.136 253.99L361.617 231.428C361.727 226.23 356.665 221.982 350.487 221.982L350.486 221.982ZM313.085 223.321C313.005 223.321 312.923 223.323 312.841 223.326L289.279 224.174C285.744 224.301 282.923 227.166 282.849 230.704L282.316 255.804C282.237 259.53 285.224 262.6 288.949 262.62L312.491 262.754C312.504 262.754 312.516 262.754 312.528 262.754C316.155 262.754 319.121 259.851 319.198 256.219L319.751 230.14C319.83 226.386 316.806 223.322 313.085 223.322V223.321ZM223.277 226.86C223.199 226.86 223.121 226.862 223.043 226.865L198.963 227.729C195.567 227.852 192.855 230.606 192.783 234.007L192.319 255.867C192.243 259.449 195.114 262.401 198.694 262.422L222.753 262.557C222.765 262.557 222.778 262.557 222.79 262.557C226.276 262.557 229.128 259.767 229.2 256.275L229.685 233.415C229.763 229.807 226.855 226.861 223.277 226.861L223.277 226.86ZM268.316 224.988C268.221 224.988 268.124 224.991 268.027 224.994L243.943 226.063C240.567 226.213 237.886 228.958 237.815 232.338L237.319 255.81C237.242 259.393 240.113 262.344 243.693 262.364L267.752 262.499C267.764 262.499 267.777 262.499 267.789 262.499C271.275 262.499 274.127 259.71 274.199 256.218L274.722 231.542C274.798 227.931 271.889 224.988 268.316 224.988V224.988ZM178.247 228.479C178.168 228.479 178.089 228.48 178.01 228.483L153.931 229.348C150.534 229.471 147.82 232.223 147.748 235.625L147.325 255.612C147.248 259.195 150.119 262.146 153.701 262.165L177.758 262.302C177.771 262.302 177.783 262.302 177.796 262.302C181.281 262.302 184.133 259.513 184.206 256.02L184.651 235.032C184.728 231.425 181.822 228.479 178.246 228.479H178.247ZM131.678 229.842C131.582 229.842 131.485 229.845 131.388 229.849L111.066 230.578C106.456 230.744 102.775 234.481 102.679 239.097L102.411 251.687C102.296 257.117 106.647 261.59 112.074 261.619L130.334 261.723C130.351 261.723 130.368 261.723 130.385 261.723C135.218 261.723 139.171 257.855 139.273 253.014L139.592 237.938C139.687 233.482 136.097 229.843 131.678 229.843V229.842ZM89.0189 231.374C88.9511 231.374 88.8826 231.374 88.8141 231.378L78.6749 231.742C72.8719 231.951 68.2869 235.869 68.1849 240.71L67.9458 251.987C67.8365 257.14 72.8237 261.397 79.0102 261.431L88.5824 261.486C88.593 261.486 88.6044 261.486 88.615 261.486C91.6589 261.486 94.1472 259.051 94.2116 256.002L94.6122 237.094C94.6791 233.944 92.1419 231.374 89.0189 231.374V231.374Z" fill="#BDBFC1"/>
<path d="M267.788 262.5C267.776 262.5 267.763 262.5 267.75 262.5L243.691 262.365C240.111 262.344 237.241 259.394 237.317 255.811L237.813 232.339C237.885 228.959 240.565 226.214 243.942 226.064L268.025 224.995C268.122 224.992 268.219 224.989 268.315 224.989C271.887 224.989 274.797 227.931 274.721 231.542L274.198 256.219C274.124 259.711 271.273 262.499 267.788 262.499V262.5Z" fill="#F3F7FE"/>
<path d="M177.796 262.303C177.783 262.303 177.771 262.303 177.758 262.303L153.701 262.166C150.119 262.146 147.248 259.195 147.325 255.613L147.748 235.627C147.82 232.225 150.534 229.472 153.931 229.349L178.01 228.485C178.089 228.481 178.168 228.48 178.247 228.48C181.823 228.48 184.729 231.426 184.652 235.033L184.206 256.021C184.133 259.514 181.282 262.303 177.796 262.303H177.796Z" fill="#F3F7FE"/>
<path d="M174.247 402.919C174.146 402.919 174.045 402.915 173.946 402.912L151.075 401.943C147.27 401.78 144.293 398.606 144.374 394.797L144.829 373.349C144.909 369.537 148.022 366.495 151.825 366.495C151.847 366.495 151.87 366.495 151.893 366.495L174.779 366.718C178.676 366.755 181.792 369.97 181.709 373.868L181.238 396.062C181.157 399.886 178.032 402.917 174.247 402.917V402.919Z" fill="#F3F7FE"/>
<path d="M129.406 401.018C129.307 401.018 129.208 401.016 129.11 401.011L106.001 400.033C102.262 399.874 99.3351 396.754 99.4151 393.009L99.8426 372.796C99.9225 369.048 102.981 366.058 106.719 366.058C106.741 366.058 106.764 366.058 106.788 366.058L129.913 366.282C133.743 366.32 136.805 369.48 136.723 373.311L136.278 394.28C136.199 398.04 133.128 401.018 129.407 401.018H129.406Z" fill="#F3F7FE"/>
<path d="M130.888 306.864C130.807 306.864 130.724 306.864 130.642 306.861L108.574 306.138C104.522 306.006 101.329 302.635 101.416 298.576L101.765 282.126C101.849 278.102 105.13 274.883 109.151 274.875L131.235 274.835C131.239 274.835 131.245 274.835 131.249 274.835C135.397 274.835 138.737 278.248 138.649 282.399L138.284 299.613C138.199 303.654 134.897 306.864 130.888 306.863L130.888 306.864Z" fill="#F3F7FE"/>
<path d="M130.347 356.374H130.346L107.217 356.372C103.36 356.37 100.258 353.2 100.339 349.342L100.902 322.789C100.988 318.748 104.29 315.539 108.299 315.539C108.381 315.539 108.464 315.54 108.546 315.542L131.129 316.282C134.896 316.405 137.861 319.537 137.782 323.307L137.223 349.635C137.143 353.38 134.09 356.373 130.347 356.373L130.347 356.374Z" fill="#F3F7FE"/>
<path d="M222.789 262.558C222.777 262.558 222.764 262.558 222.751 262.558L198.692 262.422C195.112 262.402 192.242 259.45 192.317 255.867L192.782 234.008C192.853 230.608 195.565 227.853 198.962 227.73L223.042 226.865C223.12 226.862 223.198 226.861 223.275 226.861C226.852 226.861 229.76 229.807 229.683 233.415L229.198 256.275C229.125 259.767 226.273 262.557 222.788 262.557L222.789 262.558Z" fill="#F3F7FE"/>
<path d="M175.227 356.38L152.337 356.377C148.413 356.375 145.258 353.149 145.34 349.225L145.879 323.853C145.96 320.033 149.081 316.999 152.872 316.999C152.949 316.999 153.028 316.999 153.105 317.002L175.979 317.751C179.81 317.878 182.828 321.065 182.748 324.901L182.225 349.524C182.144 353.333 179.035 356.38 175.227 356.38Z" fill="#F3F7FE"/>
<path d="M222.87 309.878C222.81 309.878 222.751 309.877 222.692 309.875L196.44 309.015C193.533 308.92 191.244 306.503 191.306 303.594L191.807 279.915C191.869 277.03 194.222 274.722 197.105 274.717L223.377 274.668C223.382 274.668 223.385 274.668 223.388 274.668C226.363 274.668 228.757 277.115 228.695 280.093L228.174 304.68C228.114 307.578 225.746 309.878 222.87 309.878L222.87 309.878Z" fill="#F3F7FE"/>
<path d="M266.504 311.307C266.429 311.307 266.355 311.305 266.281 311.304L242.753 310.533C239.101 310.413 236.224 307.375 236.301 303.719L236.779 281.169C236.856 277.542 239.813 274.64 243.438 274.634L266.983 274.592C266.988 274.592 266.992 274.592 266.996 274.592C270.735 274.592 273.744 277.667 273.665 281.409L273.17 304.773C273.092 308.414 270.117 311.307 266.505 311.307H266.504Z" fill="#F3F7FE"/>
<path d="M177.903 308.407C177.844 308.407 177.785 308.405 177.725 308.403L151.472 307.544C148.566 307.448 146.277 305.031 146.339 302.121L146.808 279.999C146.868 277.113 149.221 274.803 152.105 274.799L178.377 274.752C178.381 274.752 178.384 274.752 178.388 274.752C181.363 274.752 183.757 277.198 183.693 280.176L183.206 303.207C183.144 306.105 180.777 308.407 177.902 308.407H177.903Z" fill="#F3F7FE"/>
<path d="M220.226 356.384C220.225 356.384 220.225 356.384 220.225 356.384L197.335 356.381C193.412 356.381 190.255 353.153 190.339 349.228L190.845 325.326C190.926 321.505 194.047 318.47 197.837 318.47C197.916 318.47 197.993 318.472 198.071 318.473L220.945 319.224C224.776 319.348 227.795 322.536 227.713 326.371L227.221 349.528C227.14 353.337 224.031 356.383 220.225 356.383L220.226 356.384Z" fill="#F3F7FE"/>
<path d="M266.009 356.389C266.007 356.389 266.007 356.389 266.007 356.389L241.514 356.386C238.041 356.386 235.245 353.529 235.318 350.053L235.828 325.989C235.9 322.605 238.664 319.918 242.021 319.918C242.09 319.918 242.158 319.919 242.228 319.92L266.703 320.723C270.096 320.834 272.769 323.656 272.698 327.052L272.204 350.318C272.132 353.691 269.379 356.389 266.008 356.389H266.009Z" fill="#F3F7FE"/>
<path d="M130.384 261.724C130.366 261.724 130.35 261.724 130.333 261.724L112.073 261.619C106.647 261.59 102.295 257.118 102.41 251.687L102.678 239.097C102.775 234.481 106.457 230.744 111.065 230.578L131.388 229.849C131.484 229.846 131.581 229.842 131.677 229.842C136.095 229.842 139.686 233.481 139.592 237.938L139.273 253.014C139.17 257.855 135.218 261.723 130.384 261.723V261.724Z" fill="#F3F7FE"/>
<path d="M84.4486 399.114C84.3507 399.114 84.2512 399.111 84.1525 399.107L75.6123 398.747C69.6216 398.493 64.929 394.307 65.0342 389.312L65.3434 374.739C65.4495 369.74 70.3216 365.763 76.3066 365.763C76.3506 365.763 76.3947 365.763 76.4388 365.763L84.3931 365.84C88.5147 365.88 91.8091 369.28 91.7218 373.404L91.3196 392.376C91.2396 396.133 88.1688 399.114 84.4478 399.114H84.4486Z" fill="#F3F7FE"/>
<path d="M347.057 410.233C346.867 410.233 346.675 410.23 346.486 410.221L330.912 409.561C327.106 409.4 324.125 406.221 324.206 402.409L324.785 375.103C324.866 371.288 327.981 368.243 331.788 368.243C331.811 368.243 331.835 368.243 331.856 368.244L347.499 368.396C353.667 368.455 358.62 372.706 358.51 377.841L358.014 401.257C357.908 406.275 353.01 410.234 347.058 410.234L347.057 410.233Z" fill="#F3F7FE"/>
<path d="M84.8353 356.369L77.0702 356.367C70.856 356.367 65.8231 352.099 65.9332 346.922L66.4301 323.506C66.5353 318.494 71.4246 314.529 77.3884 314.529C77.5352 314.529 77.6829 314.531 77.8305 314.536L85.6462 314.793C89.6985 314.925 92.8909 318.296 92.8044 322.353L92.2374 349.118C92.1517 353.147 88.8631 356.369 84.8353 356.369Z" fill="#F3F7FE"/>
<path d="M87.685 305.451C87.623 305.451 87.561 305.45 87.499 305.448L77.7237 305.127C71.6816 304.929 66.9123 300.725 67.0191 295.689L67.2688 283.909C67.374 278.922 72.225 274.944 78.2107 274.933L88.0815 274.914C88.0848 274.914 88.0881 274.914 88.0913 274.914C91.2282 274.914 93.7548 277.495 93.6888 280.636L93.2784 299.968C93.2131 303.025 90.7167 305.451 87.685 305.451Z" fill="#F3F7FE"/>
<path d="M350.171 262.966C350.143 262.966 350.119 262.966 350.092 262.966L333.94 262.875C330.215 262.854 327.229 259.784 327.308 256.058L327.879 229.086C327.956 225.549 330.776 222.682 334.309 222.556L349.996 221.991C350.158 221.985 350.323 221.982 350.484 221.982C356.662 221.982 361.724 226.229 361.614 231.428L361.133 253.989C361.027 258.986 356.157 262.965 350.169 262.965L350.171 262.966Z" fill="#F3F7FE"/>
<path d="M219.205 404.822C219.104 404.822 219.004 404.82 218.903 404.815L196.034 403.846C192.229 403.685 189.251 400.511 189.332 396.7L189.818 373.787C189.898 369.973 193.012 366.931 196.813 366.931C196.836 366.931 196.86 366.931 196.884 366.931L219.769 367.153C223.665 367.191 226.78 370.406 226.697 374.305L226.196 397.966C226.115 401.789 222.989 404.821 219.205 404.821V404.822Z" fill="#F3F7FE"/>
<path d="M349.095 314.008C348.945 314.008 348.8 314.006 348.651 314.001L332.688 313.478C329.035 313.359 326.158 310.32 326.236 306.663L326.779 281.004C326.857 277.378 329.813 274.477 333.437 274.471L349.336 274.441C349.348 274.441 349.356 274.441 349.364 274.441C355.576 274.441 360.612 278.71 360.501 283.887L360.052 305.031C359.946 310.043 355.056 314.007 349.096 314.007L349.095 314.008Z" fill="#F3F7FE"/>
<path d="M348.186 356.399L331.511 356.397C328.036 356.396 325.242 353.538 325.316 350.063L325.763 328.934C325.835 325.55 328.598 322.864 331.956 322.864C332.025 322.864 332.094 322.864 332.162 322.868L348.758 323.411C354.801 323.609 359.568 327.813 359.462 332.85L359.155 347.423C359.049 352.417 354.182 356.399 348.187 356.399H348.186Z" fill="#F3F7FE"/>
<path d="M311.005 356.393L286.514 356.392C283.039 356.39 280.243 353.533 280.317 350.058L280.797 327.461C280.869 324.078 283.632 321.39 286.988 321.39C287.057 321.39 287.127 321.392 287.196 321.393L311.672 322.196C315.065 322.306 317.736 325.129 317.665 328.524L317.202 350.322C317.131 353.697 314.377 356.393 311.005 356.393Z" fill="#F3F7FE"/>
<path d="M309.116 408.631C309.014 408.631 308.915 408.629 308.813 408.624L285.955 407.657C282.146 407.494 279.168 404.317 279.249 400.505L279.797 374.667C279.878 370.85 282.993 367.806 286.799 367.806C286.821 367.806 286.844 367.806 286.868 367.806L309.742 368.028C313.642 368.066 316.76 371.284 316.677 375.187L316.114 401.77C316.033 405.598 312.905 408.631 309.116 408.631H309.116Z" fill="#F3F7FE"/>
<path d="M88.6134 261.488C88.6028 261.488 88.5914 261.488 88.5808 261.488L79.0086 261.433C72.8221 261.399 67.8349 257.141 67.9442 251.989L68.1833 240.712C68.2853 235.871 72.8702 231.953 78.6733 231.744L88.8125 231.38C88.881 231.376 88.9495 231.376 89.0172 231.376C92.1394 231.376 94.6775 233.946 94.6106 237.097L94.21 256.005C94.1448 259.054 91.6565 261.489 88.6134 261.489V261.488Z" fill="#F3F7FE"/>
<path d="M264.157 406.727C264.057 406.727 263.956 406.724 263.855 406.721L240.997 405.752C237.189 405.589 234.209 402.412 234.289 398.6L234.798 374.615C234.884 370.586 238.171 367.372 242.189 367.372C242.213 367.372 242.237 367.372 242.263 367.372L264.75 367.59C268.65 367.63 271.768 370.846 271.685 374.749L271.152 399.865C271.072 403.692 267.944 406.726 264.155 406.726L264.157 406.727Z" fill="#F3F7FE"/>
<path d="M312.527 262.754C312.515 262.754 312.502 262.754 312.49 262.754L288.948 262.62C285.223 262.6 282.236 259.529 282.315 255.804L282.848 230.704C282.922 227.167 285.744 224.302 289.279 224.174L312.841 223.326C312.923 223.323 313.004 223.321 313.085 223.321C316.805 223.321 319.83 226.385 319.75 230.139L319.198 256.218C319.119 259.851 316.154 262.753 312.527 262.753V262.754Z" fill="#F3F7FE"/>
<path d="M311.472 312.779C311.397 312.779 311.322 312.779 311.25 312.776L287.72 312.005C284.068 311.886 281.191 308.847 281.269 305.191L281.779 281.088C281.855 277.462 284.812 274.559 288.437 274.553L311.982 274.51C311.986 274.51 311.99 274.51 311.995 274.51C315.734 274.51 318.744 277.586 318.665 281.327L318.135 306.246C318.059 309.888 315.084 312.78 311.471 312.779H311.472Z" fill="#F3F7FE"/>
<path d="M76.3987 211.409L77.483 219.359C77.8297 221.902 79.9753 223.817 82.542 223.872L82.9172 223.879C85.7971 223.942 88.1835 221.653 88.2438 218.772L88.416 210.635C88.4837 207.483 85.7621 204.99 82.6293 205.336L80.9976 205.516C78.0802 205.836 76.0014 208.501 76.3987 211.41V211.409Z" fill="white"/>
<path d="M113.264 209.364L114.348 217.312C114.695 219.858 116.841 221.771 119.407 221.827L119.782 221.835C122.664 221.895 125.049 219.609 125.109 216.726L125.282 208.591C125.349 205.437 122.627 202.946 119.494 203.29L117.862 203.471C114.944 203.791 112.867 206.455 113.263 209.365L113.264 209.364Z" fill="white"/>
<path d="M158.623 209.989L159.709 217.937C160.056 220.482 162.201 222.397 164.767 222.451L165.141 222.459C168.023 222.521 170.407 220.233 170.469 217.35L170.642 209.215C170.708 206.06 167.987 203.569 164.855 203.914L163.222 204.094C160.306 204.415 158.226 207.079 158.623 209.989H158.623Z" fill="white"/>
<path d="M202.816 208.009L203.901 215.957C204.249 218.503 206.394 220.417 208.96 220.471L209.334 220.479C212.216 220.54 214.6 218.253 214.661 215.37L214.834 207.233C214.901 204.081 212.181 201.588 209.048 201.934L207.416 202.114C204.499 202.436 202.419 205.1 202.816 208.01V208.009Z" fill="white"/>
<path d="M248.208 202.232L249.292 210.18C249.639 212.726 251.784 214.64 254.351 214.695L254.726 214.702C257.608 214.763 259.992 212.477 260.054 209.593L260.227 201.458C260.294 198.305 257.573 195.813 254.438 196.157L252.807 196.337C249.889 196.659 247.811 199.323 248.208 202.232Z" fill="white"/>
<path d="M296.292 203.253L297.376 211.202C297.723 213.746 299.868 215.66 302.435 215.715L302.81 215.722C305.691 215.785 308.076 213.497 308.137 210.614L308.309 202.479C308.375 199.326 305.655 196.833 302.522 197.178L300.89 197.358C297.973 197.679 295.895 200.344 296.291 203.253H296.292Z" fill="white"/>
<path d="M336.88 202.402L337.963 210.351C338.309 212.896 340.454 214.81 343.022 214.864L343.395 214.873C346.277 214.935 348.663 212.647 348.722 209.764L348.895 201.629C348.962 198.474 346.242 195.983 343.107 196.328L341.477 196.508C338.56 196.829 336.481 199.493 336.879 202.403L336.88 202.402Z" fill="white"/>
<path fill-rule="evenodd" clip-rule="evenodd" d="M267.349 199.531C267.249 197.814 265.456 197.078 264.134 198.118C260.404 201.06 258.889 205.627 257.05 209.886C254.907 214.849 252.855 219.851 251.03 224.942C249.108 230.309 247.468 235.771 246.22 241.317C243.744 234.691 240.868 228.238 237.218 222.114C236.249 220.489 233.514 221.44 234.055 223.37C237.211 234.595 241.095 245.594 244.067 256.875C245.116 260.855 250.557 259.915 250.961 256.089C252.068 245.641 254.588 235.647 258.168 225.779C259.869 221.088 261.769 216.469 263.736 211.884C265.48 207.825 267.611 204.04 267.348 199.531H267.349Z" fill="#879E44"/>
<path fill-rule="evenodd" clip-rule="evenodd" d="M272.474 207.857C269.229 207.25 268.048 211.406 271.025 212.715C290.715 221.384 293.29 245.813 279.065 260.607C272.485 267.447 263.755 272.757 255.491 277.322C247.106 281.952 237.747 285.489 228.018 284.51C205.467 282.242 202.401 259.274 209.143 241.55C215.628 224.503 229.518 211.343 246.521 205.034C248.717 204.219 247.866 200.641 245.615 201.449C229.661 207.174 216.083 218.468 207.671 233.246C199.933 246.841 195.29 266.016 205.42 279.662C215.901 293.783 235.796 294.036 250.783 288.149C267.271 281.675 287.801 269.661 294.364 252.228C301.24 233.967 292.755 211.653 272.474 207.856V207.857Z" fill="#879E44"/>
<path d="M94.6122 189.382C94.6122 194.43 90.5241 198.52 85.4814 198.52C80.4379 198.52 76.3498 194.43 76.3498 189.382C76.3498 184.336 80.4379 180.244 85.4814 180.244C90.5241 180.244 94.6122 184.336 94.6122 189.382Z" fill="#606062"/>
<path d="M169.428 188.68C169.428 193.727 165.34 197.818 160.298 197.818C155.255 197.818 151.167 193.727 151.167 188.68C151.167 183.632 155.255 179.542 160.298 179.542C165.341 179.542 169.428 183.632 169.428 188.68Z" fill="#606062"/>
<path d="M244.949 186.218C244.949 191.265 240.86 195.356 235.817 195.356C230.774 195.356 226.685 191.265 226.685 186.218C226.685 181.172 230.775 177.082 235.817 177.082C240.86 177.082 244.949 181.172 244.949 186.218Z" fill="#606062"/>
<path d="M319.765 182.704C319.765 187.751 315.677 191.842 310.635 191.842C305.59 191.842 301.503 187.751 301.503 182.704C301.503 177.657 305.59 173.566 310.635 173.566C315.677 173.566 319.765 177.657 319.765 182.704Z" fill="#606062"/>
<path fill-rule="evenodd" clip-rule="evenodd" d="M312.28 186.466C308.407 186.466 305.189 183.485 304.9 179.62C304.682 176.732 304.458 173.098 304.319 169.054C304.254 167.127 304.207 165.11 304.192 163.035C304.165 159.808 304.211 156.444 304.365 153.075C307.437 157.909 310.99 162.321 314.862 166.19C314.896 167.041 314.932 167.884 314.972 168.715C315.245 174.148 315.697 179.006 316.044 182.26C316.159 183.331 315.814 184.403 315.097 185.203C314.38 186.004 313.355 186.466 312.279 186.466H312.28Z" fill="#201E1E"/>
<path fill-rule="evenodd" clip-rule="evenodd" d="M242.763 121.467C227.397 124.82 228.846 165.291 230.082 181.715C230.373 185.58 233.589 188.569 237.463 188.569C238.538 188.569 239.562 188.108 240.281 187.307C240.999 186.506 241.343 185.438 241.228 184.368C239.899 171.954 237.076 136.178 248.388 134.268C248.388 134.268 256.503 133.145 257.869 148.533H266.647C266.647 148.533 262.081 117.248 242.763 121.468V121.467Z" fill="#201E1E"/>
<path fill-rule="evenodd" clip-rule="evenodd" d="M167.945 123.556C152.579 126.912 154.03 167.392 155.266 183.815C155.558 187.68 158.774 190.672 162.646 190.672C163.722 190.672 164.746 190.215 165.464 189.415C166.184 188.614 166.526 187.545 166.412 186.475C165.084 174.061 162.26 138.266 173.573 136.355C173.573 136.355 181.683 135.442 183.049 150.908L191.831 150.601C191.831 150.601 187.264 119.341 167.945 123.556Z" fill="#201E1E"/>
<path fill-rule="evenodd" clip-rule="evenodd" d="M93.1282 125.974C77.762 129.327 79.2117 169.83 80.4485 186.252C80.7398 190.117 83.9558 193.122 87.8294 193.122C88.9038 193.122 89.9285 192.669 90.6465 191.869C91.3652 191.068 91.7079 190.003 91.5936 188.933C90.2663 176.519 87.4427 140.68 98.7542 138.769C98.7542 138.769 106.869 137.587 108.235 152.976H117.013C117.013 152.976 112.447 121.755 93.1282 125.974Z" fill="#201E1E"/>
<path d="M367.878 344.769C367.639 344.769 367.418 344.598 367.367 344.351C367.312 344.068 367.493 343.792 367.776 343.735C370.741 343.135 373.319 341.167 375.04 338.198C377.201 334.463 377.729 329.672 376.406 325.692C373.775 317.758 366.162 312.887 360.237 310.199C357.037 308.748 353.651 307.558 350.376 306.411C346.376 305.005 342.238 303.554 338.38 301.602C329.392 297.061 322.516 290.051 319.014 281.861C314.786 271.972 315.276 259.719 320.358 248.24C324.411 239.078 331.054 230.5 341.262 221.244C342.23 220.367 343.211 219.498 344.195 218.628C348.769 214.58 353.497 210.394 356.817 205.233C360.372 199.706 362.816 191.337 359.025 184.417C358.887 184.164 358.978 183.847 359.234 183.708C359.486 183.569 359.805 183.663 359.939 183.915C362.573 188.717 363.364 196.985 357.694 205.799C354.297 211.081 349.514 215.317 344.884 219.413C343.908 220.279 342.928 221.145 341.967 222.019C331.868 231.174 325.306 239.641 321.312 248.663C316.349 259.877 315.861 271.828 319.975 281.451C323.38 289.415 330.082 296.241 338.849 300.67C342.648 302.591 346.754 304.032 350.722 305.424C354.017 306.582 357.427 307.778 360.667 309.248C366.78 312.023 374.65 317.072 377.398 325.365C378.807 329.619 378.253 334.738 375.941 338.723C374.071 341.955 371.245 344.098 367.985 344.759C367.949 344.767 367.914 344.77 367.879 344.77L367.878 344.769Z" fill="white"/>
<path fill-rule="evenodd" clip-rule="evenodd" d="M349.997 183.127C339.1 183.127 327.397 177.655 317.435 168.636C316.564 167.848 315.705 167.029 314.862 166.19C310.989 162.321 307.437 157.909 304.365 153.075C303.201 151.243 302.104 149.352 301.088 147.402C297.717 140.953 295.21 133.913 293.891 126.534C290.124 105.453 296.946 86.5589 308.529 74.2557C315.539 66.806 324.292 61.7712 333.495 60.1245C335.634 59.7425 337.731 59.5571 339.77 59.5571C361.028 59.5571 376.779 79.8383 382.299 110.712C382.61 112.466 382.886 114.223 383.122 115.972C374.505 122.496 367.359 132.128 363.686 144.503C360.178 156.33 360.374 168.858 363.249 180C360.839 181.251 358.225 182.151 355.39 182.659C353.627 182.976 351.82 183.127 349.997 183.127ZM313.519 132.364C313.265 132.364 313.009 132.388 312.753 132.431C310.403 132.853 308.838 135.102 309.258 137.454C309.634 139.546 311.455 141.016 313.508 141.016C313.76 141.016 314.017 140.997 314.274 140.95C316.624 140.528 318.188 138.282 317.768 135.93C317.393 133.835 315.572 132.365 313.519 132.365V132.364ZM317.395 81.1886C316.716 81.1886 315.681 81.925 314.225 83.3472C301.345 95.9027 302.298 123.074 308.091 125.453C308.394 125.579 308.684 125.639 308.962 125.639C314 125.639 315.086 105.988 317.116 94.0584C318.618 85.2339 318.985 81.1878 317.395 81.1878L317.395 81.1886Z" fill="#879E44"/>
<path fill-rule="evenodd" clip-rule="evenodd" d="M308.963 125.64C308.684 125.64 308.395 125.581 308.092 125.455C302.298 123.075 301.346 95.9043 314.226 83.3488C315.682 81.9266 316.717 81.1902 317.395 81.1902C318.985 81.1902 318.618 85.2363 317.116 94.0608C315.087 105.99 314 125.641 308.962 125.641L308.963 125.64Z" fill="#FEFEFE"/>
<path fill-rule="evenodd" clip-rule="evenodd" d="M313.508 141.016C311.455 141.016 309.634 139.547 309.258 137.454C308.838 135.102 310.403 132.853 312.753 132.431C313.01 132.388 313.265 132.364 313.519 132.364C315.572 132.364 317.393 133.834 317.768 135.929C318.188 138.281 316.624 140.527 314.274 140.949C314.017 140.996 313.76 141.016 313.508 141.016V141.016Z" fill="#FEFEFE"/>
<path d="M370.89 332.917C370.7 332.917 370.516 332.811 370.426 332.626C370.296 332.368 370.402 332.055 370.658 331.926C375.362 329.578 377.067 323.579 376.319 318.867C375.469 313.541 372.209 308.973 369.131 305.209C368.41 304.333 367.678 303.467 366.946 302.601C364.272 299.44 361.505 296.171 359.576 292.415C355.111 283.745 355.269 272.316 359.989 261.844C364.785 251.204 373.398 242.881 379.461 237.543C380.103 236.977 380.752 236.413 381.402 235.848C385.126 232.622 388.973 229.287 391.748 225.199C395.402 219.828 396.468 213.778 394.61 209.014C394.504 208.745 394.638 208.442 394.905 208.336C395.173 208.232 395.477 208.365 395.583 208.634C397.567 213.719 396.456 220.133 392.614 225.787C389.76 229.988 385.858 233.369 382.087 236.639C381.442 237.201 380.792 237.764 380.15 238.329C374.162 243.6 365.655 251.819 360.942 262.273C356.352 272.457 356.187 283.546 360.501 291.936C362.379 295.586 365.107 298.809 367.745 301.927C368.481 302.798 369.217 303.666 369.938 304.547C373.103 308.421 376.461 313.132 377.347 318.702C378.158 323.791 376.28 330.289 371.126 332.863C371.052 332.9 370.969 332.917 370.891 332.917L370.89 332.917Z" fill="white"/>
<path d="M440.186 167.234C431.501 196.513 411.27 219.893 390.145 213.616C369.02 207.341 355.001 173.784 363.686 144.502C372.375 115.223 400.479 101.312 421.604 107.588C442.729 113.864 448.875 137.954 440.186 167.233V167.234Z" fill="#FFCC29"/>
<path d="M376.796 149.994C376.264 149.994 375.791 149.781 375.39 149.317C371.741 145.114 381.815 123.161 397.046 118.332C398.232 117.958 399.128 117.76 399.747 117.76C402.144 117.76 400.412 120.731 395.073 127.991C389.093 136.123 381.062 149.994 376.795 149.994H376.796Z" fill="#FEFEFE"/>
<path d="M375.22 164.248C374.858 164.248 374.488 164.197 374.126 164.086C372.091 163.484 370.933 161.344 371.536 159.307C372.032 157.641 373.559 156.562 375.217 156.562C375.579 156.562 375.945 156.613 376.311 156.719C378.346 157.322 379.504 159.461 378.901 161.498C378.405 163.169 376.878 164.248 375.22 164.248Z" fill="#FEFEFE"/>
<path fill-rule="evenodd" clip-rule="evenodd" d="M141.059 244.951L122.175 230.252C121.741 229.914 121.114 230.268 121.179 230.815L123.976 254.613L141.059 244.951Z" fill="#879E44"/>
<path fill-rule="evenodd" clip-rule="evenodd" d="M65.0929 396.421C65.0929 396.421 62.0531 391.918 58.7359 387.751C57.4396 386.121 55.1658 385.778 53.7471 386.985C48.928 391.08 38.6583 399.883 35.2782 403.369C34.77 403.893 34.9911 404.829 35.7057 405.2C36.3046 405.511 36.9744 405.589 37.5756 405.419L61.7252 398.588L65.0937 396.421H65.0929Z" fill="#201E1E"/>
<path fill-rule="evenodd" clip-rule="evenodd" d="M177.001 286.812C184.697 269.532 191.96 243.706 183.498 217.897L178.594 212.991C178.594 212.991 178.593 253.417 168.542 273.491C171.351 277.938 174.161 282.385 177.001 286.812Z" fill="#F8AC92"/>
<path fill-rule="evenodd" clip-rule="evenodd" d="M177.419 205.266L175.568 208.043C175.059 208.807 174.926 209.758 175.215 210.63C175.965 212.908 177.663 217.387 180.056 219.779C183.351 223.078 186.648 215.161 187.309 212.523C187.967 209.882 183.351 203.284 182.033 201.965C180.715 200.646 175.44 201.305 177.419 205.265V205.266Z" fill="#F8AC92"/>
<path fill-rule="evenodd" clip-rule="evenodd" d="M152.16 477.241C152.16 477.241 151.212 482.609 150.748 487.921C150.565 489.997 152.166 491.8 154.247 491.887C161.316 492.182 176.44 492.755 181.866 492.512C182.682 492.476 183.216 491.639 182.913 490.881C182.66 490.243 182.173 489.729 181.55 489.444L156.569 477.956L152.16 477.241H152.16Z" fill="#201E1E"/>
<path fill-rule="evenodd" clip-rule="evenodd" d="M151.383 474.087L152.144 480.507C152.144 480.507 156.52 482.544 159.509 480.249L157.697 473.096L151.383 474.086V474.087Z" fill="url(#paint0_linear)"/>
<path fill-rule="evenodd" clip-rule="evenodd" d="M151.956 353.398C151.628 355.074 150.191 437.056 158.949 473.795C159.091 474.394 158.787 475.011 158.217 475.246C156.874 475.794 154.241 476.59 151.086 476.696C150.109 476.729 149.232 476.094 148.957 475.154C146.454 466.632 129.255 417.309 127.691 376.513C125.943 330.926 133.919 353.395 133.919 353.395L151.956 353.399V353.398Z" fill="#201E1E"/>
<path fill-rule="evenodd" clip-rule="evenodd" d="M114.116 354.864C106.774 373.397 104.371 376.295 101.095 397.453C97.1651 422.825 77.9823 405.306 67.7395 397.068C66.4448 396.026 62.5973 399.756 62.2229 404.997C61.7342 411.833 103.117 444.283 114.313 421.342C121.462 406.69 123.445 390.198 128.19 381.076C128.784 379.938 129.75 379.041 130.93 378.535L145.538 372.274L149.66 357.926L114.116 354.864Z" fill="#201E1E"/>
<path fill-rule="evenodd" clip-rule="evenodd" d="M106.123 289.041C98.428 271.761 91.1638 245.938 99.6264 220.126L104.53 215.219C104.53 215.219 104.532 255.645 114.582 275.72C111.774 280.168 108.964 284.615 106.123 289.041Z" fill="#F8AC92"/>
<path fill-rule="evenodd" clip-rule="evenodd" d="M151.967 282.856H127.8C125.372 282.856 123.042 281.926 121.283 280.252C119.031 278.106 116.134 274.471 114.081 268.749C113.77 267.88 112.839 267.403 111.954 267.665C108.846 268.589 102.041 271.228 98.4711 277.376C98.1375 277.953 98.1423 278.666 98.5029 279.224L113.577 302.569L112.092 360.158C112.092 360.158 149.973 366.104 155.172 360.158L160.372 307.385C160.372 307.385 178.94 296.236 184.139 278.398L168.542 269.478C168.542 269.478 166.725 269.553 165.175 273.734C163.133 279.237 157.836 282.855 151.967 282.855V282.856Z" fill="#879E44"/>
<path fill-rule="evenodd" clip-rule="evenodd" d="M131.275 265.264L130.718 283.929C130.682 285.126 131.428 286.204 132.562 286.579C134.885 287.348 139.088 288.302 143.791 287.286C145.193 286.984 146.089 285.598 145.843 284.184L143.288 269.48L131.275 265.264V265.264Z" fill="#F8AC92"/>
<path fill-rule="evenodd" clip-rule="evenodd" d="M144.059 248.174C144.227 248.385 149.866 263.74 152.346 270.506C152.975 272.218 152.041 274.103 150.3 274.647L144.847 275.644C141.232 276.305 137.641 274.376 136.192 270.995L129.624 263.339C126.054 259.176 127.281 252.74 132.164 250.249C136.974 247.794 142.247 245.901 144.059 248.174V248.174Z" fill="#F8AC92"/>
<path fill-rule="evenodd" clip-rule="evenodd" d="M133.204 265.056L134.766 264.276C134.766 264.276 128.522 254.122 135.546 253.342C142.571 252.562 148.815 250.999 148.815 247.094C148.815 243.188 148.815 236.16 140.23 239.283C131.645 242.408 132.425 247.874 127.742 248.656C123.059 249.437 119.157 250.217 120.717 254.904C122.279 259.59 125.401 262.713 123.84 264.276C122.279 265.838 129.302 273.649 133.205 265.056H133.204Z" fill="#201E1E"/>
<path fill-rule="evenodd" clip-rule="evenodd" d="M134.871 268.099C134.871 268.099 133.573 261.232 130.678 261.063C127.781 260.893 125.12 263.422 128.208 267.138C132.048 271.76 134.871 268.099 134.871 268.099Z" fill="#F8AC92"/>
<path fill-rule="evenodd" clip-rule="evenodd" d="M105.705 207.495L107.556 210.272C108.065 211.037 108.198 211.987 107.91 212.859C107.157 215.137 105.461 219.615 103.068 222.009C99.7708 225.308 96.4749 217.39 95.8157 214.752C95.1565 212.112 99.7708 205.514 101.089 204.195C102.408 202.874 107.684 203.535 105.705 207.494V207.495Z" fill="#F8AC92"/>
<path fill-rule="evenodd" clip-rule="evenodd" d="M351.954 251.307C351.954 251.307 357.352 253.933 358.344 256.949C359.139 259.371 365.107 259.682 365.694 264.444C366.001 266.902 367.816 268.871 370.264 269.245C376.358 270.18 385.748 273.347 387.251 283.933C388.397 292.015 384.279 295.078 379.96 296.138C376.787 296.917 374.677 300.006 375.319 303.212C375.937 306.287 375.015 309.842 369.693 312.652C357.765 318.952 345.852 297.73 345.852 297.73L343.411 260.675L351.954 251.307Z" fill="#201E1E"/>
<path fill-rule="evenodd" clip-rule="evenodd" d="M287.047 242.523C287.047 242.523 310.865 280.221 339.187 287.504C339.187 287.504 333.669 303.233 329.409 305.033C329.409 305.033 294.565 275.939 285.611 247.881L287.048 242.523L287.047 242.523Z" fill="#F8AC92"/>
<path fill-rule="evenodd" clip-rule="evenodd" d="M400.991 483.649L401.758 489.998C401.909 491.204 402.853 492.156 404.057 492.293C406.093 492.526 409.356 492.765 412.553 492.427C413.954 492.278 414.864 490.858 414.438 489.514C413.659 487.062 412.234 483.383 410.183 481.215H403.14C401.841 481.215 400.832 482.356 400.99 483.648L400.991 483.649Z" fill="#201E1E"/>
<path fill-rule="evenodd" clip-rule="evenodd" d="M345.852 409.258L344.663 416.251C344.663 416.251 348.644 456.583 349.352 472.716C349.462 475.246 348.808 477.745 347.482 479.901L340.561 491.144L358.146 480.76L358.496 478.613L355.619 474.651L359.391 429.471C359.611 426.816 359.064 424.155 357.812 421.804L354.174 414.966L345.852 409.256V409.258Z" fill="#F8AC92"/>
<path fill-rule="evenodd" clip-rule="evenodd" d="M339.403 492.773H345.017C346.064 492.773 347.056 492.29 347.698 491.458C349.446 489.183 353.072 484.745 354.805 484.629C357.139 484.473 356.84 492.773 356.84 492.773H358.147L359.804 482.46C360.222 479.865 358.93 477.294 356.604 476.078C356.604 476.078 356.068 480.026 353.175 481.772C350.285 483.517 341.408 489.769 341.408 489.769C341.408 489.769 340.321 489.613 339.128 489.828C337.361 490.149 337.605 492.772 339.404 492.772L339.403 492.773Z" fill="#201E1E"/>
<path fill-rule="evenodd" clip-rule="evenodd" d="M369.938 412.58C369.938 412.58 393.248 456.827 396.952 466.929C400.657 477.033 401.956 485.461 402.003 486.258C402.082 487.506 403.633 488.701 407.904 488.701C410.109 488.701 411.188 487.818 411.719 486.961C412.168 486.23 412.191 485.316 411.814 484.546C410.468 481.815 406.188 473.089 404.602 469.132C402.708 464.405 398.641 442.989 396.409 435.543C394.173 428.097 391.654 420.02 381.933 412.58C381.933 412.58 375.256 406.041 369.938 412.58Z" fill="#F8AC92"/>
<path fill-rule="evenodd" clip-rule="evenodd" d="M355.209 340.077C349.198 314.581 364.43 300.161 364.43 300.161C354.82 290.927 337.305 286.726 337.305 286.726C337.305 286.726 320.598 298.952 322.578 308.521C323.741 314.129 334.326 342.113 334.326 342.113C334.326 342.113 344.112 346.748 355.209 340.077V340.077Z" fill="#879E44"/>
<path fill-rule="evenodd" clip-rule="evenodd" d="M368.543 352.7C366.095 345.324 355.209 340.077 355.209 340.077C344.112 346.749 334.326 342.113 334.326 342.113C334.326 342.113 332.13 350.508 333.644 358.311C335.159 366.112 344.662 416.251 344.662 416.251C359.638 419.289 382.668 413.196 382.668 413.196C373.133 396.249 370.988 360.077 368.543 352.7L368.543 352.7Z" fill="#201E1E"/>
<path fill-rule="evenodd" clip-rule="evenodd" d="M348.234 269.877L353.12 291.852C353.588 293.786 351.824 293.47 349.868 293.101C346.668 292.497 342.538 291.253 341.16 288.759C341.022 288.505 340.951 288.219 340.908 287.93L338.809 272.694C338.644 271.485 339.297 270.312 340.412 269.817L344.462 268.019C346.025 267.325 347.833 268.217 348.234 269.877Z" fill="#F8AC92"/>
<path fill-rule="evenodd" clip-rule="evenodd" d="M338.867 249.846C338.867 249.846 333.662 253.371 331.427 262.349C329.19 271.328 332.824 274.548 336.549 274.35C340.277 274.154 345.678 273.001 350.359 266.559C355.036 260.118 345.686 245.537 338.867 249.846Z" fill="#F8AC92"/>
<path fill-rule="evenodd" clip-rule="evenodd" d="M345.64 262.938C345.64 262.938 347.545 250.073 336.873 252.041L334.714 254.29C334.714 254.29 329.49 248.402 335.272 243.951C341.054 239.501 349.073 240.641 353.514 248.743C357.955 256.845 359.565 262.538 355.844 267.573C352.124 272.608 349.325 268.29 349.325 268.29C349.325 268.29 351.029 263.933 349.616 262.062C348.199 260.192 346.372 263.149 346.372 263.149L345.64 262.938H345.64Z" fill="#201E1E"/>
<path fill-rule="evenodd" clip-rule="evenodd" d="M345.99 264.866C345.99 264.866 346.93 258.247 350.308 260.14C353.685 262.031 349.092 266.322 347.249 267.782L345.99 264.866Z" fill="#F8AC92"/>
<path fill-rule="evenodd" clip-rule="evenodd" d="M287.211 250.284C287.139 251.062 290.029 251.599 290.948 248.283C290.695 246.844 290.246 240.542 289.143 239.562C283.269 234.346 272.796 228.48 272.796 228.48C271.624 230.27 273.16 231.449 273.16 231.449L278.389 234.979C277.842 236.787 277.047 238.386 276.957 240.448C276.89 242.012 277.466 243.542 278.503 244.727C279.542 245.917 280.944 247.453 282.208 248.619C284.597 250.826 287.211 250.284 287.211 250.284Z" fill="#F8AC92"/>
<path fill-rule="evenodd" clip-rule="evenodd" d="M364.43 300.161C364.43 300.161 391.496 355.766 401.294 360.626C401.294 360.626 411.247 361.667 417.337 363.51C418.868 363.973 418.817 366.152 417.274 366.572C413.034 367.73 406.006 368.697 399.566 365.198C399.566 365.198 403.023 370.387 401.007 372.409C401.007 372.409 396.394 366.93 394.665 365.198C393.142 363.675 365.426 333.44 353.777 315.204C352.836 313.73 353.485 309.351 354.143 307.729C355.647 303.997 358.985 298.039 364.43 300.161Z" fill="#F8AC92"/>
</g>
<defs>
<linearGradient id="paint0_linear" x1="151.384" y1="476.693" x2="159.509" y2="476.693" gradientUnits="userSpaceOnUse">
<stop stop-color="#A22B25"/>
<stop offset="1" stop-color="#C0423C"/>
</linearGradient>
<clipPath id="clip0">
<rect width="444" height="523" fill="white"/>
</clipPath>
</defs>
</svg>
