<svg width="48" height="48" viewBox="0 0 48 48" fill="none" xmlns="http://www.w3.org/2000/svg">
<path fill-rule="evenodd" clip-rule="evenodd" d="M5 0C2.23858 0 0 2.23858 0 5V43C0 45.7614 2.23858 48 5 48H43C45.7614 48 48 45.7614 48 43V5C48 2.23858 45.7614 0 43 0H5ZM16.8759 6.10754C18.8441 6.02428 19.4708 6 24.5 6C29.5292 6 30.1548 6.0185 32.1241 6.10754C34.0946 6.20468 35.4372 6.51113 36.6167 6.96906C37.8534 7.43067 38.9724 8.16094 39.8928 9.10723C40.8352 10.0308 41.5649 11.1488 42.0309 12.3833C42.4819 13.5559 42.7953 14.9054 42.8925 16.8759C42.9757 18.8441 43 19.4708 43 24.5C43 29.5292 42.9815 30.1548 42.8925 32.1241C42.7953 34.0946 42.4831 35.4372 42.0309 36.6167C41.5693 37.8534 40.8391 38.9724 39.8928 39.8928C38.9692 40.8352 37.8512 41.5649 36.6167 42.0309C35.4372 42.4819 34.0946 42.7953 32.1241 42.8925C30.1559 42.9757 29.5292 43 24.5 43C19.4708 43 18.8452 42.9815 16.8759 42.8925C14.9054 42.7953 13.5628 42.4831 12.3833 42.0309C11.1473 41.5679 10.0286 40.8378 9.10723 39.8928C8.16479 38.9692 7.43511 37.8512 6.96906 36.6167C6.51113 35.4372 6.20468 34.0946 6.10754 32.1241C6.02428 30.1559 6 29.5292 6 24.5C6 19.4708 6.0185 18.8452 6.10754 16.8759C6.20468 14.8996 6.51113 13.5628 6.96906 12.3833C7.43208 11.1473 8.16216 10.0286 9.10723 9.10723C10.0308 8.16479 11.1488 7.43511 12.3833 6.96906C13.5628 6.51113 14.8996 6.20468 16.8759 6.10754ZM31.9807 9.43796C30.0287 9.3547 29.439 9.33042 24.5 9.33042L24.4237 9.27722C19.6041 9.27722 18.9328 9.30139 17.0847 9.36793L16.9383 9.3732C15.1309 9.4634 14.1618 9.76406 13.5108 10.0173C12.6319 10.3434 12.0283 10.7597 11.3842 11.4038C10.7343 12.0549 10.3191 12.6562 9.99997 13.5362C9.74094 14.1815 9.4449 15.1737 9.34892 16.9811C9.34492 17.1001 9.34105 17.2142 9.33731 17.3245C9.27933 19.0336 9.25178 19.8458 9.25178 24.4734C9.25178 29.112 9.27944 29.9175 9.33764 31.613C9.34128 31.719 9.34504 31.8284 9.34892 31.9426C9.4449 33.75 9.74094 34.7445 9.99997 35.3875C10.3191 36.249 10.7331 36.8688 11.3842 37.5198C12.0294 38.1651 12.6319 38.556 13.5108 38.9064C14.1618 39.1596 15.1552 39.4603 16.9557 39.5574C18.9204 39.6476 19.4974 39.6719 24.4491 39.6719C29.4008 39.6719 29.979 39.6476 31.9414 39.5644C33.7488 39.4799 34.7433 39.1793 35.3863 38.9249C36.1896 38.6274 36.9176 38.1568 37.5187 37.5464C38.164 36.8896 38.5548 36.2825 38.9052 35.4141C39.1585 34.763 39.4591 33.7824 39.5563 31.9819C39.6465 30.0299 39.6707 29.439 39.6707 24.5012C39.6707 19.5634 39.6465 18.9724 39.5632 17.0204C39.4788 15.2199 39.1781 14.2393 38.9237 13.5883C38.6296 12.785 38.1585 12.0582 37.5453 11.4617C36.9463 10.8474 36.2178 10.3746 35.4129 10.0774C34.7618 9.82304 33.7812 9.52238 31.9807 9.43796ZM20.8649 15.7269C22.0174 15.2497 23.2526 15.0044 24.5 15.0048C25.7474 15.0044 26.9826 15.2497 28.1351 15.7269C29.2876 16.204 30.3347 16.9036 31.2167 17.7856C32.0988 18.6676 32.7983 19.7148 33.2754 20.8672C33.7526 22.0197 33.9979 23.255 33.9975 24.5023C33.9979 25.7497 33.7526 26.9849 33.2754 28.1374C32.7983 29.2899 32.0988 30.337 31.2167 31.2191C30.3347 32.1011 29.2876 32.8006 28.1351 33.2778C26.9826 33.7549 25.7474 34.0002 24.5 33.9998C23.2526 34.0002 22.0174 33.7549 20.8649 33.2778C19.7124 32.8006 18.6653 32.1011 17.7833 31.2191C16.9012 30.337 16.2017 29.2899 15.7246 28.1374C15.2474 26.9849 15.0021 25.7497 15.0025 24.5023C15.0021 23.255 15.2474 22.0197 15.7246 20.8672C16.2017 19.7148 16.9012 18.6676 17.7833 17.7856C18.6653 16.9036 19.7124 16.204 20.8649 15.7269ZM18.3329 24.5023C18.3329 27.9114 21.091 30.6694 24.5 30.6694C27.9091 30.6694 30.6671 27.9114 30.6671 24.5023C30.6671 21.0933 27.9091 18.3353 24.5 18.3353C21.091 18.3353 18.3329 21.0933 18.3329 24.5023ZM35.9484 16.1965C36.3653 15.7799 36.5999 15.2149 36.6005 14.6255C36.6005 13.4032 35.5991 12.4087 34.3768 12.4087C34.0853 12.4087 33.7968 12.4661 33.5275 12.5777C33.2583 12.6892 33.0137 12.8526 32.8076 13.0587C32.6015 13.2648 32.4381 13.5094 32.3266 13.7786C32.215 14.0479 32.1576 14.3364 32.1576 14.6279C32.1576 14.9193 32.215 15.2078 32.3266 15.4771C32.4381 15.7463 32.6015 15.991 32.8076 16.197C33.0137 16.4031 33.2583 16.5665 33.5275 16.6781C33.7968 16.7896 34.0853 16.847 34.3768 16.847C34.9661 16.847 35.5314 16.613 35.9484 16.1965Z" fill="white"/>
</svg>
