<svg width="100" height="100" viewBox="0 0 100 100" fill="none" xmlns="http://www.w3.org/2000/svg">
<path d="M86.0354 70.5162C86.0238 70.4973 86.0125 70.4781 86.001 70.459C85.917 70.3217 85.8309 70.1855 85.7428 70.0504C85.6943 69.9758 85.6455 69.9014 85.5959 69.8275C85.5355 69.7379 85.4746 69.6486 85.4123 69.56C85.332 69.4449 85.2502 69.3313 85.1672 69.2184C85.1424 69.1848 85.1193 69.1504 85.0945 69.117C85.0768 69.0934 85.058 69.0709 85.0402 69.0473C84.9402 68.9146 84.8381 68.784 84.7344 68.6547C84.698 68.6094 84.6621 68.5639 84.6256 68.5191C84.5223 68.393 84.4166 68.2688 84.3098 68.1457C84.2652 68.0943 84.2213 68.0426 84.1764 67.9918C84.0873 67.8914 83.9959 67.7932 83.9045 67.6951C83.8363 67.6217 83.7687 67.5479 83.6994 67.4758C83.6475 67.4219 83.5938 67.3695 83.541 67.3164C81.5184 65.2691 79.026 63.774 76.2197 62.9479C76.1717 62.9336 76.1228 62.9219 76.0734 62.9127C76.0729 62.9127 62.8318 60.4529 62.8313 60.4527C62.8078 60.4484 62.7844 60.4473 62.7609 60.4436C62.1414 60.3428 61.5084 60.4258 60.9402 60.6746C60.4793 60.1086 60.1756 59.3311 60.1756 58.6127V56.2154C61.0125 55.6811 61.8252 55.0805 62.6096 54.4051C65.891 51.5797 67.9576 47.5014 68.4035 43.0523C70.8129 42.941 72.7385 40.9461 72.7385 38.5098V35.0941C72.7385 33.7129 72.1195 32.4348 71.0775 31.5816V23.7297C75.8654 21.3701 76.9059 18.6191 76.9059 16.6781C76.9059 13.3477 73.8039 9.17891 68.8105 5.79844C65.6115 3.63301 58.9139 0 49.9998 0C41.0857 0 34.3883 3.63301 31.1893 5.79844C26.1959 9.17871 23.0939 13.3475 23.0939 16.6781C23.0939 18.6191 24.1344 21.3701 28.9223 23.7297V31.5816C27.8805 32.4348 27.2613 33.7129 27.2613 35.0941V38.5098C27.2613 40.9461 29.1869 42.941 31.5963 43.0523C32.042 47.5014 34.1088 51.5799 37.3902 54.4051C38.1746 55.0805 38.9873 55.6811 39.8242 56.2154V58.6127C39.8242 59.3311 39.5205 60.1084 39.0596 60.6744C38.4699 60.416 37.8102 60.3332 37.1686 60.4527L23.9266 62.9127C23.8771 62.9219 23.8283 62.9336 23.7803 62.9479C20.9754 63.7736 18.4842 65.2676 16.4619 67.3133C16.4078 67.3678 16.3531 67.4215 16.2998 67.4766C16.2314 67.5475 16.1648 67.6205 16.0977 67.6928C16.0053 67.792 15.9131 67.8912 15.8229 67.9926C15.7785 68.0426 15.7352 68.0938 15.6912 68.1443C15.5838 68.268 15.4777 68.3928 15.374 68.5195C15.3375 68.5641 15.302 68.6094 15.2658 68.6543C15.1619 68.784 15.0596 68.9146 14.9596 69.0473C14.9418 69.0709 14.923 69.0932 14.9053 69.117C14.8803 69.1504 14.8572 69.1848 14.8326 69.2184C14.7496 69.3313 14.6678 69.4449 14.5875 69.56C14.5252 69.6488 14.4641 69.7383 14.4037 69.8279C14.3543 69.9016 14.3057 69.9756 14.2574 70.05C14.1693 70.1854 14.083 70.3217 13.9988 70.459C13.9873 70.4779 13.9758 70.4971 13.9645 70.516C12.3455 73.1838 11.4941 76.2131 11.4941 79.3727V81.1586C11.4941 81.968 12.1502 82.6238 12.9594 82.6238C13.7686 82.6238 14.4246 81.9678 14.4246 81.1586V79.3727C14.4246 77.9445 14.6363 76.549 15.0441 75.2158C15.9064 75.9016 16.9529 76.2668 18.0406 76.2668C18.2145 76.2668 18.3896 76.2574 18.5648 76.2385C19.8479 76.101 21.0006 75.4719 21.8105 74.4674L23.4051 72.4898C24.215 71.4854 24.5854 70.2254 24.4479 68.9424C24.3385 67.9229 23.9178 66.9861 23.2459 66.2377C23.667 66.0664 24.0971 65.9119 24.5379 65.7797L32.9873 64.2102L39.692 73.5924C40.3631 74.5311 41.4139 75.0486 42.5037 75.0486C42.9609 75.0486 43.425 74.9576 43.8707 74.7684L44.317 74.5787L46.2682 76.8471L43.4539 97.0693H25.041V85.1879C25.041 84.3785 24.385 83.7227 23.5758 83.7227C22.7666 83.7227 22.1105 84.3785 22.1105 85.1879V97.0693H16.2492C15.2432 97.0693 14.425 96.251 14.425 95.2451V87.9768C14.425 87.1674 13.7689 86.5115 12.9598 86.5115C12.1506 86.5115 11.4945 87.1676 11.4945 87.9768V95.2451C11.4945 97.8668 13.6275 100 16.2494 100H83.751C86.3728 100 88.5059 97.8668 88.5059 95.2451V79.373C88.5055 76.2133 87.6543 73.184 86.0354 70.5162ZM21.1236 70.6508L19.5291 72.6285C19.2105 73.0236 18.7572 73.2709 18.2525 73.3252C17.7486 73.3791 17.2523 73.2338 16.8572 72.915L16.2457 72.4221C16.377 72.1881 16.5145 71.9584 16.6578 71.7332C16.6594 71.7307 16.6613 71.7281 16.6629 71.7254C16.7859 71.5324 16.9154 71.3445 17.0473 71.1584C17.0873 71.1021 17.1271 71.0459 17.168 70.99C17.2855 70.8291 17.4064 70.6711 17.5305 70.5156C17.5625 70.4754 17.5939 70.4346 17.6264 70.3947C17.7664 70.223 17.9109 70.0555 18.0588 69.8908C18.102 69.8426 18.1459 69.7953 18.1896 69.7479C18.3361 69.5891 18.485 69.4326 18.6387 69.2809C18.6518 69.2678 18.6646 69.2543 18.6779 69.2412C19.2445 68.6855 19.8588 68.1766 20.5164 67.7199L20.8375 67.9789C21.2326 68.2975 21.4801 68.7508 21.5342 69.2555C21.5879 69.76 21.4424 70.2553 21.1236 70.6508ZM79.1625 67.9785L79.4836 67.7195C80.1414 68.1762 80.7555 68.6852 81.3221 69.2408C81.3354 69.2539 81.348 69.2674 81.3613 69.2805C81.515 69.4324 81.6639 69.5889 81.8103 69.7475C81.8541 69.7949 81.898 69.8422 81.9412 69.8904C82.0891 70.0551 82.2336 70.2229 82.3736 70.3943C82.4061 70.4342 82.4375 70.475 82.4695 70.5152C82.5936 70.6707 82.7145 70.8289 82.832 70.9896C82.8728 71.0453 82.9129 71.1018 82.9527 71.158C83.0846 71.3441 83.2141 71.5322 83.3371 71.725C83.3389 71.7275 83.3406 71.7301 83.3422 71.7328C83.4857 71.958 83.6232 72.1877 83.7543 72.4217L83.1428 72.9146C82.7475 73.2332 82.2516 73.3785 81.7475 73.3248C81.2428 73.2707 80.7895 73.0232 80.4707 72.6279L78.8762 70.6504C78.2184 69.8348 78.3471 68.6363 79.1625 67.9785ZM61.6678 63.6811C61.6697 63.6797 61.6717 63.6781 61.6736 63.6766L62.057 63.3898C62.1252 63.3389 62.2125 63.3191 62.2957 63.3342L63.8326 63.6197L57.9236 71.8885C57.7758 72.0955 57.509 72.1705 57.2748 72.0711L52.9186 70.2205L61.6678 63.6811ZM49.9998 68.7432L41.4613 62.3611C42.268 61.3021 42.7549 59.9543 42.7549 58.6127V57.7549C45.015 58.7018 47.4301 59.1969 49.9836 59.2254C49.9891 59.2254 49.9945 59.2254 50 59.2254C50.0055 59.2254 50.0109 59.2254 50.0164 59.2254C52.5699 59.1967 54.985 58.7016 57.2451 57.7549V58.6127C57.2451 59.9545 57.732 61.3021 58.5385 62.3611L49.9998 68.7432ZM52.8521 73.3764L51.5174 74.9281H48.4828L47.148 73.3764L50 72.1648L52.8521 73.3764ZM28.9223 20.3895C27.0391 19.2285 26.0246 17.9461 26.0246 16.6779C26.0246 14.0365 29.5533 10.4447 32.832 8.22519C35.7531 6.24805 41.8676 2.93066 49.9998 2.93066C58.132 2.93066 64.2465 6.24805 67.1676 8.22539C70.4463 10.4449 73.975 14.0367 73.975 16.6781C73.975 17.9461 72.9605 19.2287 71.0773 20.3896V17.725C71.0773 15.6557 69.6768 13.8523 67.6711 13.3396C63.8775 12.3701 56.418 10.7436 49.0824 10.7406C49.0758 10.7406 49.0703 10.7406 49.0637 10.7406C42.7115 10.7406 36.4006 12.1393 32.2242 13.3131C30.2801 13.8596 28.9223 15.6514 28.9223 17.6703V20.3895ZM34.0041 25.534C33.9836 25.5209 33.9627 25.508 33.9424 25.4949C33.8475 25.4342 33.7561 25.373 33.6672 25.3117C33.6311 25.2867 33.5953 25.2617 33.5602 25.2365C33.4875 25.185 33.417 25.133 33.3486 25.0811C33.3016 25.0451 33.2561 25.0092 33.2111 24.9732C33.1572 24.9303 33.1043 24.8873 33.0535 24.8441C32.9994 24.798 32.948 24.7521 32.8977 24.7061C32.8598 24.6715 32.8215 24.6371 32.7855 24.6025C32.7281 24.5471 32.6744 24.4918 32.6223 24.4365C32.5973 24.4102 32.5711 24.3836 32.5473 24.3572C32.5447 24.3543 32.5426 24.3514 32.54 24.3486H57.1404C57.9496 24.3486 58.6057 23.6926 58.6057 22.8834C58.6057 22.074 57.9496 21.4182 57.1404 21.4182H31.8529V17.6705C31.8529 16.9588 32.3316 16.3271 33.0172 16.1346C37.0166 15.0104 43.0447 13.6713 49.0637 13.6713C49.0691 13.6713 49.0756 13.6713 49.0811 13.6713C56.0965 13.6742 63.285 15.2436 66.9453 16.1791C67.6525 16.3598 68.1465 16.9955 68.1465 17.725V21.418H64.2168C63.4076 21.418 62.7516 22.074 62.7516 22.8832C62.7516 23.6928 63.4076 24.3486 64.217 24.3486H67.4604C67.4578 24.3516 67.4557 24.3545 67.4531 24.3572C67.4293 24.3836 67.4031 24.4102 67.3781 24.4365C67.3258 24.4918 67.2723 24.5471 67.2148 24.6025C67.1789 24.6371 67.1406 24.6715 67.1027 24.7061C67.0523 24.7521 67.001 24.798 66.9469 24.8441C66.8961 24.8873 66.8432 24.9303 66.7893 24.9732C66.7443 25.0092 66.6988 25.0451 66.6518 25.0811C66.5834 25.133 66.5129 25.185 66.4402 25.2365C66.4051 25.2615 66.3693 25.2867 66.3332 25.3117C66.2441 25.373 66.1529 25.4342 66.058 25.4949C66.0377 25.508 66.017 25.5209 65.9963 25.534C65.3873 25.9172 64.6617 26.2869 63.8324 26.6299C63.815 26.6371 63.7994 26.6473 63.7824 26.6551C60.643 27.9492 55.9252 28.9271 50.0002 28.9271C44.0752 28.9271 39.3574 27.9492 36.218 26.6551C36.201 26.6473 36.1854 26.6371 36.168 26.6299C35.3387 26.2869 34.6131 25.9172 34.0041 25.534ZM34.1424 28.9391V31.7937C33.3367 31.3762 32.5215 31.1516 31.8531 31.0314V27.6264C32.4816 28.073 33.2375 28.5141 34.1424 28.9391ZM65.8574 28.9389C66.7623 28.5141 67.518 28.073 68.1467 27.6264V31.0311C67.4783 31.1512 66.6631 31.376 65.8574 31.7936V28.9389ZM39.3023 52.1842C36.3014 49.6004 34.5289 45.7281 34.4395 41.5604C34.4225 40.7637 33.7715 40.1266 32.9746 40.1266H31.8088C30.9174 40.1266 30.192 39.4014 30.192 38.5098V35.0941C30.192 34.6025 30.4137 34.1471 30.7865 33.8436C31.3031 33.8893 32.2676 34.0441 33.0855 34.5637C33.0938 34.5689 33.1018 34.574 33.11 34.5793C33.2254 34.6539 33.3375 34.7361 33.4451 34.8262C33.4576 34.8365 33.4701 34.8471 33.4824 34.8578C33.5348 34.9029 33.5861 34.9494 33.6359 34.9986C33.6795 35.0416 33.725 35.0816 33.7715 35.1199C33.7852 35.1312 33.799 35.1418 33.8129 35.1527C33.848 35.1803 33.8838 35.2064 33.9203 35.2313C33.9348 35.241 33.9488 35.251 33.9635 35.2604C34.0131 35.2924 34.0633 35.3227 34.115 35.3498C34.1152 35.35 34.1156 35.3502 34.1158 35.3504C34.1684 35.3779 34.2221 35.4025 34.2766 35.4252C34.2916 35.4314 34.3068 35.4371 34.3221 35.443C34.3635 35.4592 34.4051 35.4738 34.4473 35.4871C34.4631 35.4922 34.4787 35.4973 34.4947 35.5018C34.55 35.5178 34.6057 35.5318 34.6619 35.543C34.6629 35.5432 34.6637 35.5434 34.6646 35.5436C34.7225 35.5549 34.7809 35.5629 34.8395 35.5691C34.8553 35.5709 34.8711 35.5719 34.8867 35.573C34.9311 35.5768 34.9756 35.5789 35.0203 35.5795C35.0305 35.5797 35.0404 35.5809 35.0504 35.5809C35.0568 35.5809 35.0635 35.5799 35.0699 35.5799C35.1275 35.5793 35.1854 35.577 35.2432 35.5715C35.2447 35.5713 35.2463 35.5713 35.2477 35.5713C35.3068 35.5654 35.366 35.5563 35.425 35.5449C35.4416 35.5418 35.4582 35.5379 35.4748 35.5344C35.5186 35.5248 35.5621 35.5139 35.6057 35.5016C35.6229 35.4967 35.64 35.492 35.6572 35.4865C35.715 35.4682 35.7725 35.4482 35.8293 35.4246C36.5848 35.1092 37.0729 34.3771 37.0729 33.5592V30.0549C40.8459 31.2432 45.4852 31.8576 49.9998 31.8576C54.5145 31.8576 59.1537 31.2432 62.9268 30.0549V33.5592C62.9268 34.3771 63.4148 35.1094 64.1703 35.4246C64.2273 35.4484 64.2852 35.4686 64.3432 35.4869C64.3596 35.492 64.376 35.4965 64.3924 35.5014C64.4369 35.5141 64.4816 35.5254 64.5266 35.535C64.5422 35.5383 64.5578 35.542 64.5736 35.5449C64.6922 35.5676 64.8117 35.5791 64.9309 35.5801C64.9369 35.5801 64.9432 35.5811 64.9492 35.5811C64.9586 35.5811 64.968 35.5799 64.9775 35.5797C65.0234 35.5791 65.0691 35.5768 65.1148 35.573C65.1297 35.5719 65.1445 35.5709 65.1594 35.5693C65.2766 35.557 65.3924 35.5344 65.5057 35.5016C65.5211 35.4971 65.5363 35.4922 65.5518 35.4873C65.5943 35.474 65.6363 35.459 65.6781 35.4428C65.6932 35.4369 65.7084 35.4313 65.7232 35.425C65.7777 35.4023 65.8316 35.3777 65.8842 35.3502C65.8846 35.35 65.885 35.3498 65.8854 35.3496C65.9369 35.3225 65.9871 35.2922 66.0365 35.2604C66.0512 35.251 66.0654 35.2408 66.0801 35.2311C66.1164 35.2062 66.1521 35.1801 66.1871 35.1527C66.2012 35.1418 66.2152 35.1311 66.2289 35.1197C66.2754 35.0812 66.3209 35.0414 66.3643 34.9984C66.4135 34.9496 66.4646 34.9037 66.5164 34.859C66.5299 34.8473 66.5436 34.8357 66.5572 34.8242C66.6053 34.784 66.6539 34.7451 66.7037 34.7082C66.7084 34.7047 66.7127 34.7012 66.7174 34.6977C66.7713 34.658 66.8262 34.6209 66.8816 34.5848C66.8965 34.575 66.9115 34.5656 66.9266 34.5561C66.976 34.525 67.026 34.4949 67.0762 34.4664C67.0834 34.4623 67.0906 34.4578 67.098 34.4537C67.1553 34.4219 67.2129 34.3918 67.2709 34.3631C67.2854 34.3559 67.2998 34.349 67.3143 34.342C67.3662 34.317 67.4184 34.2928 67.4705 34.2701C67.4777 34.267 67.4848 34.2637 67.492 34.2605C67.5521 34.2348 67.6123 34.2107 67.6723 34.1879C67.683 34.1838 67.6936 34.1799 67.7043 34.176C67.7613 34.1547 67.8182 34.1346 67.8748 34.1158C67.8779 34.1148 67.8811 34.1137 67.8842 34.1127C67.9477 34.0918 68.0107 34.0725 68.073 34.0545C68.0754 34.0539 68.0777 34.0531 68.0801 34.0525C68.5264 33.9244 68.9353 33.868 69.2135 33.8432C69.5865 34.1469 69.8082 34.6021 69.8082 35.0939V38.5096C69.8082 39.4012 69.0828 40.1264 68.1914 40.1264H67.0256C66.2285 40.1264 65.5777 40.7635 65.5607 41.5602C65.4713 45.7279 63.6988 49.6002 60.6979 52.184C57.5859 54.8635 53.9871 56.2465 50.0004 56.2945C46.0133 56.2467 42.4146 54.8639 39.3023 52.1842ZM42.7248 72.0711C42.4902 72.1703 42.2236 72.0951 42.076 71.8887L36.167 63.6199L37.7039 63.3344C37.7875 63.3191 37.8744 63.3391 37.9426 63.39L38.326 63.6766C38.3281 63.6781 38.3301 63.6797 38.3322 63.6813L47.0809 70.2205L42.7248 72.0711ZM46.4125 97.0693L49.0857 77.8588H50.9139L53.5871 97.0693H46.4125ZM83.7508 97.0693H77.8898V85.1879C77.8898 84.3785 77.2338 83.7227 76.4246 83.7227C75.6154 83.7227 74.9594 84.3785 74.9594 85.1879V97.0693H56.5463L53.732 76.8471L55.6832 74.5787L56.1295 74.7684C56.5752 74.9576 57.0391 75.0486 57.4963 75.0486C58.5859 75.0486 59.6373 74.5312 60.3082 73.5922L67.0127 64.2102L75.4621 65.7797C75.9029 65.9119 76.3332 66.0664 76.7543 66.2377C75.2047 67.9689 75.0896 70.6234 76.5943 72.4896L78.1891 74.4674C78.999 75.4719 80.1516 76.1008 81.4346 76.2383C81.61 76.2572 81.785 76.2666 81.959 76.2666C83.0463 76.2666 84.093 75.9012 84.9553 75.2156C85.3631 76.5488 85.5748 77.9443 85.5748 79.3725V95.2451H85.575C85.5752 96.251 84.7566 97.0693 83.7508 97.0693Z" fill="black"/>
<path d="M70.0016 83.7227H62.285C60.9651 83.7227 59.8912 84.7965 59.8912 86.1164V90.2275C59.8912 91.5475 60.9651 92.6213 62.285 92.6213H70.0016C71.3215 92.6213 72.3951 91.5475 72.3951 90.2275V86.1164C72.3951 84.7963 71.3213 83.7227 70.0016 83.7227ZM62.8215 89.6904V86.6531H69.4643V89.6904H62.8215Z" fill="black"/>
<path d="M37.715 83.7225H29.9984C28.6785 83.7225 27.6049 84.7964 27.6049 86.1163V90.2274C27.6049 91.5473 28.6787 92.6212 29.9984 92.6212H37.715C39.0349 92.6212 40.1088 91.5473 40.1088 90.2274V86.1163C40.109 84.7964 39.0349 83.7225 37.715 83.7225ZM37.1783 89.6905H30.5355V86.6532H37.1783V89.6905Z" fill="black"/>
</svg>
