<svg width="188" height="70" viewBox="0 0 188 70" fill="none" xmlns="http://www.w3.org/2000/svg">
<path fill-rule="evenodd" clip-rule="evenodd" d="M39.6455 55.3843C40.942 54.9758 40.5465 54.4144 42.7385 54.0986C45.8401 53.6514 49.3427 54.0921 52.4411 54.1493C54.5922 54.1891 56.4986 54.3583 58.6799 54.5394C61.7061 54.7905 64.1417 55.6947 64.5135 55.7033C64.7603 54.77 64.6288 54.589 64.257 53.5953C62.9271 53.3539 46.532 53.0263 44.0953 52.4454C45.824 50.2652 69.4203 42.9357 71.8419 43.5414C72.5241 43.7117 73.5124 44.2505 74.2032 43.356C75.0061 42.315 72.7558 40.0152 72.1103 39.1907C69.0129 35.2388 68.8847 37.6324 64.5232 39.4181C60.0669 41.2437 41.0163 48.8232 38.28 49.3729C36.6516 49.7005 34.6697 48.5635 36.6732 52.2126C37.4448 53.6179 38.3738 54.9942 39.6466 55.3843H39.6455Z" fill="#111111"/>
<path fill-rule="evenodd" clip-rule="evenodd" d="M6.74433 52.0111C6.39731 52.4831 6.41347 52.3797 5.339 52.8269L0.210206 55.1731C-0.611004 56.351 1.19307 59.1315 1.86233 59.6757C2.7288 59.5647 5.30882 57.641 6.393 57.0526C8.04835 56.1538 9.85674 55.3584 11.4841 54.589C17.4373 51.7729 36.4265 44.6083 43.5425 42.399C44.9403 41.9647 45.2529 42.3549 46.239 41.9216C46.2077 39.8223 41.9626 37.5979 40.7922 37.3953C38.8621 38.7704 39.9559 38.4687 37.0795 39.5237C35.5169 40.0971 34.2258 40.7405 32.7698 41.3343C29.8126 42.5413 26.9308 43.5425 24.035 44.7506C21.1263 45.9641 18.2628 47.1991 15.4274 48.3932C13.425 49.2371 8.47081 51.6996 6.7454 52.0122L6.74433 52.0111Z" fill="#111111"/>
<path fill-rule="evenodd" clip-rule="evenodd" d="M86.6054 32.8226L89.7749 32.5769C91.0283 32.5672 91.5035 33.3312 92.6405 32.5995L92.1512 31.3418C92.0834 30.6241 91.288 29.2586 90.6231 28.9773C89.7997 28.6292 88.8793 29.5216 87.7628 29.736C85.5676 30.1563 83.3249 30.3891 81.1457 30.6909C76.933 31.275 72.6394 31.7373 68.4827 32.316C64.1212 32.9228 60.2318 33.1523 55.7852 33.8356C53.6621 34.1622 44.0846 35.686 42.7256 36.4124C42.9648 37.5731 44.6493 38.1626 45.5201 38.7931C46.4329 39.4537 47.5731 40.7351 48.529 41.1953C50.4646 40.6521 49.1228 39.5701 52.2891 38.8728C58.2876 37.5537 71.8204 34.6223 77.1194 34.0749C78.9429 33.8863 85.3596 33.5446 86.6022 32.8226H86.6054Z" fill="#111111"/>
<path fill-rule="evenodd" clip-rule="evenodd" d="M4.01887 66.282C5.52873 65.8994 6.50405 64.9748 8.10767 64.3486C13.5803 62.2126 16.1495 61.5337 21.6081 59.7371C25.0826 58.5926 31.5908 56.1872 34.9037 55.8693C36.3931 55.7259 37.4546 56.1893 38.4925 55.8305C37.6066 54.0867 35.4609 54.0393 35.2259 49.7684C33.9402 50.1445 33.9952 50.6532 32.7796 51.2707C29.6553 52.8592 23.8217 54.798 20.3116 56.0223L2.38938 61.9066C2.22449 63.4768 3.22352 65.1235 4.01887 66.282V66.282Z" fill="#111111"/>
<path fill-rule="evenodd" clip-rule="evenodd" d="M157.729 28.9396C159.12 28.4826 163.679 27.6722 164.351 27.0364C163.595 26.7648 162.144 27.1269 161.096 27.3166C162.815 25.8951 166.97 25.3131 173.868 18.1927C174.432 17.6108 175.042 17.1894 175.066 16.3466C169.816 18.1507 164.061 22.5671 159.674 25.8466C158.909 26.4188 158.259 26.9523 157.46 27.5256C156.839 27.9718 156.098 28.3652 155.181 28.3641L154.432 28.2412C155.936 26.9458 157.35 26.0007 158.863 24.521C160.4 23.0176 161.33 21.6813 162.211 20.0787C163.108 18.4438 163.889 16.9685 164.886 15.3185C165.469 14.3539 167.507 11.5573 167.594 10.6326C166.009 11.664 160.752 17.5827 159.665 19.0409C157.959 21.3342 154.22 26.283 153.803 28.474C151.904 29.1907 149.776 28.9159 147.97 29.1885C150.012 31.5843 148.039 31.1112 152.452 30.124C154.307 29.7091 156.053 28.9439 157.722 29.4547C160.609 30.3385 163.584 31.0368 166.386 31.678C170.424 32.6027 181.193 34.3809 185.115 33.6998C184.095 32.8786 173.062 30.651 171.954 30.4182C169.593 29.9203 164.007 29.4202 161.34 29.5377L158.691 29.4289C158.618 29.4062 158.399 29.3265 158.326 29.2931C157.65 28.987 158.402 29.4407 157.729 28.9396V28.9396Z" fill="#111111"/>
<path fill-rule="evenodd" clip-rule="evenodd" d="M93.1201 31.0325L92.1524 31.3418L92.6416 32.5995C91.5036 33.3302 91.0283 32.5661 89.776 32.5769L86.6065 32.8226C85.8963 34.0619 77.3576 36.1387 74.3875 36.3984C73.4951 36.476 71.3365 36.3111 70.8375 36.5223C71.108 36.9502 71.6652 37.3414 72.0446 37.7843C73.3583 39.32 75.0136 42.3139 76.1474 42.9325C77.3275 42.4896 76.7455 42.08 78.3858 41.2448C81.6447 39.5852 98.8352 33.9132 102.719 32.5359L101.321 32.2212C93.5027 31.5908 96.4578 32.718 93.7226 32.7881L93.1223 31.0325H93.1201Z" fill="#111111"/>
<path fill-rule="evenodd" clip-rule="evenodd" d="M127.579 59.0765C128.851 59.472 131.167 57.8619 132.857 57.7725L129.952 60.2038L131.033 59.541C131.428 61.0854 132.468 62.8474 132.409 64.3896C138.263 61.7859 137.178 62.148 143.098 60.2631C144.415 59.8438 145.673 59.152 146.898 58.8265L146.325 59.6046C146.282 59.6499 146.21 59.7091 146.172 59.7458C146.135 59.7835 146.061 59.8341 146.012 59.8848L146.902 59.6779C147.345 60.1025 147.621 60.1715 148.059 60.3935C147.634 59.6617 147.318 59.8697 147.359 59.1908L147.566 58.1756L146.119 58.6508C144.835 57.0084 141.435 54.4241 140.04 53.1718C137.953 51.2977 136.105 49.8848 133.889 48.0764C130.976 45.7001 123.619 41.2373 119.365 41.6112C120.609 43.563 123.69 46.1247 125.445 47.3263C127.823 48.9558 129.581 49.985 132.067 51.4636L145.584 58.8912C144.041 59.791 142.227 60.1725 140.523 60.6877C138.497 61.2998 137.083 62.0089 135.234 62.6739C134.6 61.0886 133.549 59.7134 132.592 58.4267C133.171 57.7229 133.043 58.1637 133.181 57.4783C132.466 57.2466 132.612 57.5214 131.774 57.474C130.08 55.1009 128.467 52.273 126.63 50.6165C127.631 52.8161 128.435 52.2417 130.7 58.0236L127.579 59.0744V59.0765Z" fill="#111111"/>
<path fill-rule="evenodd" clip-rule="evenodd" d="M155.949 37.2142C155.023 37.1657 154.227 36.9405 153.287 36.7788C152.484 36.6409 151.402 36.5622 150.723 36.1936C149.764 36.3036 144.063 35.0804 142.664 34.8163L136.544 33.7871C135.61 33.6556 135.219 33.7365 134.57 33.2127C139.996 31.0713 147.164 31.2513 148.534 30.748C147.428 28.7801 146.923 29.4882 144.854 29.8654L135.836 31.0605C134.161 31.1715 132.95 30.9043 131.343 31.4797C131.125 32.9433 130.046 34.4607 131.039 36.4889C132.277 36.6269 133.51 36.0923 134.881 36.1085C136.042 36.1225 137.317 36.3294 138.398 36.4566C140.482 36.7012 143.189 37.2853 145.14 37.3425C146.528 37.5979 150.968 38.1777 151.898 38.9676C153.142 38.7963 155.306 39.4375 156.638 39.7317C160.651 40.6176 158.931 41.4679 160.853 41.6263L161.253 38.6476C161.036 36.6851 159.889 37.8059 158.207 37.6356C157.513 37.5655 156.518 37.4114 155.949 37.2121V37.2142Z" fill="#111111"/>
<path fill-rule="evenodd" clip-rule="evenodd" d="M122.002 60.2997L126.489 59.4903C126.179 59.4084 126.766 58.9224 125.445 59.5119C124.374 52.3592 122.613 45.2399 116.446 40.8784C115.19 39.9904 112.887 38.6378 111.332 37.9837C112.232 39.6724 112.892 38.2542 114.458 42.9745C115.803 47.0299 121.376 58.5085 123.279 59.7975L122.003 60.2997H122.002Z" fill="#111111"/>
<path fill-rule="evenodd" clip-rule="evenodd" d="M149.694 12.1156C149.671 12.1791 149.685 12.247 149.606 12.3009L149.26 13.1286C149.055 13.8173 148.888 15.4888 148.069 16.3822C146.585 17.0342 142.386 27.7531 142.284 29.5076C144.143 28.2973 146.031 24.6924 147.44 23.744L147.353 28.8911C148.564 28.0839 150.351 23.2439 150.87 21.3957C151.69 18.4719 150.942 18.2865 152.445 14.9995C153.088 13.5931 153.206 14.4585 154.431 13.606L153.605 11.4183L154.401 9.41268C154.699 9.00747 155.7 6.75614 155.704 5.80884C154.508 6.43714 153.012 9.45902 151.975 10.235L152.071 3.70947C151.553 4.81089 149.593 11.0239 149.693 12.1166L149.694 12.1156Z" fill="#111111"/>
<path fill-rule="evenodd" clip-rule="evenodd" d="M109.478 30.7458L104.477 29.9667C103.245 29.7975 100.324 29.5259 99.4183 29.0269C98.5324 29.2974 96.5419 29.1896 95.5784 28.9816C94.0481 28.6508 93.9866 27.4222 92.0284 28.4439C92.0478 29.2952 92.6805 30.2404 93.1212 31.0314L93.7215 32.787C96.4567 32.717 93.5017 31.5886 101.32 32.2201L102.718 32.5348C105.222 31.8947 119.331 33.4703 123.274 33.9639C129.399 34.7301 127.415 35.5847 129.317 36.3898C130.183 35.7496 130.326 34.0156 130.209 32.8818C129.957 30.402 129.002 32.7223 124.529 32.4411L114.475 31.2653C112.848 31.0584 110.874 30.6144 109.478 30.7448V30.7458Z" fill="#111111"/>
<path fill-rule="evenodd" clip-rule="evenodd" d="M46.4071 26.3854L53.3421 25.9791C55.4932 25.5782 76.2875 20.2964 77.3642 18.4589C68.3847 19.5043 58.0258 19.3049 50.0045 24.4607C49.3288 24.895 48.8988 25.2765 48.2909 25.5588C47.5958 25.8811 46.9287 25.9662 46.4071 26.3865V26.3854Z" fill="#111111"/>
<path fill-rule="evenodd" clip-rule="evenodd" d="M22.9358 37.655L23.0479 38.1615C23.0899 38.2757 23.3529 38.8027 23.4186 38.9504C25.2626 38.1507 27.113 36.6473 28.8448 35.6321C34.6644 32.218 39.2425 29.2564 44.9285 25.5211C50.4851 21.8698 53.7861 22.1716 59.914 14.9585L62.3658 11.7524C63.3087 10.5669 63.0479 10.8374 63.1342 10.2565C61.412 11.2706 59.8633 12.6253 58.1595 13.7407C56.4653 14.8497 54.5556 15.8983 52.9186 17.0827C46.7089 21.5702 48.9419 22.6878 44.9565 25.0448C41.6372 27.0073 37.9956 29.2823 34.3368 31.4312C32.4918 32.5154 30.8117 33.5328 28.8276 34.6417C27.3091 35.4909 24.0383 36.8499 22.9369 37.6561L22.9358 37.655Z" fill="#111111"/>
<path fill-rule="evenodd" clip-rule="evenodd" d="M113.467 22.3203C117.211 20.6078 122.046 16.7691 124.713 14.2806C126.177 12.9163 132.695 6.27654 133.41 4.896C132.051 5.37881 123.137 11.1596 121.231 12.3742C118.374 14.1955 113.245 18.9773 113.466 22.3192L113.467 22.3203Z" fill="#111111"/>
<path fill-rule="evenodd" clip-rule="evenodd" d="M112.357 21.5595C112.408 21.5487 112.532 21.4937 112.499 21.4991C112.494 21.5002 112.804 21.4603 113.099 20.8115C115.58 15.3336 115.764 5.38098 113.431 0C111.228 2.10907 108.958 17.1603 112.357 21.5606V21.5595Z" fill="#111111"/>
<path fill-rule="evenodd" clip-rule="evenodd" d="M80.871 50.6683C82.258 50.2372 90.3893 47.5753 90.469 47.0827C93.4198 45.6699 95.2314 44.0469 97.8286 42.2439C99.3439 41.192 103.897 38.4277 104.587 37.3403L90.5207 42.9939C88.2338 43.91 86.3252 44.8993 84.7895 46.4059C82.8442 48.3146 83.4111 49.0884 80.871 50.6693V50.6683Z" fill="#111111"/>
<path fill-rule="evenodd" clip-rule="evenodd" d="M81.87 21.733C88.0528 22.5003 89.901 20.749 93.7754 18.0796C94.7421 17.4135 103.053 12.5154 103.54 11.5864C102.271 11.7265 99.1812 13.0294 97.7069 13.5457C95.9028 14.1783 94.0955 14.9359 92.0155 15.4489C89.6683 16.0276 83.1018 20.0087 81.8711 21.733H81.87Z" fill="#111111"/>
<path fill-rule="evenodd" clip-rule="evenodd" d="M162.204 37.6981C161.849 38.737 161.479 40.6381 161.918 41.7761C163.014 42.2395 162.321 42.0887 163.572 42.094C166.914 42.107 180.132 47.2336 184.29 48.5786C185.508 48.973 186.442 49.7199 187.959 49.3761C186.143 46.2249 169.495 42.0261 165.314 39.6013C164.382 39.0603 163.129 37.7563 162.204 37.6981V37.6981Z" fill="#111111"/>
<path fill-rule="evenodd" clip-rule="evenodd" d="M105.545 53.0446L106.996 53.3873L105.782 53.6018C106.215 54.5879 105.879 54.5448 105.93 55.6095L104.781 56.0104C105.514 56.3327 105.424 56.1214 106.401 55.8908C107.066 55.7335 107.561 55.6505 108.263 55.4953C109.655 55.186 110.771 54.9769 112.169 54.5286C112.124 52.6976 112.493 51.2103 112.093 48.9763C111.6 46.2206 110.784 44.9165 109.998 42.3979C109.483 42.9519 109.675 42.6383 109.378 43.7968C108.838 45.908 107.038 48.6896 106.435 51.6975C106.194 52.9013 106.542 52.6113 105.544 53.0457L105.545 53.0446Z" fill="#111111"/>
<path fill-rule="evenodd" clip-rule="evenodd" d="M30.8267 8.24768C31.2567 10.7727 32.912 16.0481 33.9197 18.6163C34.4197 19.8923 37.4535 26.1246 39.0797 26.823L39.4526 25.8207C40.568 19.7565 35.7345 14.7613 32.5143 10.2447L30.9797 8.35437C30.9474 8.32851 30.8795 8.28001 30.8267 8.24768V8.24768Z" fill="#111111"/>
<path fill-rule="evenodd" clip-rule="evenodd" d="M40.0131 26.671C42.4681 25.6138 45.3574 19.7306 46.1151 18.2089C47.1842 16.0632 49.3385 10.9441 49.1682 7.961C46.1345 9.91057 39.5497 21.7599 40.0131 26.671V26.671Z" fill="#111111"/>
<path fill-rule="evenodd" clip-rule="evenodd" d="M163.638 53.1599C163.654 53.0963 163.67 53.0144 163.674 52.967L163.717 52.357C163.695 51.8214 163.661 51.9087 163.549 51.3946L163.218 52.2676C162.445 51.5304 158.898 49.7307 157.484 48.9935C153.01 46.6592 143.919 40.8019 138.67 41.6263C140.961 44.6611 152.952 48.6411 157.206 50.3266L162.063 52.0617C163.223 52.4713 163.05 52.0574 163.637 53.1588L163.638 53.1599Z" fill="#111111"/>
<path fill-rule="evenodd" clip-rule="evenodd" d="M99.4172 29.0269C100.322 29.5259 103.244 29.7974 104.476 29.9666L109.477 30.7458C109.511 30.5335 109.107 29.7565 111.457 30.3007C112.384 30.5152 112.716 30.7749 113.588 30.3428C113.574 28.9816 111.124 24.743 108.638 24.6773C107.298 26.0341 108.494 25.7323 104.793 27.1107C102.989 27.7832 101.232 28.3997 99.4161 29.0258L99.4172 29.0269Z" fill="#111111"/>
<path fill-rule="evenodd" clip-rule="evenodd" d="M162.716 44.1374L166.627 49.056C167.934 50.5626 169.575 52.1199 170.991 52.9444C172.501 53.8238 179.882 57.3942 181.169 57.4923C180.08 56.393 178.187 54.9122 176.838 53.7666C173.338 50.7922 171.608 49.4084 167.634 46.9653L162.716 44.1374V44.1374Z" fill="#111111"/>
<path fill-rule="evenodd" clip-rule="evenodd" d="M163.55 51.3946C163.661 51.9087 163.695 51.8203 163.718 52.357L163.675 52.967C163.67 53.0155 163.654 53.0963 163.639 53.1599C164.26 54.5609 166.375 66.7207 167.823 69.7824C168.068 66.7907 167.241 61.5531 167.173 58.2704C167.117 55.5513 166.343 49.9559 164.604 47.4977C164.513 47.3683 164.238 47.0148 164.154 46.9448C163.781 46.6344 163.909 46.7336 163.515 46.6053C163.445 48.141 163.56 49.7533 163.549 51.3936L163.55 51.3946Z" fill="#111111"/>
<path fill-rule="evenodd" clip-rule="evenodd" d="M105.545 53.0446C101.995 52.6652 89.0271 48.6939 85.6312 51.5552C86.5688 52.7461 93.2387 53.6966 95.1765 53.7925C98.0194 53.9315 102.797 53.9499 105.782 53.6007L106.996 53.3862L105.545 53.0435V53.0446Z" fill="#111111"/>
<path fill-rule="evenodd" clip-rule="evenodd" d="M102.18 60.0529L102.54 60.0809C102.587 60.0788 102.674 60.0842 102.732 60.0788C102.794 60.0734 102.864 60.0691 102.935 60.0594L105.825 59.1175L105.906 64.2861C105.905 65.2184 105.992 65.5212 105.672 66.0654C105.727 66.0978 105.876 66.1172 105.843 66.1516C105.811 66.1851 105.975 66.2174 106.013 66.2346C106.272 66.3542 106.254 66.3392 106.501 66.4502C107.749 67.0116 107.606 67.2466 108.955 67.4158C108.748 67.2121 108.608 67.3188 108.594 66.7261L109.182 66.601C108.172 65.8402 108.092 66.3305 107.108 65.4565C108.376 65.2819 110.192 65.6602 111.028 64.3508L109.066 65.1224C109.127 63.6966 110.71 59.4516 111.29 57.7218C111.789 56.2368 111.403 56.8263 112.151 55.5384L112.356 55.1828C110.877 55.9824 109.418 56.9491 107.794 57.8415C105.831 58.9202 104.265 59.2554 102.178 60.0529H102.18Z" fill="#111111"/>
<path fill-rule="evenodd" clip-rule="evenodd" d="M82.396 17.961C83.811 17.7864 85.2109 16.0761 86.0149 14.841C87.5582 12.4712 91.9617 2.43883 92.59 0.179962C92.0404 0.482797 92.4089 0.203672 91.8949 0.699416L90.8322 2.12414C87.056 7.30682 84.0955 11.2307 82.3949 17.961H82.396Z" fill="#111111"/>
<path fill-rule="evenodd" clip-rule="evenodd" d="M0.210205 55.1731L5.339 52.8269C6.41239 52.3796 6.3973 52.4831 6.74433 52.0111L5.87462 52.177C6.16021 52.038 8.70036 49.5022 9.47846 48.8221C10.7211 47.7358 12.1178 46.4986 13.5683 45.4479L22.8711 39.3319C22.0003 37.3608 21.2502 38.7769 20.0109 39.7252L11.1036 46.0794C9.35021 47.4416 7.22929 49.1304 5.45108 50.5087L0.347074 54.9898C0.391259 54.9974 0.251158 55.1084 0.21236 55.1731H0.210205Z" fill="#111111"/>
<path fill-rule="evenodd" clip-rule="evenodd" d="M145.14 37.3446C144.79 37.877 144.512 37.8145 143.321 38.1895L136.399 40.9258C136.632 40.9463 136.723 40.9592 136.969 40.9592L139.735 40.929C148.477 41.2093 149.665 39.0226 151.899 38.9698C150.969 38.1798 146.529 37.6 145.141 37.3446H145.14Z" fill="#111111"/>
<path fill-rule="evenodd" clip-rule="evenodd" d="M69.0475 35.1989C69.9754 34.9004 71.6566 31.7061 72.2041 31.0336L76.4545 26.1182C78.4095 23.4045 80.0713 21.9324 82.1696 19.2036C81.1135 19.4429 79.3288 21.6748 78.4548 22.5165C77.8103 23.1362 77.2951 23.6707 76.6507 24.285L68.444 33.6966L69.0486 35.2L69.0475 35.1989Z" fill="#111111"/>
<path fill-rule="evenodd" clip-rule="evenodd" d="M64.4091 53.0791L65.115 54.6148C68.9289 53.3399 71.2859 53.4121 74.8305 53.1707C74.2183 51.6554 73.8562 52.4206 69.9948 52.7504L64.4091 53.078V53.0791Z" fill="#111111"/>
<path fill-rule="evenodd" clip-rule="evenodd" d="M150.724 36.1936C151.403 36.5622 152.485 36.6409 153.288 36.7788C154.228 36.9405 155.023 37.1657 155.95 37.2142C155.627 37.031 155.971 36.9275 155.447 36.8715C156.172 36.5891 156.581 36.3747 157.252 36.0169L158.779 34.8799C156.547 34.9758 153.179 35.9641 150.726 36.1936H150.724Z" fill="#111111"/>
<path fill-rule="evenodd" clip-rule="evenodd" d="M74.7507 52.2018L75.2734 53.1976L83.9446 51.594C83.547 50.9549 80.6479 51.6457 79.4097 51.788C77.8093 51.9723 76.1927 52.0068 74.7507 52.2018Z" fill="#111111"/>
</svg>
