<svg width="304" height="228" viewBox="0 0 304 228" fill="none" xmlns="http://www.w3.org/2000/svg">
<g clip-path="url(#clip0)">
<path fill-rule="evenodd" clip-rule="evenodd" d="M235.437 74.0628C233.455 70.4794 228.011 70.5926 229.585 67.8371C230.009 67.0997 230.853 65.7284 231.612 65.4664C232.705 66.1327 234.189 68.6747 235.611 69.8746C237.891 71.7892 240.202 75.1366 244.211 78.2155C245.427 79.1502 248.931 81.3171 249.038 81.9251C248.86 83.2091 248.181 83.2479 247.596 83.9335C247.03 84.5998 246.93 85.528 246.432 86.0972C245.627 85.8352 245.294 85.1852 244.832 84.5868C242.84 82.0124 240.377 79.5771 238.718 77.5719C237.994 76.6922 238.117 76.5337 236.901 75.9936C233.067 74.2892 226.081 72.0027 222.059 70.7219C218.587 69.6159 215.302 68.2769 211.41 67.892C212.716 73.3772 214.113 78.0376 213.466 84.0758C213.22 86.3527 211.203 98.138 210.488 99.4187C210.307 97.9375 210.97 94.1115 211.083 92.3036C211.258 89.5319 210.809 87.4329 210.543 84.8165C209.994 79.3928 211.494 74.1631 211.054 69.383L208.313 76.6146C205.241 83.5842 202.377 86.3009 198.329 91.8314C197.673 92.7272 196.8 94.0338 196.108 94.5513C196.121 93.6328 200.68 81.4853 201.585 79.6321C202.781 77.1838 203.286 76.7278 204.145 75.101C202.801 75.7252 198.271 82.0221 196.066 84.0597C195.433 84.645 194.893 85.0299 194.243 85.6315C193.451 86.3656 191.527 88.6004 190.661 88.8042L197.55 76.8604C198.249 75.8449 198.889 75.0169 199.545 74.1954C199.904 73.7459 201.482 72.1644 201.966 71.7536C204.204 69.8552 205.132 69.6514 208.145 68.4127C207.53 68.0473 206.59 68.5001 205.924 68.72C205.086 68.9981 204.394 69.2957 203.625 69.5965C196.765 72.2743 188.75 73.0635 184.221 75.1786L175.728 79.1728C174.302 79.8197 172.777 80.8029 171.503 81.3138C171.978 79.5415 176.879 76.6663 178.738 75.4115C181.405 73.6101 183.626 71.6825 186.303 69.8423C195.051 63.8299 204.85 69.0014 208.575 66.8959C202.684 65.8804 199.539 63.0958 195.766 60.3823C191.631 57.4101 189.607 56.1552 185.149 54.066C184.434 53.7329 183.975 53.652 183.429 53.0343L190.92 54.8486C195.187 55.7316 200.541 57.6494 203.748 60.24C205.503 61.6566 206.577 63.4095 208.022 65.0719C210.301 67.6948 212.192 67.2484 214.465 67.74C218.723 68.6585 224.419 70.4309 228.599 71.8119C230.675 72.4975 233.41 73.5907 235.44 74.0596L235.437 74.0628Z" fill="#111111"/>
<path fill-rule="evenodd" clip-rule="evenodd" d="M262.522 49.978L262.409 49.2179L258.368 52.9825C257.11 54.2924 256.393 55.392 254.728 56.967L246.545 64.2471C244.841 65.8189 243.073 68.0635 241.172 69.1857C241.531 68.3093 242.685 66.7957 243.257 66.2491C244.104 65.4405 244.861 64.4444 245.666 63.361C249.671 57.9793 249.885 56.8668 255.743 52.4748C264.035 46.2587 262.936 47.4068 266.059 54.6611C268.299 59.8616 270.417 63.9173 272.324 69.3604C273.003 71.2976 274.225 75.9354 275.024 77.2873C275.095 74.5771 274.568 70.764 274.309 67.9826C274.135 66.1036 271.752 42.7076 270.666 41.7567C270.035 41.2781 267.1 41.1067 266.04 40.8964C262.425 40.1752 256.758 38.3544 253.732 36.6985C256.341 36.692 260.288 37.1189 262.929 37.4747C264.365 37.6655 265.791 37.9339 267.136 38.3382C268.713 38.8136 269.505 39.3958 270.682 39.9359C268.293 35.725 269.735 39.5672 267.688 33.7651C267.032 31.9022 265.335 28.7521 265.125 27.0639L268.429 32.5911C269.534 34.4572 270.656 36.236 271.38 38.5355C272.661 42.6073 273.026 49.4185 273.698 53.9981C275.331 65.1139 277.138 74.7129 276.812 86.3171C278.671 83.3773 278.606 76.0971 278.722 72.0253L278.751 56C279.534 55.8868 283.64 57.119 286.452 56.2814C287.267 56.0388 288.062 55.4664 288.676 56.1811C289.611 56.9638 288.579 58.6876 288.276 59.6126C287.561 61.773 286.423 78.0376 286.455 80.6508C286.481 82.9536 287.467 87.2194 286.43 88.8656C285.595 89.4834 282.56 87.724 279.188 88.2285C274.633 88.9109 277.423 88.9433 273.808 78.0506C271.671 71.6146 269.958 64.4412 266.857 58.7361C266.049 57.2516 265.315 56.0194 264.575 54.4573C264.029 53.3059 263.172 50.8577 262.525 49.978H262.522Z" fill="#111111"/>
<path fill-rule="evenodd" clip-rule="evenodd" d="M293.7 112.084C293.707 112.097 291.99 125.628 291.715 126.806C290.38 132.543 287.836 134.506 287.128 139.322C288.722 137.621 291.874 130.842 296.859 127.925C297.729 127.414 298.66 126.945 299.617 126.45C303.729 124.325 303.157 123.707 304.398 123.054C304.304 124.299 302.041 125.816 300.182 128.073C299.804 128.533 299.484 128.83 299.106 129.325L297.04 131.919C296.516 132.475 296.335 132.614 295.899 133.103C291.279 138.277 288.117 137.543 286.397 142.236C284.82 146.534 283.061 152.132 282.463 156.919C281.561 164.177 283.843 162.838 282.773 164.865C281.842 166.635 279.23 167.618 276.272 167.488C276.152 161.062 272.729 151.382 270.352 145.253C268.697 140.981 268.419 141.408 267.307 138.969C266.916 138.116 267.178 137.886 267.045 137.275C266.967 136.922 266.596 136.191 266.444 135.606C266.117 134.351 265.91 133.041 265.568 131.835C264.934 129.606 263.822 127.339 263.001 125.075C262.192 122.857 261.193 120.59 260.237 118.523C259.661 117.281 257.369 113.067 257.459 112.019C258.381 111.754 260.03 111.925 260.886 111.421C261.801 110.884 261.698 110.011 262.949 109.419C263.075 109.577 263.059 109.529 263.198 109.846C263.314 110.114 263.269 110.02 263.356 110.328L265.383 116.13C266.285 118.313 266.967 120.57 267.756 122.863C268.584 125.269 269.424 127.223 270.465 129.26C271.594 131.476 273.763 133.876 273.637 134.736C272.02 135.787 269.467 134.497 267.908 137.265C269.079 137.162 270.259 136.964 271.287 136.654C272.415 136.314 272.922 135.848 273.795 135.538C275.037 137.113 276.155 145.328 277.129 148.222C278.351 151.858 279.734 156.964 281.208 160.237C281.525 159.429 282.877 149.474 285.728 141.984C286.384 140.26 286.772 137.931 287.403 136.033C289.368 130.111 288.738 128.53 289.944 123.332C290.435 121.217 291.205 119.626 291.845 117.601C292.362 115.968 292.724 113.128 293.704 112.081L293.7 112.084Z" fill="#111111"/>
<path fill-rule="evenodd" clip-rule="evenodd" d="M221.238 115.599C220.365 115.218 219.874 113.681 218.448 113.041C218.878 114.121 219.489 115.117 219.971 116.233C220.452 117.352 220.843 118.41 221.267 119.597C222.786 123.869 226.369 136.98 227.3 141.405C226.795 141.162 226.934 141.298 226.401 139.878C225.163 136.57 223.423 129.493 221.855 127.478C220.31 125.493 218.891 124.778 218.428 121.181C218.07 118.394 218.202 115.153 217.142 112.976C216.802 116.935 216.398 119.645 215.726 123.407C215.328 125.628 214.442 131.735 214.585 133.711C214.268 129.5 215.021 125.561 214.488 121.301C214.206 119.07 214.439 117.472 215.435 115.926C217.892 112.123 213.744 108.025 223.362 114.745C226.517 116.951 227.694 117.731 230.442 120.153C231.761 121.317 238.431 127.53 239.155 128.597C239.071 127.964 237.254 123.83 236.824 122.669C234.69 116.938 232.757 107.776 230.597 103.478C228.709 99.7163 227.245 95.5765 225.751 91.3851C225.007 89.3023 224.27 87.2777 223.433 85.2304C222.715 83.4808 221.219 80.8578 220.811 79.3313C222.292 80.7867 229.042 93.1315 230.151 95.6606C231.677 99.1438 231.205 102.701 232.33 106.194C233.355 109.377 234.357 112.64 235.417 115.813C236.791 119.927 240.942 129.626 243.558 133.293L255.52 146.706L251.734 148.446C250.496 147.472 251.449 147.388 249.122 146.366C240.112 142.417 231.228 141.942 221.38 143.271C215.929 144.008 217.352 144.254 215.681 146.867C214.4 148.869 213.223 150.415 211.85 152.145C209.043 155.687 207.605 159.209 205.497 163.743C205.497 163.724 208.316 153.006 208.588 152.272C209.211 150.596 210.434 148.801 211.659 147.928C213.097 146.9 215.27 146.107 215.852 144.552C213.66 144.975 210.873 146.078 208.937 146.896C206.48 147.938 204.087 149.39 203.03 149.843C203.431 158.374 202.927 158.361 201.646 166.599C201.44 163.97 201.301 161.227 201.252 158.578C201.197 155.515 201.701 153.947 202.099 151.146C201.588 151.421 202.012 151.159 201.656 151.457C201.579 151.521 201.385 151.718 201.32 151.793L195.792 159.17C195.08 160.144 194.528 161.44 193.878 162.071C194.292 160.422 194.896 159.992 194.857 157.948C194.809 155.473 194.505 155.829 195.95 154.458C197.182 153.29 200.269 151.059 200.67 149.982C197.557 151.169 195.355 151.693 191.89 152.53C189.465 153.116 184.224 155.001 183.361 155.156C184.502 153.973 188.482 152.605 190.192 151.457C192.989 149.577 193.629 149.002 197.951 148.847C201.934 148.704 203.075 148.255 206.331 146.845C212.816 144.037 225.37 141.353 232.252 141.547C240.574 141.78 242.979 143.4 249.623 144.978C248.811 142.818 244.79 137.711 243.403 135.991C242.281 134.6 241.217 133.145 240.05 131.722L234.713 125.625C234.15 124.946 233.568 124.176 232.912 123.607C231.997 122.815 231.7 122.478 230.953 121.754C229.052 119.907 229.33 119.94 226.844 118.238C226.048 117.692 225.334 117.165 224.616 116.657C223.252 115.687 221.587 114.419 219.948 113.652C220.359 114.535 220.84 114.474 221.241 115.586L221.238 115.599Z" fill="#111111"/>
<path fill-rule="evenodd" clip-rule="evenodd" d="M285.98 90.0008C286.798 91.9122 286.022 93.6425 285.389 95.2693C284.784 96.8249 284.47 98.8592 284.154 100.59C282.922 107.359 281.496 117.472 282.094 124.163C282.498 128.672 275.001 125.299 273.152 124.668C271.099 123.969 271.484 122.973 272.405 120.619C272.99 119.128 273.272 116.825 273.511 115.143C274.073 111.162 274.461 107.368 274.788 103.316C275.046 100.108 275.189 94.1018 275.89 91.2751C276.537 88.6684 277.762 89.4154 280.119 89.7162C281.464 89.8876 285.479 89.8294 285.98 90.0008Z" fill="#111111"/>
<path fill-rule="evenodd" clip-rule="evenodd" d="M229.598 67.5718C227.29 67.0738 220.983 60.7122 217.879 58.1669C217.455 57.8208 217.297 57.5912 216.883 57.2613C216.201 56.7212 215.603 56.2393 214.64 55.6927C213.615 55.1138 213.049 55.0039 212.499 53.9625L213.615 51.3654C214.575 51.6209 214.869 52.3648 215.49 52.934L219.098 56.1067C219.828 56.7018 220.326 57.1352 221.076 57.7238C222.544 58.8816 227.743 62.8758 229.139 63.5744C228.253 61.8862 226.853 60.5052 225.709 59.0207C224.607 57.5912 223.249 56 222.098 54.7904C220.152 52.7399 218.066 50.9256 215.942 49.0853C212.794 46.3557 213.253 46.0582 209.205 43.9656C205.697 42.1513 194.767 37.824 191.686 37.3841C191.731 37.4294 191.799 37.4262 191.825 37.5102L194.004 38.8427C200.635 42.7625 199.907 43.5129 207.02 44.4734C208.2 44.6319 211.051 45.6118 212.044 46.4463C212.36 46.7115 212.166 46.5206 212.409 46.8149C210.728 46.912 208.992 46.6726 207.359 47.0413C209.005 48.3318 210.44 47.2936 213.77 47.6494C212.716 48.2606 211.019 47.9372 209.9 48.6002C210.851 49.3538 211.898 49.6578 212.768 50.3628L212.257 53.1733C209.532 53.4288 208.988 49.0756 206.24 49.7516C203.379 50.4566 200.46 49.6578 197.191 50.8771C194.919 51.7244 194.599 52.4877 193.768 53.3965C193.306 53.901 193.887 53.4935 193.238 53.8331C194.395 51.152 194.961 50.9223 197.806 49.8033C200.496 48.7457 201.074 48.2833 204.433 47.9404C203.45 46.3395 197.996 46.6047 193.571 44.5737C188.534 42.2612 182.407 43.322 181.046 42.5297L189.177 42.2548C191.631 42.4747 194.269 43.3415 196.781 43.0504C194.66 41.4204 191.052 39.509 188.65 38.1409C189.901 36.5109 192.09 36.9313 194.566 37.0607C207.679 37.7528 209.919 43.791 217.171 49.3505C219.557 51.1811 224.07 56.1746 224.409 56.4269C222.809 50.172 218.053 42.9825 217.85 42.4359C220.397 43.6196 223.756 49.6254 224.574 53.1733C225.143 55.641 224.755 56.1197 225.554 57.8564C225.709 55.392 223.776 48.7522 223.068 46.1972C222.55 44.3311 222.036 42.465 221.506 40.5633C220.973 38.6422 220.093 36.7308 219.657 34.9132C220.789 35.6312 221.451 39.3343 225.059 43.5743C227.649 46.6177 224.781 53.4806 226.11 56.097C226.85 53.0601 227.891 49.2826 228.253 46.1358C228.473 44.2114 228.538 35.8899 229 35.007C229.601 36.388 229.747 42.9145 229.825 44.8389C229.97 48.542 230.093 50.8609 228.683 54.0142C228.143 55.2205 227.358 56.249 226.844 57.4651C225.922 59.6514 227.707 60.0783 230.216 64.0498C231.444 65.9936 230.267 64.5996 229.592 67.5783L229.598 67.5718Z" fill="#111111"/>
<path fill-rule="evenodd" clip-rule="evenodd" d="M270.126 196.295H268.267C264.911 193.766 268.432 195.538 262.5 192.084C257.172 188.983 263.162 185.438 264.653 178.947C265.273 176.246 265.399 173.067 265.674 170.224L272.515 182.275C274.468 186.269 273.255 184.063 272.703 189.526C272.337 193.116 272.631 194.429 270.123 196.295H270.126Z" fill="#111111"/>
<path fill-rule="evenodd" clip-rule="evenodd" d="M291.237 194.232C288.033 194.665 284.157 196.272 283.572 193.866C282.372 188.937 282.075 186.741 280.41 181.146C276.831 169.112 274.684 169.131 278.923 168.446C280.691 168.158 282.243 167.462 282.97 166.531C283.743 168.562 284.254 171.534 284.852 173.743C285.498 176.127 286.087 178.345 286.772 180.716C287.435 183.012 288.124 185.237 288.864 187.518C289.556 189.652 290.739 192.243 291.234 194.232H291.237Z" fill="#111111"/>
<path fill-rule="evenodd" clip-rule="evenodd" d="M262.645 108.756C262.118 109.296 258.756 111.133 257.763 111.22C257.136 108.833 256.616 106.977 255.662 104.674C254.834 102.679 254.039 100.24 253.095 98.3482L248.556 89.755C247.968 88.8171 247.237 87.9989 246.794 87.006C247.134 86.3236 247.551 86.0875 247.958 85.3501C248.204 84.9038 248.763 83.7912 248.963 83.5875C250.257 82.2518 251.181 84.6645 251.679 85.7867C252.878 88.484 253.884 91.1781 255.109 93.7945C256.302 96.3398 257.511 98.8204 258.688 101.437C259.49 103.219 260.398 105.551 261.669 106.928C262.189 107.494 262.567 107.795 262.648 108.756H262.645Z" fill="#111111"/>
<path fill-rule="evenodd" clip-rule="evenodd" d="M278.257 148.549C276.666 145.926 275.809 138.29 275.079 136.292C274.862 135.696 274.659 135.522 274.455 135.011C272.919 131.114 274.261 134.273 272.399 131.346C271.539 129.995 270.511 127.233 271.71 125.431C272.906 125.176 273.886 126.285 275.16 126.676C278.981 127.85 281.887 125.58 281.79 128.934C281.761 129.933 281.027 131.511 280.766 132.575C279.97 135.8 279.521 144.561 278.254 148.549H278.257Z" fill="#111111"/>
<path fill-rule="evenodd" clip-rule="evenodd" d="M275.26 177.081C275.043 176.893 275.124 176.974 274.907 176.722L274.106 175.603C270.452 170.354 271.726 168.853 268.015 164.325C266.693 162.715 266.534 163.53 266.712 160.933C266.764 160.182 266.803 159.209 266.644 158.478C266.563 158.106 264.872 155.587 267.375 155.768C268.177 155.826 269.163 156.819 273.372 157.107C274.151 160.208 274.979 163.174 275.567 166.531C276.23 170.318 275.493 173.3 275.263 177.078L275.26 177.081Z" fill="#111111"/>
<path fill-rule="evenodd" clip-rule="evenodd" d="M269.285 167.278C268.972 167.883 267.491 169.568 266.563 169.458C265.519 169.335 264.85 167.702 264.426 166.858C262.968 163.944 259.241 157.433 257.34 155.101C255.982 153.433 253.557 151.317 253.114 149.914C253.337 149.545 255.148 147.718 255.536 147.524C256.59 147.443 258.332 151.072 259.186 152.407C260.304 154.16 261.197 155.642 262.289 157.559C263.534 159.742 265.849 163.242 267.556 165.004C268.306 165.781 269.146 166.039 269.289 167.281L269.285 167.278Z" fill="#111111"/>
<path fill-rule="evenodd" clip-rule="evenodd" d="M276.075 190.37C275.755 189.746 275.47 187.883 275.182 187.026C274.005 183.527 270.123 176.217 268.118 173.332C267.614 172.608 266.579 171.298 267.401 170.26C267.436 170.215 269.088 168.717 269.725 168.494C270.381 169.167 270.695 170.535 271.141 171.58C272.16 173.953 273.052 175.14 274.368 177.246C275.512 179.076 276.21 183.041 279.084 185.881C280.704 187.485 277.245 190.457 276.078 190.37H276.075Z" fill="#111111"/>
<path fill-rule="evenodd" clip-rule="evenodd" d="M262.522 49.978C261.345 53.4353 251.404 73.3352 249.71 73.8009C250.396 71.4593 251.016 71.938 252.067 67.2355C252.633 64.7032 253.095 62.1934 254.21 60.0557C255.474 57.6333 258.517 54.412 260.392 52.4715C261.109 51.7277 261.691 50.5504 262.519 49.978H262.522Z" fill="#111111"/>
<path fill-rule="evenodd" clip-rule="evenodd" d="M230.833 105.554C228.053 104.93 222.88 101.304 221.121 99.4058L213.689 91.2492L222.848 97.6788C224.542 98.8269 225.874 99.8942 227.241 101.12C228.046 101.841 230.358 104.289 230.833 105.554V105.554Z" fill="#111111"/>
<path fill-rule="evenodd" clip-rule="evenodd" d="M221.238 115.599L221.49 115.771C221.804 116.046 221.387 115.603 221.813 116.084L223.268 118.018C223.941 118.94 224.458 119.639 225.137 120.596C226.582 122.637 235.705 135.528 236.148 136.631C235.417 136.311 235.427 136.211 234.887 135.619L231.586 132.145C225.948 127.714 226.831 127.343 224.678 121.266C223.86 118.953 221.668 116.857 221.235 115.603L221.238 115.599Z" fill="#111111"/>
<path fill-rule="evenodd" clip-rule="evenodd" d="M232.621 104.616C232.511 101.068 233.614 97.6982 235.194 95.2499C237.005 92.4426 237.506 90.4374 238.686 87.1354C239.232 91.854 235.631 103.238 232.621 104.616V104.616Z" fill="#111111"/>
<path fill-rule="evenodd" clip-rule="evenodd" d="M271.839 155.435C269.26 155.425 264.569 155.283 267.559 152.618C270.291 150.182 268.758 149.241 269.366 145.321C270.398 147.022 272.651 153.142 273.026 155.367L271.839 155.435V155.435Z" fill="#111111"/>
<path fill-rule="evenodd" clip-rule="evenodd" d="M217.271 144.788C217.636 151.285 215.881 153.61 214.672 158.604C214.352 159.927 214.213 161.602 213.695 162.773C213.498 161.195 214.138 159.633 214.171 157.967C214.206 156.204 213.993 154.487 214.122 152.718C214.261 150.826 215.933 145.826 217.271 144.791V144.788Z" fill="#111111"/>
<path fill-rule="evenodd" clip-rule="evenodd" d="M269.412 42.6332C266.162 43.9042 256.254 46.042 254.075 43.031C256.69 43.0472 258.724 42.2807 261.465 42.2677C263.489 42.258 267.575 42.2224 269.412 42.6332V42.6332Z" fill="#111111"/>
<path fill-rule="evenodd" clip-rule="evenodd" d="M244.722 53.5C246.041 52.6365 250.117 51.0194 251.876 50.3046C254.753 49.1371 257.543 48.6002 260.938 48.5711C260.094 49.4152 255.154 51.4269 253.493 51.6986C250.683 52.1546 247.172 53.2801 244.719 53.5032L244.722 53.5Z" fill="#111111"/>
<path fill-rule="evenodd" clip-rule="evenodd" d="M277.183 194.118C276.753 193.388 275.926 191.935 275.819 191.001C276.834 190.496 277.371 190.862 278.27 190.021C278.829 189.494 279.117 188.643 280.067 188.51C280.549 189.303 280.675 190.26 280.743 191.428C280.843 193.187 281.053 192.954 281.545 194.093L277.187 194.118H277.183Z" fill="#111111"/>
<path fill-rule="evenodd" clip-rule="evenodd" d="M287.513 32.2094L288.347 32.0963C288.389 32.19 288.418 32.2806 288.44 32.3712C289.666 32.5167 290.371 32.4746 290.312 34.0044C290.241 35.8479 289.275 39.5219 288.87 41.5174C288.36 44.0368 287.93 46.4107 287.574 48.9301L287.542 49.1533C287.92 48.238 288.243 47.3098 288.644 46.4172C289.41 44.7095 290.167 42.7043 290.661 41.0775C291.499 38.3253 291.984 35.5859 292.472 32.7981C293.193 28.6648 293.839 28.888 293.235 24.3537C292.708 20.4241 289.637 8.90725 287.923 6.08706C287.907 6.14851 287.956 6.20672 287.884 6.27141L287.988 8.8264C288.447 16.5237 287.121 16.3264 291.13 22.8012C291.796 23.875 292.763 26.7987 292.559 28.0891C292.495 28.4999 292.566 28.2314 292.417 28.5969C291.117 27.245 290.147 25.6603 288.586 24.496C288.356 26.582 290.5 27.2127 292.478 30.1913C291.069 29.6448 290.212 28.0471 288.699 27.4746C288.56 28.681 288.971 29.7256 288.828 30.8414L285.896 31.8019C286.446 31.9475 287.047 32.106 287.509 32.2127L287.513 32.2094ZM285.124 31.5982C283.665 29.5089 287.399 26.8666 284.862 25.0425C282.068 23.0341 280.856 20.1525 277.219 18.0858C274.688 16.6499 273.63 16.7986 272.063 16.6013C271.186 16.4914 272.04 16.7534 271.212 16.3976C274.94 15.8963 275.586 16.2424 278.823 18.0114C281.878 19.6803 282.789 19.9099 285.547 22.536C286.585 20.8349 282.421 16.417 281.48 11.6013C280.41 6.1194 274.908 1.57539 274.801 0.000350952L280.872 6.65304C282.376 8.8264 283.313 11.5075 285.411 13.4513C285.673 10.7831 285.182 6.71772 284.955 3.95574C287.61 4.11098 288.709 6.17115 290.325 8.3154C298.886 19.6673 293.936 24.8517 293.064 33.9656C292.776 36.9637 290.571 43.4805 290.535 43.901C296.174 39.1338 300.587 31.2166 301.033 30.7444C301.56 33.5258 297.438 39.6286 294.176 42.258C291.906 44.0853 291.114 44.0239 289.798 45.6442C292.575 44.4249 298.398 39.1661 300.664 37.1739C302.319 35.7185 303.975 34.2664 305.659 32.7787C307.359 31.278 308.808 29.496 310.466 28.1376C310.492 29.4766 306.952 32.0639 304.922 37.4035C303.464 41.2393 293.995 42.6008 292.103 45.1461C295.918 44.1015 300.751 42.9016 304.418 41.4786C306.661 40.6086 315.72 36.1002 317.003 36.0031C315.933 37.2645 308.969 40.9643 306.939 42.0834C303.034 44.2341 300.606 45.6086 296.19 46.1584C294.499 46.3686 292.824 46.2749 291.146 46.5109C288.547 46.8796 288.78 48.2089 287.29 51.3008C287.264 51.7115 287.257 52.1061 287.29 52.4489C287.438 54.0401 287.496 54.7128 286.126 54.7775C284.891 54.8357 279.744 55.5699 280.778 52.9017C282.314 48.9398 283.223 42.5426 283.662 38.2121C283.775 37.106 283.94 35.8155 283.847 34.7644C283.746 33.6648 283.578 32.4779 284.409 31.4591C284.506 31.4527 284.774 31.5109 285.13 31.6014L285.124 31.5982Z" fill="#111111"/>
<path fill-rule="evenodd" clip-rule="evenodd" d="M130.425 124.81C132.326 125.134 133.752 125.564 135.562 126.046C136.474 126.288 137.105 126.492 137.974 126.712C139.251 127.032 139.277 126.735 139.933 127.553C141.097 127.546 145.497 129.095 147.169 129.399C150.124 129.94 152.338 129.681 154.889 129.377C158.371 128.963 158.581 130.13 160.876 131.993L175.751 144.189C177.458 145.651 179 146.832 180.62 148.403C181.405 149.167 182.026 149.765 182.808 150.57C183.61 151.395 184.373 152.378 185.382 152.77L186.533 151.651C185.841 150.451 167.947 136.874 166.973 135.78L167.93 135.169C168.26 134.998 168.558 134.881 168.942 134.697C173.982 132.265 178.864 129.597 183.167 125.813C185.291 123.947 195.717 114.241 196.875 112.081C195.504 112.359 181.835 119.49 179.352 120.722C173.591 123.578 169.062 127.789 166.87 134.018C166.783 134.26 166.718 134.49 166.598 134.723C166.217 135.46 166.657 134.917 166.178 135.318C164.63 134.131 166.608 132.896 168.002 126.903C168.764 123.614 169.198 119.606 169.211 116.317C169.227 112.262 168.357 101.12 166.838 98.3126C164.368 100.395 162.735 112.821 162.586 116.883C162.473 120.024 162.573 123.07 162.894 126.104C163.391 130.819 164.507 132.275 164.846 134.189C163.711 133.636 161.895 132.097 160.779 131.259C156.376 127.957 151.362 125.117 145.41 124.406C142.494 124.073 140.467 123.517 137.525 123.588C135.094 123.646 132.808 123.888 130.6 123.927L128.14 124.199L130.425 124.807V124.81Z" fill="#111111"/>
<path fill-rule="evenodd" clip-rule="evenodd" d="M215.49 167.692C213.731 167.385 213.854 168.277 211.106 167.32C207.22 165.965 203.402 163.332 199.826 161.392C197.343 160.043 195.223 158.691 192.788 157.162C189.413 155.037 187.121 152.511 186.691 152.275C185.841 153.213 185.883 153.504 185.715 154.888C187.121 155.975 206.033 166.276 208.523 168.429C205.19 169.927 173.249 164.196 170.792 162.026C170.1 161.415 169.272 160.189 167.927 160.813C166.362 161.541 167.594 165.583 167.85 166.935C169.072 173.42 170.669 170.706 176.831 171.259C183.128 171.825 209.923 174.516 213.443 175.528C215.538 176.133 217.161 178.659 217.035 173.19C216.987 171.085 216.734 168.918 215.487 167.692H215.49Z" fill="#111111"/>
<path fill-rule="evenodd" clip-rule="evenodd" d="M251.808 191.534C252.497 191.195 252.416 191.305 253.939 191.434L261.336 191.803C263.007 190.926 262.584 186.593 262.134 185.554C261.058 185.16 256.887 185.842 255.264 185.871C252.791 185.92 250.202 185.752 247.838 185.664C239.194 185.347 212.726 182.21 203.092 180.483C201.2 180.144 201.071 179.5 199.661 179.409C198.426 181.877 202.031 187.039 203.273 187.983C206.357 187.547 204.896 187.236 208.888 187.747C211.057 188.025 212.952 188.054 215.008 188.242C219.185 188.624 223.152 189.199 227.258 189.542C231.383 189.885 235.466 190.179 239.497 190.503C242.342 190.729 249.607 190.855 251.808 191.534Z" fill="#111111"/>
<path fill-rule="evenodd" clip-rule="evenodd" d="M147.101 165.59L143.257 163.96C141.789 163.213 141.699 162.035 139.93 162.2L139.739 163.963C139.384 164.84 139.487 166.916 140.092 167.647C140.842 168.552 142.455 168.067 143.884 168.494C146.697 169.332 149.451 170.418 152.176 171.385C157.44 173.252 162.725 175.312 167.921 177.152C173.371 179.083 178.046 181.169 183.642 183.064C186.316 183.97 198.404 187.986 200.424 187.961C200.848 186.463 199.241 184.756 198.608 183.494C197.942 182.171 197.389 179.985 196.551 178.873C193.965 178.336 194.877 180.409 190.764 179.306C182.973 177.213 165.425 172.443 158.917 169.875C156.677 168.992 148.992 165.506 147.104 165.596L147.101 165.59Z" fill="#111111"/>
<path fill-rule="evenodd" clip-rule="evenodd" d="M263.615 176.541C261.623 176.072 259.926 176.56 257.679 176.321C250.008 175.499 246.6 174.736 239.151 173.53C234.409 172.76 225.366 171.628 221.312 169.995C219.489 169.261 218.532 168.077 217.106 167.87C217.084 170.438 219.557 171.793 217.248 176.916C218.975 177.256 219.217 176.628 221.008 176.644C225.612 176.683 233.584 177.951 238.418 178.646L262.868 182.627C264.009 180.897 263.841 178.371 263.615 176.541V176.541Z" fill="#111111"/>
<path fill-rule="evenodd" clip-rule="evenodd" d="M61.8392 127.084C59.9414 126.777 54.1351 124.962 52.9681 125.295C53.6858 126.068 55.5964 126.524 56.9316 126.938C54.0672 127.556 48.872 125.719 36.5222 129.852C35.5136 130.189 34.5469 130.312 34.0103 131.282C41.2196 132.356 50.6016 130.687 57.701 129.516C58.9392 129.312 60.019 129.083 61.2993 128.898C62.2918 128.753 63.3942 128.743 64.4643 129.299L65.2628 129.894C62.725 130.493 60.504 130.742 57.8465 131.55C55.147 132.372 53.2525 133.371 51.2578 134.707C49.2211 136.068 47.4204 137.32 45.2608 138.64C43.9967 139.412 39.9297 141.44 39.2702 142.466C41.7434 142.223 51.4518 138.5 53.5985 137.456C56.9736 135.813 64.3285 132.304 66.1389 130.001C68.7867 130.315 71.1015 131.922 73.371 132.698C72.4399 128.669 74.454 130.415 68.7123 128.895C66.3006 128.258 63.8015 128.093 62.1657 126.486C59.3337 123.707 56.2883 121.094 53.411 118.649C49.2631 115.127 37.7831 106.537 32.7979 104.959C33.4898 106.534 45.0054 115.806 46.1563 116.751C48.6069 118.759 54.8173 122.724 57.9985 124.199L61.0212 125.929C61.0924 126 61.2993 126.224 61.3639 126.308C61.9652 127.074 61.3639 126.088 61.8456 127.081L61.8392 127.084Z" fill="#111111"/>
<path fill-rule="evenodd" clip-rule="evenodd" d="M65.5053 147.572C64.0085 148.119 62.8058 149.969 62.1495 150.648L61.2475 151.405C61.1247 151.421 61.0988 151.508 61.0309 151.567C63.808 151.612 94.5756 157.692 102.066 158.623C104.326 158.905 106.408 158.892 108.733 159.4C111.904 160.092 112.169 161.347 114.429 161.841C114.258 160.351 113.575 158.889 113.223 157.42C112.893 156.036 112.813 153.452 112.515 152.55C110.87 151.612 110.006 152.433 107.747 152.566C101.74 152.918 96.4313 152.546 90.4537 152.346C82.9824 152.097 73.0768 149.503 65.3727 148.433C65.1173 147.97 64.8652 148.95 65.5053 147.572V147.572Z" fill="#111111"/>
<path fill-rule="evenodd" clip-rule="evenodd" d="M138.424 163.737L139.739 163.963L139.93 162.2C141.699 162.035 141.789 163.216 143.257 163.96L147.101 165.59C148.678 164.574 159.89 167.32 163.508 168.814C164.594 169.264 167.012 170.761 167.72 170.82C167.662 170.157 167.251 169.364 167.077 168.617C166.476 166.03 166.356 161.537 165.409 160.131C163.766 159.933 164.196 160.761 161.778 160.745C156.974 160.709 133.503 156.922 128.143 156.178L129.582 157.391C138.314 162.857 135.553 159.755 138.782 161.327L138.42 163.737H138.424Z" fill="#111111"/>
<path fill-rule="evenodd" clip-rule="evenodd" d="M115.215 110.179C113.97 108.947 110.297 109.425 108.27 108.507L113.126 107.43L111.464 107.549C111.936 105.509 111.791 102.824 112.793 101.062C104.394 100.557 105.878 100.79 97.8377 99.4058C96.0499 99.0986 94.1618 99.1438 92.5389 98.7816L93.6769 98.2189C93.7545 98.193 93.8741 98.1671 93.9388 98.1477C94.0067 98.1283 94.123 98.1121 94.2103 98.083L93.0465 97.7855C92.7878 97.0222 92.5066 96.7732 92.1316 96.2493C92.1833 97.3618 92.6779 97.3068 92.2221 98.0766L91.3654 99.1341L93.3374 99.4543C93.8418 102.148 96.2438 107.22 97.1102 109.522C98.4099 112.97 99.7095 115.735 101.2 119.186C103.159 123.72 109.036 133.378 114.219 135.512C113.95 132.485 111.907 127.63 110.588 125.169C108.8 121.832 107.375 119.564 105.37 116.337L94.1036 99.4964C96.4475 99.3799 98.7914 100.033 101.09 100.463C103.822 100.974 105.901 101.003 108.458 101.346C108.238 103.578 108.632 105.819 108.969 107.899C107.869 108.368 108.283 107.934 107.711 108.649C108.403 109.351 108.4 108.943 109.347 109.506C109.887 113.3 110.058 117.572 111.196 120.616C111.361 117.446 110.074 117.627 110.934 109.516L115.208 110.179H115.215Z" fill="#111111"/>
<path fill-rule="evenodd" clip-rule="evenodd" d="M53.9088 151.871L56.049 150.011C54.3614 149.286 55.3798 148.31 55.5156 145.836C54.3356 145.38 44.1584 144.781 41.7498 144.5C36.6806 143.908 32.355 143.138 27.5024 142.229C23.0604 141.395 2.81264 136.521 0.213382 136.793C-0.885808 139.154 2.58957 139.471 4.58428 139.969L25.8439 145.095C32.4229 146.573 40.7541 148.898 47.5174 149.704C49.4183 149.93 51.3645 149.917 52.8872 150.79C54.2806 151.589 53.7698 150.92 53.9088 151.871V151.871Z" fill="#111111"/>
<path fill-rule="evenodd" clip-rule="evenodd" d="M141.97 111.725C143.441 112.74 143.131 112.925 144.246 114.335C144.466 114.613 144.453 114.584 144.686 114.881C144.718 114.923 144.889 115.062 144.834 115.082C144.776 115.101 144.938 115.214 144.983 115.286C147.136 117.362 153.615 126.017 156.272 127.601L149.076 119.144C145.914 114.661 148.394 113.219 150.99 107.071C153.101 102.068 153.153 98.2189 153.515 92.5817C153.615 91.0228 154.381 79.6224 153.295 78.2123C152.593 79.1567 149.548 90.0882 148.691 92.4717C147.902 94.671 146.858 96.8476 146.131 99.2118C145.187 102.287 145.51 104.635 144.948 107.226L145.319 108.646C145.856 113.19 147.24 114.535 147.637 117.126C146.024 116.223 143.289 112.19 142.697 110.887C140.302 110.13 135.601 94.8359 134.124 92.6205C134.114 94.05 136.73 100.971 137.366 102.692C137.939 104.244 138.469 106.11 139.258 107.524C139.843 108.575 141.883 110.868 141.97 111.725V111.725Z" fill="#111111"/>
<path fill-rule="evenodd" clip-rule="evenodd" d="M68.9193 118.51C69.97 119.128 70.762 119.872 71.7578 120.628C72.6113 121.275 73.8236 122.022 74.3926 122.863C75.5758 123.316 81.4824 128.19 82.9566 129.345L89.4709 134.248C90.4796 134.966 90.9871 135.108 91.4268 136.11C83.8068 135.325 75.5597 130.777 73.6587 130.535C73.759 133.497 74.7741 132.98 77.4121 133.792L88.6465 137.854C90.6671 138.737 91.915 139.781 94.1392 140.082C95.2772 138.507 97.453 137.391 97.5241 134.422C96.163 133.513 94.4043 133.39 92.8137 132.54C91.4688 131.822 90.1078 130.81 88.9245 130.008C86.6421 128.462 83.8392 126.143 81.602 124.894C80.1375 123.756 75.314 120.392 74.7062 118.911C73.1512 118.358 71.0174 116.301 69.6435 115.153C65.5021 111.692 68.0205 111.741 65.8771 110.392L63.6108 113.623C62.6765 116.042 64.6906 115.431 66.5496 116.647C67.3158 117.148 68.3826 117.931 68.9257 118.507L68.9193 118.51Z" fill="#111111"/>
<path fill-rule="evenodd" clip-rule="evenodd" d="M122.456 112.129L116.734 110.357C117.048 110.641 116.068 110.852 117.963 110.965C114.885 119.956 112.631 129.322 117.183 138.141C118.111 139.936 119.977 142.909 121.393 144.613C121.364 142.1 119.737 143.355 120.769 136.903C121.655 131.359 122.097 114.6 120.662 111.945L122.453 112.132L122.456 112.129Z" fill="#111111"/>
<path fill-rule="evenodd" clip-rule="evenodd" d="M61.0309 151.563C61.0988 151.502 61.1215 151.418 61.2475 151.402L62.1495 150.645C62.8058 149.966 64.0117 148.116 65.5053 147.569C67.6293 147.705 79.0059 137.747 80.1892 135.764C77.2892 136.052 72.9087 139.112 70.6909 139.367L73.9044 133.416C72.0034 133.627 66.9957 138.19 65.2725 140.03C62.5472 142.944 63.3069 143.614 59.5664 146.537C57.9661 147.789 58.3509 146.709 56.4079 146.961L56.0458 150.011L53.9056 151.871C53.314 152.162 50.7826 154.183 50.2072 155.286C51.982 155.276 55.5544 152.656 57.2323 152.382L53.1717 159.933C54.4423 158.963 60.4846 152.902 61.0277 151.567L61.0309 151.563Z" fill="#111111"/>
<path fill-rule="evenodd" clip-rule="evenodd" d="M119.181 154.173L124.542 158.109C125.873 159.054 129.116 161.136 129.869 162.265C131.066 162.485 133.322 163.814 134.318 164.642C135.902 165.955 135.23 167.424 138.129 167.417C138.621 166.415 138.456 164.927 138.42 163.737L138.782 161.327C135.553 159.755 138.314 162.857 129.582 157.391L128.143 156.178C124.836 155.409 109.34 145.037 105.044 142.074C98.3679 137.475 101.197 137.679 99.467 135.59C98.0704 135.813 96.8548 137.75 96.3053 139.141C95.0994 142.184 97.6146 140.056 102.661 143.093L113.669 150.548C115.441 151.773 117.471 153.484 119.181 154.18V154.173Z" fill="#111111"/>
<path fill-rule="evenodd" clip-rule="evenodd" d="M115.215 110.179L116.734 110.357L122.456 112.129C124.402 112.019 127.745 113.028 129.953 113.329C132.22 113.636 135.97 113.626 137.699 114.044C139.465 113.022 141.353 114.564 142.937 115.127C142.319 113.513 141.928 114.034 141.21 112.537C139.374 112.119 138.983 108.122 128.44 106.582C122.696 105.745 115.441 107.769 113.129 107.43L108.273 108.507C110.297 109.425 113.97 108.95 115.218 110.179H115.215Z" fill="#111111"/>
<path fill-rule="evenodd" clip-rule="evenodd" d="M190.069 197.421L181.738 193.698C178.987 192.864 151.552 186.444 149.186 187.931C160.288 192.146 172.24 198.646 184.712 197.488C185.763 197.391 186.494 197.207 187.373 197.246C188.379 197.291 189.206 197.595 190.069 197.421V197.421Z" fill="#111111"/>
<path fill-rule="evenodd" clip-rule="evenodd" d="M111.687 85.0364C112.282 85.4504 112.444 85.5183 112.935 86.0034L113.637 86.9348C115.166 87.9374 122.152 95.9161 124.309 98.083C126.989 100.78 133.396 106.896 137.557 107.685C136.797 102.553 129.915 95.942 125.744 92.9278C123.142 91.0487 120.665 89.3734 117.604 87.352C115.001 85.6315 111.797 83.3126 109.049 81.8637C109.596 82.8695 111.332 83.9529 111.687 85.0331V85.0364Z" fill="#111111"/>
<path fill-rule="evenodd" clip-rule="evenodd" d="M224.248 198.478L224.422 197.818C224.442 197.66 224.455 196.887 224.468 196.673C221.836 196.489 218.768 197.123 216.136 197.262C207.288 197.721 200.159 198.407 191.272 199.322C182.585 200.218 178.919 197.87 167.413 202.573L162.615 204.827C160.799 205.639 161.267 205.48 160.815 206.108C163.437 205.968 166.062 205.325 168.722 205.053C171.367 204.785 174.228 204.717 176.853 204.329C186.807 202.851 184.881 200.199 190.952 199.862C196.008 199.581 201.63 199.131 207.194 198.84C210 198.692 212.577 198.523 215.558 198.43C217.84 198.358 222.476 198.753 224.248 198.478V198.478Z" fill="#111111"/>
<path fill-rule="evenodd" clip-rule="evenodd" d="M109.434 161.583C104.035 161.314 96.0757 162.867 91.4624 164.154C88.931 164.859 77.3152 168.659 75.647 169.836C77.5253 170.095 91.4106 168.746 94.3688 168.484C98.8011 168.09 107.672 165.616 109.437 161.586L109.434 161.583Z" fill="#111111"/>
<path fill-rule="evenodd" clip-rule="evenodd" d="M110.268 163.145C110.204 163.125 110.026 163.116 110.065 163.129C110.071 163.132 109.686 162.99 108.949 163.568C102.745 168.455 96.5089 179.953 95.9755 187.64C99.8194 186.512 111.568 170.334 110.268 163.145V163.145Z" fill="#111111"/>
<path fill-rule="evenodd" clip-rule="evenodd" d="M164.581 148.248C162.703 147.912 151.614 146.098 151.223 146.621C146.926 146.486 143.836 147.281 139.717 147.812C137.315 148.122 130.335 148.591 128.874 149.442L148.691 151.359C151.911 151.673 154.734 151.676 157.436 150.849C160.86 149.801 160.666 148.555 164.584 148.248H164.581Z" fill="#111111"/>
<path fill-rule="evenodd" clip-rule="evenodd" d="M245.378 157.718C245.95 149.552 243.526 147.249 239.753 142.356C238.812 141.133 231.806 130.573 230.552 129.998C230.824 131.654 232.75 135.616 233.529 137.514C234.486 139.836 235.605 142.155 236.423 144.849C237.348 147.889 243.028 156.224 245.375 157.718H245.378Z" fill="#111111"/>
<path fill-rule="evenodd" clip-rule="evenodd" d="M61.92 114.16C62.961 113.164 64.5451 111.172 64.7197 109.577C63.7207 108.374 64.4384 108.969 62.9836 108.206C59.0944 106.168 46.7867 92.1936 42.7553 88.1088C41.572 86.9122 40.9351 85.4762 38.9598 84.9588C39.17 89.7324 56.0393 104.703 59.4468 110.059C60.2065 111.253 60.879 113.533 61.9232 114.16H61.92Z" fill="#111111"/>
<path fill-rule="evenodd" clip-rule="evenodd" d="M137.253 130.548L135.769 129.27L137.315 129.755C137.405 128.342 137.774 128.597 138.356 127.323L139.937 127.55C139.277 126.731 139.254 127.032 137.977 126.709C137.108 126.489 136.477 126.285 135.566 126.042C133.755 125.561 132.33 125.13 130.429 124.807C129.371 126.971 128.043 128.481 127.157 131.327C126.064 134.839 126.226 136.854 125.621 140.266C126.556 139.933 126.145 140.182 127.189 139.011C129.097 136.877 132.876 134.72 135.401 131.579C136.41 130.321 135.831 130.447 137.257 130.548H137.253Z" fill="#111111"/>
<path fill-rule="evenodd" clip-rule="evenodd" d="M197.263 228C198.287 224.795 199.548 217.641 199.93 214.038C200.117 212.246 200.35 203.145 198.879 201.344L197.838 202.288C192.869 208.685 195.484 217.437 196.506 224.652L197.153 227.786C197.175 227.835 197.224 227.932 197.266 228.003L197.263 228Z" fill="#111111"/>
<path fill-rule="evenodd" clip-rule="evenodd" d="M197.696 200.955C194.195 200.703 187.27 205.816 185.466 207.133C182.921 208.989 177.312 213.656 175.709 217.236C180.426 216.8 195.268 206.965 197.699 200.955H197.696Z" fill="#111111"/>
<path fill-rule="evenodd" clip-rule="evenodd" d="M69.6013 95.2628C69.5431 95.3275 69.4753 95.4116 69.4429 95.4666L69.0227 96.1522C68.7252 96.7926 68.8157 96.7085 68.6347 97.3747L69.5496 96.5565C70.0055 97.8857 73.0509 102.129 74.2535 103.843C78.0554 109.273 85.1129 121.605 91.7306 123.817C90.8965 118.892 79.3259 106.996 75.385 102.456L70.7717 97.4912C69.666 96.3139 69.6175 96.8993 69.6013 95.2596V95.2628Z" fill="#111111"/>
<path fill-rule="evenodd" clip-rule="evenodd" d="M206.415 164.076C207.589 157.404 205.565 150.832 203.518 144.807L201.145 138.982C200.641 142.928 200.596 150.169 201.268 153.559C202.105 157.783 204.116 160.748 206.415 164.076V164.076Z" fill="#111111"/>
<path fill-rule="evenodd" clip-rule="evenodd" d="M129.869 162.265C129.116 161.136 125.873 159.05 124.541 158.109L119.181 154.173C119.013 154.4 119.013 155.551 116.601 153.494C115.651 152.682 115.421 152.178 114.144 152.155C113.336 153.75 113.63 160.176 116.488 161.757C118.871 160.984 117.293 160.612 122.443 161.246C124.952 161.554 127.374 161.9 129.869 162.265V162.265Z" fill="#111111"/>
<path fill-rule="evenodd" clip-rule="evenodd" d="M65.2176 106.343L63.6334 98.2415C63.0192 95.693 62.0493 92.8857 60.8984 91.0649C59.6699 89.1244 53.2234 80.4956 51.7848 79.603C52.3893 81.5435 53.7019 84.4154 54.578 86.5661C56.8605 92.1548 58.0405 94.8133 61.1926 100.069L65.2143 106.343H65.2176Z" fill="#111111"/>
<path fill-rule="evenodd" clip-rule="evenodd" d="M68.6348 97.3747C68.8158 96.7085 68.7253 96.7894 69.0227 96.1522L69.443 95.4666C69.4786 95.4148 69.5464 95.3275 69.6014 95.2628C69.7243 93.2512 74.6157 77.7918 74.7773 73.3449C72.6824 76.6858 70.4775 83.2932 68.5701 87.1645C66.9892 90.3695 64.5096 97.365 65.0495 101.282C65.0786 101.489 65.1853 102.068 65.2402 102.2C65.4859 102.789 65.3986 102.595 65.7801 102.983C66.792 101.236 67.6326 99.2829 68.6348 97.378V97.3747Z" fill="#111111"/>
<path fill-rule="evenodd" clip-rule="evenodd" d="M137.253 130.548C141.162 133.138 153.877 145.616 159.567 144.335C159.195 142.378 151.992 137.233 149.791 135.952C146.561 134.07 141.003 131.159 137.312 129.758L135.766 129.273L137.25 130.551L137.253 130.548Z" fill="#111111"/>
<path fill-rule="evenodd" clip-rule="evenodd" d="M145.413 124.409L145.012 124.16C144.957 124.134 144.86 124.076 144.789 124.047C144.715 124.015 144.631 123.979 144.54 123.947L140.599 123.297L143.632 117.22C144.198 116.133 144.278 115.725 144.98 115.286C144.935 115.214 144.773 115.101 144.831 115.082C144.889 115.062 144.718 114.927 144.683 114.881C144.453 114.584 144.463 114.613 144.243 114.335C143.128 112.925 143.438 112.737 141.967 111.725C142.083 112.087 142.313 112.048 141.97 112.747L141.207 112.537C141.925 114.034 142.316 113.513 142.934 115.127C141.349 114.564 139.461 113.025 137.696 114.044L140.451 114.331C139.516 115.958 135.103 119.949 133.38 121.615C131.9 123.044 132.708 122.592 131.056 123.639L130.6 123.931C132.808 123.892 135.094 123.649 137.525 123.591C140.467 123.52 142.494 124.079 145.41 124.409H145.413Z" fill="#111111"/>
<path fill-rule="evenodd" clip-rule="evenodd" d="M132.685 85.832C133.371 80.4794 122.815 70.4697 119.278 66.5887C117.888 65.0622 115.46 62.0932 114.051 61.013C114.755 63.4321 127.671 82.7143 132.682 85.8288L132.685 85.832Z" fill="#111111"/>
<path fill-rule="evenodd" clip-rule="evenodd" d="M240.396 157.291C240.066 155.447 237.729 153.73 236.051 152.76C232.834 150.9 219.369 145.826 216.363 145.16C216.799 145.858 216.408 145.396 217.093 146.036L219.036 147.33C226.097 151.922 231.451 155.532 240.396 157.288V157.291Z" fill="#111111"/>
<path fill-rule="evenodd" clip-rule="evenodd" d="M134.311 87.7499C136.199 76.0422 136.06 74.9749 135.776 63.1605C135.734 61.4949 135.912 61.3849 135.249 60.6928C132.895 67.5816 131.327 74.3895 132.773 81.6955C133.002 82.8533 133.241 83.7945 133.471 84.7162C133.581 85.156 133.655 85.5441 133.771 86.1166C133.833 86.4109 133.839 86.537 133.92 86.8152L134.195 87.517C134.218 87.5752 134.263 87.6787 134.311 87.7531V87.7499Z" fill="#111111"/>
<path fill-rule="evenodd" clip-rule="evenodd" d="M112.796 101.062C116.081 100.884 117.358 100.774 120.969 101.311C120.901 101.24 120.688 101.146 120.74 101.13L119.033 100.337C116.475 99.5449 115.279 98.8107 112.897 98.1445C110.307 97.129 107.921 97.2292 105.244 96.9155C101.62 96.8185 97.5919 97.8987 94.2168 98.083C94.1295 98.1121 94.0131 98.1283 93.9452 98.1477C93.8805 98.1671 93.7609 98.193 93.6833 98.2189L92.5453 98.7816C94.1683 99.1438 96.0563 99.0986 97.8441 99.4058C105.884 100.79 104.4 100.554 112.8 101.062H112.796Z" fill="#111111"/>
<path fill-rule="evenodd" clip-rule="evenodd" d="M261.336 191.8L253.939 191.431C252.416 191.302 252.497 191.192 251.808 191.531L252.924 191.864C252.507 191.855 248.01 193.274 246.694 193.598C244.589 194.112 242.213 194.71 239.885 195.056L225.34 196.56C225.163 199.387 226.895 198.19 228.913 197.831L243.141 195.81C246.008 195.283 249.503 194.597 252.41 194.063L261.071 191.926C261.025 191.89 261.255 191.845 261.339 191.793L261.336 191.8Z" fill="#111111"/>
<path fill-rule="evenodd" clip-rule="evenodd" d="M81.5987 124.898C82.3293 124.487 82.6138 124.729 84.2303 125.014L93.9549 126.01C93.693 125.845 93.596 125.774 93.3115 125.625L90.0689 123.985C80.0469 118.368 77.3377 120.202 74.7029 118.908C75.3107 120.392 80.1342 123.756 81.5987 124.891V124.898Z" fill="#111111"/>
<path fill-rule="evenodd" clip-rule="evenodd" d="M263.935 173.598C263.479 172.401 259.17 170.418 258.252 169.749L251.508 164.516C247.812 162.142 245.763 160.066 242.038 157.501C242.426 158.869 245.478 161.056 246.642 162.142C247.502 162.944 248.236 163.585 249.086 164.387L262.005 174.494L263.935 173.594V173.598Z" fill="#111111"/>
<path fill-rule="evenodd" clip-rule="evenodd" d="M112.89 98.1445C112.631 95.1981 113.039 90.4989 112.974 87.0707C113.449 86.5888 112.741 86.8702 113.64 86.9348L112.939 86.0034C112.447 85.5183 112.282 85.4504 111.691 85.0364C111.846 86.2039 109.266 94.7163 108.72 96.6988C108.054 96.7182 107.51 96.6535 106.906 96.6568L105.244 96.9155C107.921 97.2292 110.304 97.1289 112.897 98.1445H112.89Z" fill="#111111"/>
<path fill-rule="evenodd" clip-rule="evenodd" d="M185.23 155.396L185.336 153.177C180.119 152.356 177.416 150.845 173.135 148.982C172.932 151.12 173.818 150.447 178.518 152.398L185.227 155.396H185.23Z" fill="#111111"/>
<path fill-rule="evenodd" clip-rule="evenodd" d="M144.948 107.226C144.476 108.953 145.42 108.297 144.363 109.846C144.35 109.862 143.651 110.648 143.622 110.67C142.992 111.126 143.509 111.068 142.694 110.89C143.286 112.194 146.021 116.227 147.634 117.129C147.237 114.542 145.853 113.193 145.316 108.649L144.944 107.229L144.948 107.226Z" fill="#111111"/>
<path fill-rule="evenodd" clip-rule="evenodd" d="M74.3925 122.863C73.8235 122.022 72.608 121.275 71.7577 120.628C70.762 119.872 69.9699 119.128 68.9192 118.51C69.1843 118.918 68.722 118.833 69.3007 119.215C68.2856 119.105 67.6778 119.108 66.6788 119.121L64.2121 119.522C66.8728 120.761 71.3956 121.647 74.3958 122.863H74.3925Z" fill="#111111"/>
<path fill-rule="evenodd" clip-rule="evenodd" d="M172.641 150.163L172.634 148.685L161.555 145.308C161.633 146.295 165.428 147.242 166.961 147.825C168.939 148.578 170.843 149.516 172.644 150.163H172.641Z" fill="#111111"/>
</g>
<defs>
<clipPath id="clip0">
<rect width="317" height="228" fill="white"/>
</clipPath>
</defs>
</svg>
