<svg width="100" height="100" viewBox="0 0 100 100" fill="none" xmlns="http://www.w3.org/2000/svg">
<g clip-path="url(#clip0)">
<path d="M48.0204 78.3572C56.8817 75.6691 63.3538 63.1081 63.3538 52.1284C63.3538 46.168 61.4328 41.2565 57.7986 37.9243C54.4683 34.871 49.8848 33.2572 44.5435 33.2572C41.6631 33.2572 38.9549 33.7456 36.5566 34.6819C37.2482 32.0182 37.6233 29.2869 37.6233 26.647C37.6233 20.6866 35.7023 15.7749 32.068 12.4429C28.7379 9.38954 24.1541 7.77576 18.813 7.77576C9.47409 7.77576 2.68598 12.7042 0.654842 20.9596C0.461493 21.7451 0.941741 22.5386 1.72724 22.732C2.51294 22.9259 3.30626 22.4451 3.49961 21.6596C5.21241 14.6978 10.7939 10.7053 18.813 10.7053C23.4087 10.7053 27.3077 12.0529 30.0882 14.6021C33.1011 17.3647 34.6938 21.5295 34.6938 26.647C34.6938 32.1481 32.8826 38.2301 29.8486 42.9162C26.7403 47.7171 22.7181 50.4705 18.813 50.4705C12.2347 50.4705 4.13727 41.6403 3.03596 28.9691C2.96585 28.1633 2.25651 27.5649 1.44992 27.6368C0.644101 27.7067 0.0474536 28.417 0.117567 29.2228C1.01029 39.4947 7.11992 50.4037 15.3349 52.8792L14.5834 55.1581C13.9289 57.1432 15.2548 59.3401 17.3067 59.6995V64.4863C17.3067 65.6945 16.8811 66.786 16.4307 67.9416C15.6579 69.9235 14.7824 72.1699 16.0763 75.1029C17.1121 77.4514 19.0247 78.9935 19.2847 81.653C19.2152 84.0614 17.0071 85.8283 16.0852 87.9184C14.7914 90.8517 15.6669 93.098 16.4397 95.0798C16.8903 96.2354 17.3157 97.3269 17.3157 98.535C17.3157 99.344 17.9715 99.9998 18.7804 99.9998C19.5894 99.9998 20.2452 99.344 20.2452 98.535C20.2452 96.7762 19.6735 95.3096 19.1691 94.0158C18.4687 92.219 17.9625 90.9208 18.7654 89.1008C19.9546 86.4056 22.2162 84.6958 22.2162 81.5108C22.2162 78.3381 19.9378 76.5984 18.7564 73.9206C17.9535 72.1006 18.4595 70.8024 19.1601 69.0056C19.6645 67.7117 20.2362 66.2452 20.2362 64.4863V59.712C22.3228 59.3981 23.71 57.1815 23.0427 55.1579L22.29 52.8754C23.4899 52.5114 24.6461 51.9671 25.7482 51.2695C25.4363 61.2133 30.5817 75.1762 41.0665 78.3567L40.3138 80.639C39.6539 82.6396 41.0058 84.8495 43.0787 85.1868V98.5347C43.0787 99.3436 43.7345 99.9994 44.5435 99.9994C45.3524 99.9994 46.0082 99.3436 46.0082 98.5347V85.1868C48.0743 84.8506 49.4354 82.6469 48.7731 80.639L48.0204 78.3572ZM20.2606 56.0757C20.3348 56.509 20.1546 56.758 19.7194 56.8229H17.9066C17.4715 56.758 17.2912 56.5088 17.3655 56.0757L18.2527 53.3854C18.6263 53.4051 18.9999 53.4051 19.3735 53.3856L20.2606 56.0757ZM33.5079 68.3976C30.4741 63.7114 28.6627 57.6295 28.6627 52.1282C28.6627 50.9845 28.7412 49.8774 28.8961 48.8376C28.9019 48.7987 28.9047 48.7602 28.9074 48.7218C31.5867 46.06 33.7892 42.4784 35.3098 38.5514C37.8366 37.005 41.0259 36.1867 44.5435 36.1867C49.1391 36.1867 53.0381 37.5343 55.8186 40.0836C58.8315 42.8459 60.4242 47.0109 60.4242 52.1282C60.4242 57.6293 58.613 63.7114 55.579 68.3976C52.4708 73.1985 48.4485 75.9519 44.5435 75.9519C40.6384 75.9519 36.616 73.1985 33.5079 68.3976ZM45.9115 82.0684C45.8479 82.1565 45.7032 82.3043 45.4497 82.3043H43.6369C43.2017 82.2395 43.0215 81.9902 43.0957 81.5571L43.9827 78.867C44.3564 78.8865 44.73 78.8865 45.1036 78.867L45.9906 81.5573C46.0701 81.7971 45.9752 81.9805 45.9115 82.0684Z" fill="black"/>
<path d="M47.9042 42.4695C49.4914 42.849 50.8095 43.512 51.822 44.4403C52.8219 45.3571 53.552 46.5826 53.9922 48.0831C54.5169 49.8713 57.3381 49.0817 56.8034 47.2581C56.2106 45.2383 55.2007 43.5636 53.8018 42.2809C52.4178 41.012 50.6629 40.1169 48.5854 39.6201C47.7982 39.4316 47.0084 39.9171 46.8201 40.704C46.632 41.4913 47.1175 42.2815 47.9042 42.4695Z" fill="black"/>
<path d="M26.0915 18.9591C27.0913 19.8756 27.8215 21.1014 28.2619 22.6019C28.7867 24.39 31.608 23.6 31.0729 21.7769C30.48 19.7567 29.4701 18.0822 28.0713 16.7996C26.6876 15.531 24.9326 14.6357 22.8552 14.139C22.0683 13.9508 21.2781 14.4363 21.0899 15.223C20.9018 16.0098 21.3871 16.8 22.1738 16.9883C23.761 17.368 25.0791 18.031 26.0915 18.9591Z" fill="black"/>
<path d="M84.8083 45.0649C86.506 44.5308 88.1614 43.6205 89.7576 42.3336C90.3874 41.8259 90.4863 40.9038 89.9787 40.274C89.4711 39.6441 88.5489 39.5451 87.919 40.0529C85.74 41.8095 83.4751 42.7002 81.187 42.7002C77.2819 42.7002 73.2597 39.9467 70.1515 35.146C67.1174 30.4597 65.3062 24.3778 65.3062 18.8765C65.3062 13.7592 66.8987 9.59423 69.9118 6.83188C72.6925 4.28241 76.5913 2.93502 81.187 2.93502C85.7826 2.93502 89.6816 4.28241 92.4621 6.83188C95.4751 9.59423 97.0677 13.7592 97.0677 18.8765C97.0677 24.1694 95.4448 29.8705 92.6153 34.5179C92.1946 35.2088 92.4137 36.11 93.1047 36.5308C93.7957 36.9515 94.6968 36.7322 95.1177 36.0414C98.2188 30.9479 99.9975 24.6916 99.9975 18.8765C99.9975 12.9161 98.0765 8.00447 94.4423 4.67243C91.1118 1.61927 86.5283 0.00549316 81.187 0.00549316C75.8457 0.00549316 71.2621 1.61927 67.932 4.67243C64.2977 8.00447 62.3767 12.9161 62.3767 18.8765C62.3767 29.8222 68.8089 42.3387 77.6278 45.0794L76.9901 47.0133C76.3343 49.0016 77.6659 51.2015 79.7222 51.5562V58.1129C79.7222 60.4309 79.1777 61.7793 78.6514 63.0835C77.2981 66.4358 78.0436 69.1076 80.0892 72.0008C80.9854 73.2685 81.6934 74.2698 81.6934 75.7883C81.6934 78.2694 79.4343 80.0589 78.4918 82.1961C76.7017 86.2543 79.7222 88.9147 79.7222 92.8127V98.5355C79.7222 99.3444 80.378 100 81.187 100C81.9959 100 82.6517 99.3444 82.6517 98.5355V92.8127C82.6517 89.6287 79.7923 86.506 81.1719 83.3785C82.3611 80.6833 84.6227 78.9734 84.6227 75.7885C84.6227 73.339 83.4849 71.7297 82.481 70.3097C80.9858 68.1951 80.3677 66.6577 81.3678 64.1803C81.9399 62.7634 82.6517 61 82.6517 58.1131V51.5663C84.7333 51.2478 86.1158 49.0343 85.4496 47.0146L84.8083 45.0649ZM82.5879 48.4423C82.5242 48.5304 82.3795 48.6782 82.1262 48.6782H80.3134C79.8785 48.6134 79.698 48.3642 79.7722 47.9308L80.5376 45.6096C80.9925 45.638 81.4473 45.6366 81.9022 45.6057L82.6672 47.9308C82.7463 48.1708 82.6515 48.3544 82.5879 48.4423Z" fill="black"/>
<path d="M93.4468 14.0067C92.8541 11.9868 91.8442 10.3121 90.4452 9.02939C89.0613 7.76071 87.3064 6.86544 85.2291 6.36879C84.4419 6.18091 83.6521 6.66584 83.4638 7.45272C83.2757 8.23959 83.761 9.02978 84.5477 9.21805C86.1349 9.59752 87.453 10.2606 88.4655 11.1886C89.4654 12.1056 90.1956 13.3311 90.6359 14.8316C91.1606 16.6198 93.9818 15.83 93.4468 14.0067Z" fill="black"/>
<path d="M30.3686 6.93518C32.2537 6.93518 32.2568 4.00549 30.3686 4.00549C28.4834 4.00549 28.4803 6.93518 30.3686 6.93518Z" fill="black"/>
<path d="M57.9831 5.76709C59.8682 5.76709 59.8713 2.8374 57.9831 2.8374C56.0979 2.8374 56.0948 5.76709 57.9831 5.76709Z" fill="black"/>
<path d="M51.8214 28.0315C53.7066 28.0315 53.7097 25.1018 51.8214 25.1018C49.9363 25.1018 49.9332 28.0315 51.8214 28.0315Z" fill="black"/>
<path d="M69.7256 56.8229C67.8404 56.8229 67.8373 59.7526 69.7256 59.7526C71.6108 59.7526 71.6139 56.8229 69.7256 56.8229Z" fill="black"/>
<path d="M1.41777 54.2299C3.30293 54.2299 3.30605 51.3002 1.41777 51.3002C-0.467386 51.3002 -0.470511 54.2299 1.41777 54.2299Z" fill="black"/>
<path d="M8.30313 65.334C6.41797 65.334 6.41485 68.2637 8.30313 68.2637C10.1883 68.2637 10.1914 65.334 8.30313 65.334Z" fill="black"/>
<path d="M90.8777 65.7246C88.9926 65.7246 88.9895 68.6543 90.8777 68.6543C92.7627 68.6543 92.7658 65.7246 90.8777 65.7246Z" fill="black"/>
<path d="M30.2746 91.6401C28.3894 91.6401 28.3863 94.5698 30.2746 94.5698C32.1598 94.5698 32.1629 91.6401 30.2746 91.6401Z" fill="black"/>
<path d="M46.5931 14.8461C47.8997 16.1527 49.9834 14.0932 48.6645 12.7747L44.837 8.94721C43.541 7.65118 41.4102 9.66357 42.7656 11.0186L46.5931 14.8461Z" fill="black"/>
<path d="M66.9012 75.5901L63.0737 79.4176C61.7788 80.7123 63.809 82.8253 65.1451 81.489L68.9726 77.6615C70.2688 76.3655 68.2562 74.2349 66.9012 75.5901Z" fill="black"/>
<path d="M6.33071 80.1028C5.03468 78.8068 2.90394 80.8192 4.25934 82.1742L8.08686 86.0017C9.39343 87.3083 11.4771 85.2489 10.1582 83.9304L6.33071 80.1028Z" fill="black"/>
<path d="M99.5682 48.4039C98.9961 47.8318 98.0687 47.8318 97.4968 48.4039L93.6693 52.2314C92.3745 53.5261 94.4046 55.6391 95.7407 54.3028L99.5682 50.4753C100.14 49.9034 100.14 48.9759 99.5682 48.4039Z" fill="black"/>
<path d="M57.1049 93.6721C55.8089 92.376 53.6781 94.3884 55.0335 95.7434L58.861 99.571C60.1676 100.878 62.2513 98.8181 60.9324 97.4996L57.1049 93.6721Z" fill="black"/>
</g>
<defs>
<clipPath id="clip0">
<rect width="100" height="100" fill="white"/>
</clipPath>
</defs>
</svg>
