<svg width="50" height="24" viewBox="0 0 50 24" fill="none" xmlns="http://www.w3.org/2000/svg">
<path fill-rule="evenodd" clip-rule="evenodd" d="M11.7238 6.10352e-05C7.09668 6.10352e-05 3.19497 3.09834 1.97656 7.33391C3.46486 4.0375 6.77999 1.74265 10.6318 1.74265C13.482 1.74265 16.039 3.00006 17.7784 4.98914V4.21067H18.936V6.24342L19.716 4.21067H19.9485C18.106 1.65997 15.1092 6.10352e-05 11.7223 6.10352e-05L11.7238 6.10352e-05ZM19.5194 7.89553C19.5413 7.95481 19.5631 8.01253 19.5834 8.07182C19.8564 8.0609 20.1294 8.07026 20.3978 8.10614C20.8611 8.16854 21.3088 8.31363 21.6942 8.58352C21.7129 8.59756 21.7316 8.6116 21.7503 8.62564C21.7129 8.37915 21.6676 8.13578 21.613 7.89553H20.8861L20.5491 7.01253H19.858L19.5413 7.89553H19.5179H19.5194ZM20.014 9.791C20.0701 10.1607 20.106 10.5383 20.1185 10.922C20.1825 10.8378 20.2418 10.7504 20.2948 10.6631C20.3837 10.5164 20.5616 10.1701 20.4836 9.99381C20.429 9.86901 20.2106 9.81596 20.014 9.79256V9.791ZM19.7129 13.9985C19.4227 14.9501 18.9875 15.8394 18.4321 16.6381L18.4555 16.7832C18.4695 16.8784 18.4804 16.972 18.4914 17.0671C18.4929 17.0765 18.4929 17.0858 18.4945 17.0968C18.507 17.0983 18.5194 17.1014 18.5272 17.103C18.6614 17.1139 18.9906 17.0032 19.2932 16.8877C19.9984 16.0983 20.5803 15.1966 21.0124 14.2138C20.6458 14.0952 20.1809 14.0156 19.7129 13.9985V13.9985ZM16.8424 18.4072C16.1513 19.0063 15.3744 19.5055 14.5304 19.8862C15.418 19.6303 16.2542 19.2575 17.0249 18.7848L16.9594 18.7598L16.8954 18.571C16.8767 18.5164 16.8595 18.4618 16.8439 18.4057L16.8424 18.4072ZM21.5584 12.6178C21.6177 12.3838 21.6677 12.1467 21.7098 11.9064C21.5475 12.1077 21.3619 12.2855 21.1403 12.4883C21.2792 12.5289 21.4196 12.571 21.5584 12.6163V12.6178Z" fill="white"/>
<path fill-rule="evenodd" clip-rule="evenodd" d="M18.3167 20.362C7.96567 23.3745 9.55537 15.699 0 19.2996C9.7769 17.9284 8.78782 25.5165 18.3167 20.362Z" fill="white"/>
<path fill-rule="evenodd" clip-rule="evenodd" d="M13.9422 22.8613C7.39931 23.4416 6.30415 18.7692 0.180908 19.9486C6.15282 19.7396 6.78777 24.0032 13.9422 22.8613Z" fill="white"/>
<path fill-rule="evenodd" clip-rule="evenodd" d="M10.5773 9.80355C10.6194 10.2185 10.6148 11.582 10.6054 12.1187C10.5992 12.4931 10.6428 12.7895 10.4946 12.7989L10.4853 9.93928C10.5165 9.76455 10.5305 9.84099 10.5758 9.80355H10.5773ZM8.67561 9.45098C8.75829 9.72243 8.71929 10.816 8.71929 11.1998C8.71929 11.5352 8.77545 12.7848 8.66 12.9627C8.543 12.6928 8.54768 9.68811 8.67561 9.45098V9.45098ZM7.91586 13.8441C7.81133 13.7879 7.81601 13.5524 7.78637 13.4401C7.76453 13.3574 7.73177 13.3043 7.71149 13.2404C7.58044 12.8098 7.76765 13.2716 7.4962 12.6538C7.3948 12.4213 7.27779 12.1202 7.14675 11.905C6.82381 11.3745 6.97826 11.7177 6.82693 11.1327C6.69745 10.6319 6.61476 10.8722 6.83005 10.4962L6.99854 10.0656C7.0625 9.78171 6.95642 9.77859 6.95642 9.77859C6.89714 9.9502 6.81133 10.2934 6.68653 10.465C6.63037 10.5446 6.68653 10.49 6.60853 10.5415C6.50712 10.4728 6.16391 9.76923 5.85658 9.70371C5.90494 9.85503 5.87374 9.77703 5.98294 9.88467C6.03598 9.93772 6.05626 9.96268 6.11243 10.0391C6.19667 10.153 6.26687 10.2404 6.34019 10.373C6.43848 10.5508 6.65377 11.0095 6.68341 11.2092C6.56172 11.1717 6.64753 11.2185 6.54924 11.1234C6.42444 11.0032 6.3636 10.9018 6.19667 10.7661L5.72241 10.4603L5.60697 10.4962C5.65689 10.5383 5.62413 10.5118 5.67405 10.5461L5.86126 10.6787C5.90338 10.7099 5.94082 10.7271 5.98762 10.7614C6.13427 10.8691 6.0391 10.7583 6.10151 10.9128C5.70837 10.8925 5.89402 10.8363 5.19043 10.8535C5.34332 11.0344 6.20291 10.9081 6.56328 11.3574C6.62725 11.4354 6.78481 11.6382 6.81757 11.7349C6.67405 11.8847 5.79885 12.05 5.48372 12.4416C5.51024 12.4588 5.51492 12.5461 5.67717 12.4323C5.73801 12.3901 5.76609 12.3667 5.82381 12.334C6.08902 12.1842 6.66157 11.9549 6.95954 11.9471C7.28247 12.7677 7.35267 12.777 7.53052 13.7053C7.57576 13.944 7.51492 13.9876 7.63661 14.1733L7.72241 14.2996C7.9845 14.621 8.87373 14.3855 9.03442 14.3995C9.22475 14.4167 9.20759 14.4962 9.49308 14.1249C9.56172 14.036 9.76453 13.7396 9.87997 13.7271C9.85969 14.0703 9.59448 13.9362 9.63972 14.362C9.95642 14.6148 10.8675 14.5383 10.9533 14.3605C11.0329 14.1951 10.7957 13.9923 10.7895 13.7193C10.7848 13.4806 10.7723 13.1343 10.791 12.905C11.2934 12.4931 11.9689 12.217 12.6148 12.1967C12.674 12.1951 12.7146 12.1951 12.7739 12.1858L12.8254 12.0937C12.7832 12.089 12.6959 12.0937 12.6475 12.0937C12.529 12.0937 12.4104 12.0844 12.2918 12.0875C12.0984 12.0937 11.7208 12.2045 11.5118 12.2918C11.323 12.3714 10.9174 12.6039 10.7957 12.6039C10.7302 12.2996 10.791 9.89559 10.7832 9.22945C10.7801 8.96736 10.7567 8.9424 10.88 8.76767C10.9705 8.63975 11.0734 8.5321 11.0219 8.31369L9.73021 8.31525C9.71929 8.68967 9.88465 8.65223 9.88153 9.01572C9.87685 9.78171 9.91273 12.8706 9.87997 13.2216C9.86125 13.4229 9.5898 13.5227 9.27623 13.88C9.12958 14.0469 9.15454 14.0454 9.04222 14.0812C8.77233 13.7817 8.89869 13.1171 8.89713 12.6912C8.89401 12.284 8.87997 9.0048 8.91429 8.84099C8.9689 8.5867 9.08902 8.65379 9.13426 8.45254C9.17638 8.26533 9.11398 8.24037 9.11398 8.23881L8.97514 8.20449C8.91897 8.20137 8.85189 8.21541 8.79573 8.22009C8.49464 8.24661 8.04222 8.18421 7.84409 8.23725C7.82537 8.53054 7.95018 8.56174 7.97514 8.80355C7.99542 9.00324 7.9767 9.33085 7.9767 9.54458L7.97982 13.1842C7.98138 13.3433 8.04222 13.7708 7.91118 13.8488L7.91586 13.8441Z" fill="white"/>
<path fill-rule="evenodd" clip-rule="evenodd" d="M8.65689 4.73334C8.65533 4.59137 8.66001 4.45096 8.65845 4.309C8.65845 3.88778 8.67717 4.01727 8.72865 3.98139C8.8441 4.20603 8.75049 6.22319 8.74581 6.41508C8.58201 6.24191 8.65845 5.08279 8.65689 4.73334V4.73334ZM7.87998 8.05002C8.12491 8.08903 8.86438 8.12647 9.04846 8.02038C9.26219 7.89558 9.28871 6.80978 10.1343 6.09839C10.4556 5.8285 10.4026 6.03287 10.4681 5.8207C10.0906 5.86282 9.58045 6.49464 9.41664 6.77233L9.10775 7.42912C9.04378 7.61789 9.14831 7.5118 8.9923 7.57577C8.93458 7.40572 8.9767 4.49309 8.97514 3.88466C8.97514 3.66157 8.9611 3.55705 9.07811 3.38388C9.19823 3.20604 9.27623 3.20916 9.18731 2.93302L7.92366 2.92834C7.85502 3.23568 8.02038 3.27 8.05159 3.49933C8.07499 3.67405 8.05471 4.00947 8.05471 4.20291L8.04535 7.38076C7.99074 7.67717 7.60541 7.69277 7.87998 8.05158V8.05002Z" fill="white"/>
<path fill-rule="evenodd" clip-rule="evenodd" d="M10.3932 18.0563C10.3932 17.6663 10.3635 16.3496 10.4462 16.0984L10.5102 16.2513C10.5118 16.2575 10.5133 16.3808 10.5133 16.3932C10.5118 16.4868 10.5024 16.5805 10.5086 16.6725C10.5664 17.4666 10.5211 17.6132 10.5227 18.373C10.5227 18.6865 10.5648 19.2606 10.4977 19.4354C10.3947 19.3948 10.454 19.5149 10.401 19.3168L10.3963 18.7957C10.3963 18.5492 10.3948 18.3012 10.3932 18.0531V18.0563ZM10.6818 19.3995C10.6802 19.1358 10.7192 18.958 10.7192 18.7287C10.7177 18.2528 10.6615 15.4307 10.7567 15.1655C10.8362 14.9408 10.9626 15.0142 10.9486 14.6039C10.6553 14.5851 10.3542 14.6491 10.0781 14.6148C9.76916 14.5758 9.53048 14.5165 9.72704 14.9455C9.88773 15.2965 9.80661 16.0797 9.80037 16.5368C9.79413 17.0844 9.80349 17.6475 9.80505 18.1982C9.80661 18.7037 9.76137 19.3028 9.78165 19.7614C9.91893 19.8503 10.3167 19.9127 10.4587 20.0407C10.5383 20.1124 10.4681 20.0984 10.571 20.114C10.7426 20.1405 10.7208 20.0266 10.7036 19.9174C10.6646 19.6585 10.6849 19.6631 10.6834 19.401L10.6818 19.3995Z" fill="white"/>
<path fill-rule="evenodd" clip-rule="evenodd" d="M7.76746 14.582C7.74406 14.9236 7.83455 14.8129 7.88603 15.0438L7.90319 16.6787C7.90163 17.3854 7.87355 18.1857 7.90631 18.8815C8.09664 18.9938 8.23236 19.0625 8.51005 19.0765C8.49601 18.5726 8.46481 16.0531 8.58806 15.8082C8.67542 15.9845 8.6411 17.231 8.63954 17.5274L8.63174 18.9049C8.6177 19.3324 8.64266 19.2185 8.76434 19.2466C8.80646 19.1951 8.79242 19.2403 8.81894 19.153L8.83611 15.5477C8.83611 14.8378 8.95623 15.089 9.04671 14.8363C9.06231 14.7941 9.07011 14.7442 9.06855 14.7005C9.06075 14.5586 9.08416 14.7707 9.05607 14.635C9.01863 14.4556 8.82831 14.5555 8.73002 14.5664C8.40085 14.6038 8.04671 14.5243 7.77058 14.5804L7.76746 14.582Z" fill="white"/>
<path fill-rule="evenodd" clip-rule="evenodd" d="M13.412 12.451C13.4291 12.2591 13.8035 12.0578 13.8535 11.7365C13.6397 11.7973 13.7801 11.7364 13.5851 11.88C13.4385 11.9876 13.2513 12.0485 13.1187 12.1171C12.7474 12.3106 13.1436 12.2934 12.4088 12.3901C11.8753 12.4619 11.9034 12.387 11.9065 12.5789L12.323 12.5945C12.3152 12.763 12.2591 12.7302 12.1202 12.6865C11.8145 12.5898 11.8878 12.6428 11.8347 12.6834C11.9549 12.8597 12.0188 12.6694 12.0656 12.8956C12.0594 12.9003 12.0126 12.9283 12.011 12.9283L11.6444 13.2996C11.504 13.4759 11.387 13.6132 11.3184 13.8425C11.685 13.7333 12.1577 13.0531 12.4463 12.9907C12.3854 13.1405 12.2123 13.2513 12.0625 13.3995L11.9627 13.4837C11.841 13.5836 11.4556 13.8753 11.4166 13.9907C11.4447 14.0063 11.4057 14.0453 11.5414 14.0079L12.0032 13.738C12.3496 13.582 12.6444 13.3433 12.8254 13.0734C13.1296 13.075 13.465 13.1358 13.9954 13.1233L14.9517 13.0516C15.1655 13.0219 14.9923 13.0547 15.0719 13.0017C15.0251 12.9439 15.0875 12.9814 14.9845 12.9315L14.674 12.816C14.5648 12.7598 14.4229 12.7177 14.2872 12.6787C14.0032 12.5976 13.6959 12.5009 13.4135 12.4525L13.412 12.451Z" fill="white"/>
<path fill-rule="evenodd" clip-rule="evenodd" d="M6.91573 13.7099C6.91573 13.557 6.90169 13.323 6.91417 13.181C6.93289 12.972 7.05457 13.0765 6.99217 12.7957C6.94537 12.791 6.25894 12.7863 6.2527 12.7895C6.03585 12.8565 6.31198 13.036 6.32602 13.2887L6.32914 16.1842C6.32914 16.4728 6.11074 16.6506 6.36191 16.7146C6.55691 16.7645 6.88921 16.7411 7.04053 16.6881C7.06705 16.3636 6.95161 16.518 6.91885 16.2793L6.91417 13.7115L6.91573 13.7099Z" fill="white"/>
<path fill-rule="evenodd" clip-rule="evenodd" d="M1.24487 8.90339C1.36656 9.075 2.97966 9.93459 3.31039 10.0547C3.69261 10.192 4.38216 10.3901 4.77373 10.3558C4.98122 10.3371 4.87981 10.3371 4.94222 10.2809C4.79557 10.1624 3.44144 9.72243 3.16843 9.61478L2.93598 9.50402C2.93598 9.50402 2.92662 9.40573 3.18247 9.51338L5.04362 10.1358C4.88606 9.73179 3.73161 9.33865 3.38528 9.22633C2.80493 9.03912 2.06859 8.98764 1.52412 8.88935C1.13567 8.81915 1.32288 8.84411 1.24487 8.90184V8.90339Z" fill="white"/>
<path fill-rule="evenodd" clip-rule="evenodd" d="M11.2652 12.022C11.5523 11.9627 11.7301 11.5009 12.0281 11.4338C11.9095 11.7802 11.4446 11.8519 11.3651 12.1686C11.7894 12.1234 12.5086 11.3933 12.7613 11.0625C12.8362 10.9642 12.9033 10.8769 12.9766 10.7833C13.0515 10.6881 13.3417 10.2841 13.3573 10.1421C13.0562 10.2544 12.2278 10.905 11.8971 11.1546C11.7894 11.2357 11.7582 11.3075 11.6615 11.412C11.5601 11.5212 11.284 11.8535 11.2637 12.0204L11.2652 12.022Z" fill="white"/>
<path fill-rule="evenodd" clip-rule="evenodd" d="M12.234 14.4166C12.0873 14.5086 11.7925 14.4291 11.4726 14.4806C11.5194 14.6022 11.3525 14.5601 11.7659 14.6428C11.8985 14.6693 11.9609 14.6756 12.1201 14.6803C12.3775 14.6881 12.6302 14.6865 12.872 14.6537C13.0499 14.6288 14.0405 14.4821 14.184 14.3448L13.4742 14.2076C12.9578 14.1342 12.053 14.0827 11.574 14.22C11.5678 14.2216 11.4867 14.27 11.4836 14.2731C11.4102 14.3355 11.4336 14.2902 11.4009 14.3916L12.234 14.4166Z" fill="white"/>
<path fill-rule="evenodd" clip-rule="evenodd" d="M5.26528 9.43379C5.13579 9.24658 4.71146 9.17482 4.61317 8.92521C4.94234 8.97357 5.04843 9.2575 5.36668 9.3199C5.26684 8.97513 4.62877 8.59135 4.30116 8.41975C4.16231 8.34642 3.03907 7.8394 2.91895 7.8316C2.97667 8.03129 3.27776 8.2029 3.42129 8.34486C3.51801 8.44003 3.57105 8.50867 3.66933 8.59603L4.52425 9.2185L5.04219 9.46031C5.21535 9.53051 5.2216 9.46811 5.26528 9.43379V9.43379Z" fill="white"/>
<path fill-rule="evenodd" clip-rule="evenodd" d="M11.0032 5.86437C11.0687 5.91273 11.1295 5.97201 11.2107 6.0001C11.5554 6.12178 11.8565 6.12958 12.2263 6.1327C12.6241 6.13582 13.2107 6.09994 13.5944 5.99854C13.504 5.87997 13.7286 5.94237 13.2606 5.86437C13.1654 5.84877 13.0765 5.80509 12.9657 5.76765C12.4962 5.61476 12.0188 5.61008 11.5258 5.60228C11.2918 5.5976 11.0578 5.60852 11.0032 5.86437Z" fill="white"/>
<path fill-rule="evenodd" clip-rule="evenodd" d="M6.60838 16.8909C6.42117 16.8893 6.40713 16.8534 6.25269 16.8503C6.25425 17.1576 6.33537 16.7692 6.33225 17.596C6.33069 17.8347 6.34161 18.1093 6.35097 18.3495C6.40557 18.3527 6.49605 18.348 6.53974 18.3589C6.64894 18.3823 6.59434 18.3854 6.66298 18.4197C6.77531 18.4759 6.86579 18.4853 6.99839 18.4821C7.00151 18.3215 6.96251 18.27 6.95783 18.0937L6.95627 17.2435C6.96095 17.0952 7.01399 17.0141 7.00307 16.8488C6.85019 16.8612 6.81275 16.8956 6.60682 16.894L6.60838 16.8909Z" fill="white"/>
<path fill-rule="evenodd" clip-rule="evenodd" d="M5.28544 15.5243C5.1856 15.4463 4.44925 14.997 4.34473 14.9752C4.38373 15.1483 4.93755 15.763 5.06079 15.8956C5.16688 16.0095 5.6037 16.3714 5.74878 16.4213C5.85955 16.4588 5.83614 16.4401 5.92351 16.3839L6.00619 16.3246C5.95471 16.0859 5.46953 15.6678 5.28544 15.5243V15.5243Z" fill="white"/>
<path fill-rule="evenodd" clip-rule="evenodd" d="M2.73178 11.1655C2.80823 11.2076 4.46969 11.2045 4.84255 10.777C4.81135 10.6865 4.84255 10.7302 4.7739 10.6662C4.49465 10.412 3.48061 10.8285 3.22788 10.9268C2.99544 11.0157 2.87687 11.0032 2.73022 11.1655H2.73178Z" fill="white"/>
<path fill-rule="evenodd" clip-rule="evenodd" d="M4.17936 16.6428C4.2324 16.7021 4.092 16.6584 4.25892 16.7287L4.60058 16.8113C4.75814 16.8644 4.94691 16.8301 5.11072 16.8659C5.35721 16.9221 5.90947 17.0219 5.94067 16.6366C5.66766 16.504 5.45393 16.4759 5.05612 16.5118C5.01243 16.5165 4.21368 16.621 4.17936 16.6413V16.6428Z" fill="white"/>
<path fill-rule="evenodd" clip-rule="evenodd" d="M12.4541 4.3667C12.3402 4.37762 11.7052 4.70991 11.5648 4.81132L11.05 5.25437C10.9923 5.3199 10.9018 5.38698 10.9892 5.47746C11.2185 5.71459 11.9985 4.91428 12.1421 4.75827C12.3152 4.57107 12.4198 4.56639 12.4541 4.3667V4.3667Z" fill="white"/>
<path fill-rule="evenodd" clip-rule="evenodd" d="M4.91265 14.3543C4.99378 14.3106 5.77069 13.1202 5.51328 12.7131C5.37755 12.7646 5.29487 12.88 5.23403 13.0017C5.13106 13.2092 5.0437 13.4245 4.99534 13.6491C4.94385 13.8878 5.03746 13.7271 4.89861 14.1265C4.81437 14.3683 4.90641 14.3449 4.91265 14.3543V14.3543Z" fill="white"/>
<path fill-rule="evenodd" clip-rule="evenodd" d="M6.67861 8.96419L6.77221 8.87059C6.65364 8.50866 5.79093 7.86123 5.58032 7.83783C5.61308 7.98448 5.92822 8.34797 6.0343 8.48681C6.14038 8.62722 6.45708 8.95639 6.67861 8.96419V8.96419Z" fill="white"/>
<path fill-rule="evenodd" clip-rule="evenodd" d="M4.00302 12.8191C4.18555 12.9018 4.20115 12.8098 4.35716 12.7723L4.9843 12.6538C5.16839 12.5773 5.35248 12.4806 5.3712 12.2981C4.99366 12.2622 4.89694 12.362 4.59429 12.4759C4.47728 12.5212 4.05139 12.713 4.00146 12.8176L4.00302 12.8191Z" fill="white"/>
<path fill-rule="evenodd" clip-rule="evenodd" d="M11.7832 5.39014C12.3355 5.3995 12.4025 5.20918 12.6693 5.07345C12.9798 4.91589 12.8472 5.02665 12.8986 4.841C12.6334 4.85348 12.1529 4.99233 11.9548 5.13273C11.8191 5.22946 11.8128 5.22322 11.7832 5.39014V5.39014Z" fill="white"/>
<path fill-rule="evenodd" clip-rule="evenodd" d="M6.97027 8.80353C7.01707 8.68185 7.01863 8.4416 6.98587 8.28403C6.93127 8.01882 6.92503 7.87998 6.82051 7.81445C6.78774 7.85813 6.7425 7.77701 6.76122 8.08902L6.80647 8.61944C6.82831 8.78169 6.84079 8.78013 6.97027 8.80041V8.80353Z" fill="white"/>
<path fill-rule="evenodd" clip-rule="evenodd" d="M6.57418 8.36203C6.75359 8.15298 6.47746 7.73489 6.36201 7.67249C6.31365 7.76765 6.40726 8.00634 6.46966 8.18887C6.53674 8.38855 6.52426 8.31523 6.57418 8.36047V8.36203Z" fill="white"/>
<path fill-rule="evenodd" clip-rule="evenodd" d="M17.8314 13.9766C18.6926 13.4353 20.2979 13.493 21.3104 13.8768C22.6505 14.3854 22.2995 15.6943 21.4165 16.3167C20.9906 16.6178 18.9781 17.5975 18.4679 17.5164C18.0389 17.4478 18.1185 17.3292 18.0436 16.8487C17.9016 15.947 17.7316 14.9236 17.8314 13.9751V13.9766ZM17.7987 9.947C18.5943 9.4899 18.4586 9.35418 19.7347 9.3573C22.5896 9.36666 19.613 12.805 17.7768 12.8175L17.7971 9.947H17.7987ZM20.4929 12.7317C20.6083 12.2793 20.5116 12.4993 20.8361 12.2029C21.2214 11.8518 21.5054 11.5897 21.7378 11.0546C22.0467 10.3433 22.0982 9.37914 21.4539 8.92672C20.2105 8.05465 18.1606 8.75044 17.8564 8.74108C17.4539 8.73016 17.9578 8.31518 17.0093 8.3885C16.7503 8.9158 16.7846 8.81284 16.78 9.50395C16.7659 11.699 16.7113 16.7333 17.2901 18.44C18.5615 18.9096 21.4726 17.6007 22.5335 16.5273C23.0795 15.9751 23.5803 14.9376 22.925 13.9454C22.4352 13.2044 21.2932 12.986 20.4929 12.7317V12.7317Z" fill="white"/>
<path fill-rule="evenodd" clip-rule="evenodd" d="M33.6238 12.5991C33.2697 12.2091 33.1761 11.7099 32.5926 11.5772C31.6192 11.3557 31.5302 11.7894 31.0029 12.0297C30.7128 11.908 30.8282 11.6225 30.4538 11.5476C30.0607 11.5523 30.0232 11.7785 29.953 12.1123C29.7705 12.9782 29.9109 16.7644 29.9327 17.6474C29.9452 18.195 29.8781 18.3401 30.3227 18.4119C31.1168 18.5398 30.9 17.5975 30.9046 16.9532C30.9093 16.259 30.9749 15.7691 31.017 15.1295C31.2307 12.0078 32.9671 10.9922 32.9546 15.2434V17.8066L33.8032 17.844C34.2245 16.4696 33.7455 14.8627 34.3103 13.5336C34.4491 13.2075 35.0388 12.4758 35.4616 12.3136C36.2681 12.0063 36.5599 12.429 36.8001 13.0749C37.2182 14.195 37.0435 16.3448 36.9904 17.6428C36.9702 18.1311 36.9 18.4587 37.3883 18.5039C37.9202 18.5538 37.8859 18.1201 37.9265 17.6693C37.992 16.9407 38.0185 16.1513 38.0185 15.3557V15.2418C38.0185 13.9423 37.8454 12.2918 36.9702 11.6677C36.2494 11.1545 35.0591 11.39 34.2572 12.0094C33.914 12.2762 33.9499 12.4712 33.6223 12.596L33.6238 12.5991Z" fill="white"/>
<path fill-rule="evenodd" clip-rule="evenodd" d="M41.3011 12.5227C41.9969 12.3043 42.351 12.5195 42.7738 12.933C43.2559 13.4041 43.1342 14.103 42.9735 14.6756C42.6365 15.8752 41.9891 16.4057 40.9813 16.9111C39.6131 17.5975 39.2247 17.8082 39.4243 14.8971C39.4727 14.1935 39.7036 13.7988 40.0546 13.3589C40.4945 12.8066 40.5476 12.7598 41.2995 12.5242L41.3011 12.5227ZM39.4789 8.70364C38.195 8.29958 38.5367 9.38851 38.4555 10.4197L38.4119 16.05C38.4587 17.3183 38.3448 18.401 39.0983 18.4431L39.7676 18.3152C42.9844 17.4478 43.4025 16.0094 43.727 15.4665C44.1701 14.6194 44.2481 13.5211 43.7457 12.6506C43.5725 12.4665 43.273 11.7567 42.1747 11.6022C41.5647 11.5164 41.0016 11.5695 40.5398 11.7972C39.8237 12.1639 39.6849 12.2887 39.3853 12.5492L39.4805 8.70832L39.4789 8.70364Z" fill="white"/>
<path fill-rule="evenodd" clip-rule="evenodd" d="M26.7769 12.0734C27.0359 11.9205 27.5585 11.8534 27.8908 11.9891C27.9345 12.0063 27.9704 12.0266 28.0016 12.05C28.5835 12.1233 28.8705 11.7863 28.6865 11.3448C28.0905 11.05 27.4946 10.7348 26.6771 11.0749C24.376 12.0313 22.3245 16.259 23.8768 17.8128C24.3479 18.2855 25.2996 18.4681 26.0078 18.1529C27.2418 17.6022 27.9049 15.3854 28.1826 15.2247C28.2871 15.9611 28.3136 17.4057 28.5242 17.9704C28.6334 18.2653 29.0843 18.6958 29.3994 18.2403C29.6178 17.9252 29.1389 15.5227 29.1248 14.1249C29.1108 12.7348 29.0031 12.6366 28.9095 12.5008C28.6849 12.3511 28.3292 12.3714 28.1248 12.543C28.0406 12.9564 27.7083 13.5757 27.3885 14.4119C25.7411 18.727 24.401 17.4712 24.3058 16.5118C24.1545 14.9938 25.468 12.8503 26.7769 12.0734V12.0734Z" fill="white"/>
<path fill-rule="evenodd" clip-rule="evenodd" d="M48.1278 11.3292C47.9406 11.972 49.1668 18.1639 46.2355 17.5601C44.7206 17.2481 45.2682 13.4868 45.3322 12.2856C45.3837 11.3511 45.6114 10.855 44.5568 11.0625L44.1715 13.3027C44.1044 15.4572 44.1169 18.5445 46.6925 18.479C49.9562 18.3963 49.5241 12.3261 48.7144 11.2762L48.1262 11.3292H48.1278Z" fill="white"/>
<path fill-rule="evenodd" clip-rule="evenodd" d="M47.0998 10.2293C45.7394 11.1435 46.897 11.1857 47.2574 10.9407C47.4789 10.8081 48.5709 10.1997 47.9531 9.90485C47.6676 9.79097 47.2199 10.1747 47.0998 10.2309V10.2293Z" fill="white"/>
<path d="M16.9517 6.68337L17.298 6.63657C17.3074 6.85966 17.3495 7.01254 17.4228 7.09523C17.4961 7.17791 17.6007 7.21847 17.7301 7.21847C17.8269 7.21847 17.9096 7.19663 17.9798 7.15139C18.05 7.10615 18.0983 7.04686 18.1248 6.97042C18.1514 6.89398 18.1638 6.77229 18.1638 6.60537V4.59601H18.5507V6.58197C18.5507 6.82534 18.5211 7.0141 18.4618 7.14827C18.4025 7.28243 18.3105 7.38384 18.181 7.45404C18.0531 7.52424 17.9033 7.55856 17.7317 7.55856C17.4759 7.55856 17.2808 7.48524 17.1451 7.3386C17.0094 7.19195 16.9439 6.97354 16.9501 6.68181L16.9517 6.68337Z" fill="white"/>
<path d="M18.8628 7.51024L19.9814 4.59448H20.4057L21.5929 7.51024H21.1545L20.8175 6.62724H19.5898L19.2731 7.51024H18.8644H18.8628ZM19.7021 6.31367H20.6959L20.3917 5.50556C20.2996 5.26063 20.231 5.05782 20.1826 4.89713C20.142 5.08746 20.089 5.27311 20.0219 5.45876L19.7021 6.31523V6.31367Z" fill="white"/>
<path d="M21.9064 7.51024V4.59448H23.1982C23.4587 4.59448 23.6553 4.621 23.791 4.67249C23.9267 4.72553 24.0344 4.81757 24.1139 4.94862C24.1951 5.08122 24.2341 5.22787 24.2341 5.38699C24.2341 5.59448 24.167 5.76765 24.0328 5.90961C23.8986 6.05158 23.6927 6.1405 23.4135 6.1795C23.5164 6.22787 23.5929 6.27779 23.6459 6.32459C23.7582 6.42755 23.8659 6.55704 23.9642 6.71304L24.4681 7.50712H23.986L23.6007 6.90025C23.4883 6.72397 23.3963 6.59136 23.323 6.49776C23.2497 6.40415 23.1841 6.34019 23.1264 6.30275C23.0687 6.26687 23.011 6.24035 22.9501 6.22475C22.9064 6.21539 22.8347 6.21071 22.7364 6.21071H22.2902V7.50556H21.9033L21.9064 7.51024ZM22.2933 5.88153H23.1217C23.298 5.88153 23.4353 5.86281 23.5336 5.82693C23.6334 5.79105 23.7083 5.73333 23.7582 5.6522C23.8097 5.57264 23.8362 5.48528 23.8362 5.39167C23.8362 5.25439 23.7863 5.1405 23.6865 5.05158C23.5866 4.96266 23.4291 4.91898 23.2138 4.91898H22.2918V5.88465L22.2933 5.88153Z" fill="white"/>
<path d="M24.8394 7.51024V4.59448H25.844C26.0702 4.59448 26.2434 4.60852 26.3635 4.6366C26.5305 4.67561 26.6724 4.74581 26.791 4.84565C26.9454 4.9767 27.0593 5.14206 27.1358 5.34331C27.2122 5.54612 27.2512 5.77701 27.2512 6.03754C27.2512 6.25907 27.2247 6.45407 27.1732 6.62568C27.1217 6.79729 27.0546 6.93925 26.9751 7.05002C26.894 7.16234 26.805 7.24971 26.7083 7.31367C26.6131 7.37763 26.4961 7.42755 26.3604 7.46031C26.2247 7.49308 26.0687 7.51024 25.8908 7.51024H24.8394V7.51024ZM25.2262 7.16858H25.8487C26.0406 7.16858 26.1919 7.15142 26.3011 7.11554C26.4103 7.07966 26.4977 7.02974 26.5617 6.96421C26.6521 6.87217 26.7239 6.74893 26.7754 6.59448C26.8269 6.44003 26.8518 6.25283 26.8518 6.0313C26.8518 5.72553 26.8019 5.49152 26.7021 5.32615C26.6022 5.16234 26.4805 5.05158 26.337 4.99698C26.2341 4.95642 26.0671 4.9377 25.8378 4.9377H25.2262V7.16858V7.16858Z" fill="white"/>
<path d="M27.8439 7.51023V4.59448H28.2308V7.51023H27.8439ZM27.7253 4.41507L27.9859 3.85657H28.4586L28.0233 4.41507H27.7253V4.41507Z" fill="white"/>
<path d="M28.9062 7.5102V4.59601H29.3025L30.8329 6.88306V4.59601H31.2027V7.5102H30.8064L29.2775 5.22315V7.5102H28.9062Z" fill="white"/>
</svg>
