<svg width="60" height="28" viewBox="0 0 60 28" fill="none" xmlns="http://www.w3.org/2000/svg">
<path fill-rule="evenodd" clip-rule="evenodd" d="M14.102 0C8.53728 0 3.84261 3.72674 2.37736 8.82086C4.16644 4.85481 8.15562 2.09423 12.7889 2.09423C16.3359 2.09423 19.5049 3.7125 21.5991 6.25067V5.2765H22.5661V7.61539C22.6489 7.7524 22.729 7.89118 22.8055 8.03175L23.8624 5.2765H24.1462C21.9461 2.08889 18.2683 0 14.1011 0H14.102ZM23.3766 9.23544C23.4398 9.39202 23.5003 9.55038 23.5572 9.71051C23.8855 9.69717 24.2138 9.70784 24.5367 9.75144C25.0945 9.82617 25.6337 10.0005 26.0963 10.3261C26.1194 10.3422 26.1425 10.3591 26.1648 10.3769C26.1096 10.0077 26.0376 9.64379 25.9495 9.28615H25.2716L24.8659 8.22302H23.7387L23.3757 9.23633L23.3766 9.23544ZM24.0608 7.34316H24.5314L24.2956 6.71507L24.0608 7.34316V7.34316ZM24.075 11.7789C24.1426 12.2247 24.1844 12.6793 24.1987 13.1401C24.2761 13.0378 24.3481 12.9337 24.4122 12.8278C24.518 12.6526 24.7324 12.2353 24.639 12.0218C24.5741 11.8724 24.3107 11.8074 24.075 11.7789V11.7789ZM23.7129 16.841C23.3642 17.9869 22.8402 19.0554 22.172 20.0171L22.1996 20.1906C22.2174 20.3044 22.2299 20.4174 22.2432 20.5313C22.2441 20.542 22.2459 20.5544 22.2468 20.5678C22.2628 20.5705 22.277 20.5731 22.2868 20.5749C22.4487 20.5874 22.8437 20.4557 23.2076 20.3151C24.0554 19.365 24.7565 18.2814 25.276 17.099C24.8356 16.9567 24.2769 16.8597 23.7129 16.8402V16.841ZM20.2611 22.1433C19.4301 22.8631 18.4951 23.4654 17.48 23.9226C18.5476 23.6157 19.5547 23.1664 20.4799 22.598L20.4007 22.5686L20.3242 22.3417C20.302 22.2768 20.2815 22.2101 20.262 22.1433H20.2611ZM25.9335 15.1801C26.0037 14.8989 26.0651 14.6134 26.1158 14.3251C25.9219 14.5662 25.6977 14.7806 25.4308 15.0253C25.5972 15.0742 25.7662 15.1249 25.9344 15.1801H25.9335Z" fill="white"/>
<path fill-rule="evenodd" clip-rule="evenodd" d="M22.0332 24.4938C9.58262 28.1182 11.4945 18.8854 0.00021553 23.2154C11.7614 21.566 10.571 30.6929 22.0332 24.4938Z" fill="white"/>
<path fill-rule="evenodd" clip-rule="evenodd" d="M16.7701 27.499C8.89937 28.1974 7.58358 22.5775 0.2164 23.9956C7.40031 23.7447 8.16363 28.8735 16.7701 27.499Z" fill="white"/>
<path fill-rule="evenodd" clip-rule="evenodd" d="M12.724 11.7923C12.7747 12.2923 12.7693 13.9319 12.7587 14.5778C12.7507 15.0279 12.804 15.3856 12.6252 15.3962L12.6145 11.956C12.6519 11.746 12.6688 11.8376 12.724 11.7923V11.7923ZM10.4367 11.3688C10.5354 11.6953 10.4892 13.0111 10.4892 13.4728C10.4883 13.8767 10.5559 15.3802 10.418 15.5937C10.2765 15.2699 10.2828 11.6544 10.4367 11.3688V11.3688ZM9.52212 16.6524C9.39668 16.5848 9.40202 16.3019 9.36643 16.1658C9.33975 16.0653 9.3006 16.003 9.27658 15.9247C9.11822 15.4069 9.3433 15.9629 9.01769 15.2192C8.89492 14.939 8.75436 14.5769 8.59689 14.318C8.20811 13.681 8.39316 14.0938 8.21167 13.3901C8.05598 12.7887 7.95634 13.0769 8.21523 12.6241L8.41896 12.1063C8.49547 11.7638 8.36825 11.7611 8.36825 11.7611C8.29619 11.9666 8.19299 12.3812 8.04442 12.5876C7.97591 12.6828 8.04353 12.617 7.95011 12.6793C7.82823 12.5965 7.41544 11.7496 7.04534 11.6713C7.10317 11.8537 7.06491 11.7602 7.19658 11.8884C7.26153 11.9515 7.28466 11.9827 7.35316 12.0734C7.45458 12.2095 7.53821 12.3145 7.62628 12.4755C7.74372 12.6899 8.00438 13.2406 8.03997 13.4808C7.89318 13.4355 7.99638 13.4933 7.87805 13.3785C7.72859 13.2335 7.65475 13.1125 7.45458 12.9479L6.88343 12.5805L6.74464 12.6232C6.80425 12.673 6.7651 12.6428 6.82649 12.6819L7.05157 12.8412C7.10139 12.8785 7.14765 12.899 7.2037 12.9399C7.38074 13.0698 7.26598 12.9372 7.34071 13.1214C6.86741 13.0965 7.09071 13.0289 6.24555 13.0493C6.42971 13.2673 7.46259 13.1152 7.89585 13.6552C7.97147 13.7495 8.16185 13.9924 8.20277 14.1098C8.03107 14.2895 6.97684 14.4888 6.59874 14.9603C6.63077 14.9799 6.63521 15.0857 6.83094 14.9496C6.903 14.8989 6.93769 14.8713 7.00798 14.8313C7.32736 14.6516 8.01595 14.3749 8.37359 14.366C8.76147 15.3535 8.84688 15.3633 9.06129 16.4798C9.11644 16.7672 9.0426 16.8206 9.18851 17.0421L9.2917 17.1933C9.60753 17.5812 10.6769 17.2965 10.8699 17.3134C11.0986 17.3339 11.0772 17.4291 11.4224 16.9825C11.5043 16.8757 11.7498 16.519 11.8886 16.503C11.8646 16.9149 11.5443 16.7547 11.5995 17.2663C11.9793 17.5705 13.0763 17.478 13.1795 17.2636C13.2747 17.0643 12.9891 16.8206 12.9829 16.4914C12.9766 16.204 12.9615 15.7877 12.9837 15.5119C13.5869 15.0155 14.401 14.6845 15.1776 14.6596C15.2488 14.6569 15.2977 14.6569 15.3689 14.6463L15.4321 14.5351C15.3805 14.5297 15.2773 14.5351 15.2194 14.5351C15.0771 14.5342 14.9347 14.5235 14.7924 14.5279C14.5602 14.5351 14.1056 14.6685 13.8538 14.7744C13.6261 14.8696 13.1394 15.1498 12.9918 15.1498C12.9135 14.7833 12.9855 11.8928 12.9766 11.0912C12.9731 10.7763 12.9446 10.7452 13.0941 10.5352C13.2035 10.3804 13.3263 10.2523 13.2649 9.98984L11.7115 9.99162C11.6991 10.4418 11.8975 10.3964 11.8948 10.835C11.8886 11.7567 11.9331 15.471 11.8921 15.8936C11.869 16.1364 11.5434 16.2565 11.1662 16.6853C10.9892 16.8864 11.0203 16.8855 10.8851 16.9282C10.5603 16.567 10.7134 15.769 10.7098 15.2557C10.7062 14.7655 10.6885 10.8208 10.7312 10.6242C10.7979 10.319 10.9411 10.3991 10.9954 10.1571C11.0452 9.93202 10.9714 9.90266 10.9705 9.89999L10.8041 9.85818C10.7374 9.85462 10.6555 9.87063 10.5879 9.87686C10.2258 9.90978 9.68137 9.83327 9.44383 9.89821C9.4207 10.2505 9.57105 10.2879 9.6013 10.5806C9.62621 10.8208 9.60308 11.2149 9.60308 11.4729L9.60753 15.8508C9.6102 16.0412 9.68315 16.5572 9.52568 16.6506L9.52212 16.6524Z" fill="white"/>
<path fill-rule="evenodd" clip-rule="evenodd" d="M10.4135 5.69464C10.4127 5.52472 10.4162 5.35391 10.4162 5.18398C10.4153 4.67777 10.4393 4.83257 10.4998 4.79076C10.6386 5.06121 10.5256 7.48817 10.5203 7.7177C10.3228 7.50952 10.4162 6.11545 10.4135 5.69464ZM9.47942 9.68472C9.773 9.73098 10.6644 9.77724 10.8851 9.64824C11.1413 9.49878 11.1751 8.191 12.192 7.33693C12.5781 7.01221 12.514 7.25864 12.5932 7.00154C12.1386 7.05314 11.5256 7.81201 11.3281 8.14651L10.9571 8.93741C10.8806 9.16427 11.0061 9.03616 10.8183 9.11356C10.7489 8.90894 10.7988 5.40551 10.797 4.67333C10.7961 4.40554 10.7792 4.27921 10.9215 4.07103C11.0666 3.85752 11.16 3.86108 11.0532 3.52835L9.53369 3.52301C9.45095 3.89221 9.65023 3.93403 9.6876 4.20982C9.71606 4.42067 9.69115 4.82457 9.69115 5.05587L9.67959 8.8778C9.61376 9.23366 9.15114 9.25413 9.48031 9.68383L9.47942 9.68472Z" fill="white"/>
<path fill-rule="evenodd" clip-rule="evenodd" d="M12.5016 21.719C12.5007 21.2501 12.466 19.6665 12.5656 19.365L12.643 19.55C12.6439 19.5571 12.6466 19.7057 12.6466 19.7208C12.6448 19.8329 12.6332 19.9459 12.6412 20.0571C12.7097 21.0117 12.6564 21.1878 12.6572 22.1015C12.6572 22.4787 12.7088 23.17 12.6261 23.3799C12.5024 23.331 12.5736 23.4751 12.5096 23.2376L12.5042 22.6113C12.5042 22.3141 12.5016 22.0161 12.5007 21.719H12.5016ZM12.8494 23.3346C12.8476 23.017 12.8957 22.8034 12.8939 22.5277C12.8921 21.9547 12.8245 18.5607 12.9384 18.2413C13.0345 17.9709 13.1857 18.0598 13.1697 17.567C12.8165 17.5438 12.4544 17.6221 12.1217 17.5794C11.7498 17.5323 11.4633 17.4611 11.6991 17.9771C11.8921 18.3997 11.7943 19.3409 11.7881 19.8916C11.78 20.55 11.7916 21.2288 11.7943 21.8898C11.7961 22.4983 11.7418 23.2171 11.7649 23.7705C11.9295 23.8781 12.4081 23.952 12.579 24.1059C12.6741 24.1913 12.5905 24.1753 12.7142 24.1949C12.9215 24.2269 12.8939 24.0899 12.8734 23.9573C12.8263 23.6459 12.8503 23.6504 12.8485 23.3355L12.8494 23.3346Z" fill="white"/>
<path fill-rule="evenodd" clip-rule="evenodd" d="M9.34419 17.5394C9.31572 17.9504 9.42515 17.8179 9.48565 18.0945L9.50522 20.0607C9.50344 20.9103 9.46874 21.8747 9.50967 22.7109C9.73831 22.8453 9.90289 22.9289 10.2356 22.9449C10.2187 22.3391 10.1814 19.308 10.3299 19.0135C10.434 19.2253 10.3931 20.7252 10.3922 21.082L10.3833 22.7394C10.3655 23.2527 10.3966 23.1175 10.5425 23.1495C10.5924 23.0864 10.5755 23.1415 10.6075 23.0374L10.6271 18.7004C10.6262 17.8463 10.7712 18.1479 10.8797 17.8454C10.8975 17.7956 10.9082 17.7342 10.9055 17.6817C10.8966 17.5118 10.9233 17.7654 10.8895 17.6043C10.8441 17.3891 10.6155 17.5092 10.4981 17.5225C10.1022 17.5679 9.67603 17.4718 9.3433 17.5403L9.34419 17.5394Z" fill="white"/>
<path fill-rule="evenodd" clip-rule="evenodd" d="M16.1322 14.9772C16.1536 14.7459 16.6037 14.5048 16.6624 14.1169C16.4053 14.1899 16.5735 14.1161 16.3386 14.2886C16.1633 14.4176 15.9365 14.4906 15.7781 14.5733C15.3315 14.8064 15.8084 14.7842 14.9241 14.9025C14.2826 14.9879 14.3164 14.8981 14.3191 15.1294L14.82 15.1489C14.8111 15.3518 14.7444 15.3135 14.5771 15.2601C14.2097 15.1436 14.2969 15.2077 14.2346 15.2575C14.3787 15.4692 14.4552 15.2415 14.5113 15.5128C14.5024 15.5181 14.4463 15.5519 14.4445 15.5528L14.0042 15.9994C13.836 16.2112 13.6946 16.3767 13.6127 16.6533C14.054 16.5226 14.6225 15.7032 14.9685 15.6285C14.8956 15.8099 14.6865 15.9416 14.5059 16.1195L14.3867 16.221C14.2408 16.342 13.7764 16.6916 13.7293 16.8304C13.7622 16.8491 13.7168 16.8962 13.8787 16.8499L14.4339 16.5261C14.8493 16.3384 15.2061 16.0519 15.4232 15.7263C15.7897 15.7281 16.1927 15.801 16.8306 15.7859L17.9809 15.7005C18.238 15.6658 18.0307 15.7041 18.1259 15.64C18.0699 15.5706 18.1446 15.6151 18.0209 15.5546L17.6473 15.4149C17.5165 15.3464 17.3457 15.2957 17.182 15.2486C16.8413 15.1507 16.4712 15.0351 16.1304 14.9763L16.1322 14.9772Z" fill="white"/>
<path fill-rule="evenodd" clip-rule="evenodd" d="M8.31932 16.4905C8.31932 16.3064 8.30153 16.0253 8.31665 15.8544C8.33889 15.6036 8.48657 15.7299 8.41006 15.3909C8.3549 15.3847 7.52842 15.3803 7.52041 15.3829C7.25886 15.4639 7.59248 15.6801 7.60938 15.9843L7.61383 19.4673C7.61383 19.8143 7.35049 20.0278 7.65386 20.1052C7.88784 20.1648 8.28818 20.1372 8.47056 20.0732C8.50259 19.6835 8.3638 19.8676 8.32466 19.5803L8.31843 16.4914L8.31932 16.4905Z" fill="white"/>
<path fill-rule="evenodd" clip-rule="evenodd" d="M1.49749 10.7105C1.64429 10.9169 3.5855 11.9516 3.98139 12.0948C4.44045 12.2603 5.27049 12.4987 5.74201 12.4578C5.99111 12.4364 5.86923 12.4355 5.94485 12.3679C5.7687 12.2265 4.13886 11.6962 3.81058 11.5663L3.53123 11.4329C3.53212 11.432 3.51966 11.3146 3.82748 11.4436L6.06673 12.1927C5.87723 11.7069 4.48849 11.2336 4.07214 11.0984C3.37465 10.8724 2.48856 10.811 1.83289 10.6936C1.36583 10.61 1.59091 10.6402 1.49749 10.7096V10.7105Z" fill="white"/>
<path fill-rule="evenodd" clip-rule="evenodd" d="M13.5504 14.4603C13.8965 14.3901 14.11 13.834 14.4686 13.7531C14.3262 14.1694 13.7675 14.2566 13.6714 14.6365C14.1821 14.5813 15.0468 13.7041 15.352 13.3056C15.4418 13.1881 15.5228 13.0832 15.6118 12.9702C15.7007 12.8563 16.0513 12.3697 16.0699 12.1989C15.707 12.3341 14.7114 13.1161 14.3129 13.4177C14.1839 13.5146 14.1465 13.6027 14.0291 13.7282C13.9063 13.8589 13.5754 14.2593 13.5504 14.4603Z" fill="white"/>
<path fill-rule="evenodd" clip-rule="evenodd" d="M14.7168 17.341C14.5397 17.4514 14.1865 17.3562 13.8013 17.4193C13.8583 17.5652 13.6563 17.5154 14.1536 17.6142C14.312 17.6462 14.3894 17.6533 14.5798 17.6586C14.8894 17.6675 15.1936 17.6666 15.4837 17.6266C15.6972 17.5973 16.8902 17.4211 17.0619 17.2556L16.2087 17.0902C15.5869 17.003 14.4988 16.9398 13.9232 17.1053C13.9161 17.1071 13.8173 17.1658 13.8138 17.1684C13.7257 17.2441 13.7533 17.1898 13.715 17.3108L14.7168 17.3401V17.341Z" fill="white"/>
<path fill-rule="evenodd" clip-rule="evenodd" d="M6.33451 11.3475C6.17793 11.1215 5.66906 11.0361 5.54984 10.7363C5.94485 10.7941 6.07296 11.1366 6.4555 11.2113C6.33629 10.7968 5.56764 10.3341 5.17441 10.1277C5.00805 10.0406 3.65578 9.43026 3.51166 9.42047C3.58105 9.66068 3.94314 9.86707 4.11573 10.037C4.23227 10.1518 4.29544 10.2336 4.41376 10.3395L5.44219 11.0886L6.06495 11.3786C6.27224 11.464 6.28113 11.3884 6.33273 11.3475H6.33451Z" fill="white"/>
<path fill-rule="evenodd" clip-rule="evenodd" d="M13.2364 7.05491C13.3147 7.11363 13.3894 7.18391 13.4855 7.21772C13.9001 7.36362 14.2613 7.37252 14.7079 7.37697C15.1856 7.38141 15.8929 7.33871 16.3537 7.21505C16.2443 7.07182 16.5156 7.14744 15.9525 7.05402C15.8377 7.03534 15.7319 6.98196 15.5966 6.93837C15.0317 6.75421 14.4579 6.74976 13.8645 6.73909C13.5825 6.73375 13.3013 6.74621 13.2364 7.05402V7.05491Z" fill="white"/>
<path fill-rule="evenodd" clip-rule="evenodd" d="M7.94922 20.3187C7.72414 20.3178 7.70635 20.2733 7.5213 20.2698C7.52397 20.6399 7.62005 20.1728 7.61738 21.1665C7.61649 21.4539 7.62806 21.7831 7.63962 22.0722C7.70546 22.0767 7.81311 22.0713 7.86737 22.0829C7.99815 22.1113 7.93321 22.114 8.01595 22.1549C8.15117 22.2217 8.25971 22.2341 8.41985 22.2297C8.42251 22.0357 8.37714 21.9752 8.37092 21.7626L8.36914 20.7395C8.37447 20.5616 8.43942 20.4637 8.42607 20.2635C8.24281 20.2787 8.19743 20.3196 7.94922 20.3178V20.3187Z" fill="white"/>
<path fill-rule="evenodd" clip-rule="evenodd" d="M6.35853 18.6746C6.23754 18.5803 5.35234 18.0403 5.22601 18.0145C5.27405 18.2218 5.9404 18.9628 6.08719 19.1212C6.21441 19.2582 6.7393 19.6932 6.91456 19.7537C7.04801 19.7991 7.02043 19.7769 7.12541 19.7092L7.22505 19.6372C7.16277 19.3498 6.58005 18.8472 6.35942 18.6755L6.35853 18.6746Z" fill="white"/>
<path fill-rule="evenodd" clip-rule="evenodd" d="M3.28658 13.4301C3.37821 13.4809 5.37814 13.4782 5.82652 12.9631C5.78827 12.8536 5.82741 12.9061 5.74378 12.8305C5.4075 12.5254 4.18868 13.0262 3.88442 13.1437C3.60507 13.2513 3.46184 13.2353 3.28569 13.4301H3.28658Z" fill="white"/>
<path fill-rule="evenodd" clip-rule="evenodd" d="M5.02762 20.0189C5.09167 20.09 4.92264 20.0367 5.1237 20.123L5.53561 20.2226C5.7251 20.2858 5.95285 20.2448 6.14947 20.2893C6.44572 20.356 7.11029 20.477 7.14676 20.0135C6.81759 19.8552 6.56137 19.8205 6.08274 19.8641C6.02936 19.8685 5.07032 19.9948 5.02762 20.0198V20.0189Z" fill="white"/>
<path fill-rule="evenodd" clip-rule="evenodd" d="M14.9801 5.25159C14.8431 5.26493 14.0789 5.66349 13.9099 5.78716L13.2907 6.31917C13.2222 6.39745 13.1127 6.47841 13.2177 6.58695C13.4935 6.87164 14.4312 5.90993 14.6047 5.72221C14.8129 5.49713 14.9392 5.4909 14.9801 5.25159V5.25159Z" fill="white"/>
<path fill-rule="evenodd" clip-rule="evenodd" d="M5.90926 17.2663C6.00712 17.2138 6.94214 15.7823 6.63166 15.2913C6.46885 15.3535 6.36921 15.4914 6.29537 15.6391C6.17082 15.8891 6.06584 16.1489 6.00801 16.4184C5.94663 16.7049 6.05783 16.5127 5.89147 16.9923C5.79005 17.2832 5.90037 17.2538 5.90837 17.2663H5.90926Z" fill="white"/>
<path fill-rule="evenodd" clip-rule="evenodd" d="M8.03463 10.7825L8.14672 10.6705C8.00438 10.2354 6.96616 9.45608 6.7135 9.42761C6.75354 9.60465 7.13164 10.0406 7.25886 10.2087C7.38696 10.3778 7.76684 10.7736 8.03463 10.7825Z" fill="white"/>
<path fill-rule="evenodd" clip-rule="evenodd" d="M4.81499 15.4194C5.03473 15.5182 5.05253 15.407 5.24202 15.3634L5.99644 15.2219C6.21797 15.1294 6.4386 15.0146 6.46173 14.7949C6.00801 14.7522 5.89147 14.8714 5.5276 15.0093C5.38704 15.0627 4.8746 15.294 4.81499 15.4203V15.4194Z" fill="white"/>
<path fill-rule="evenodd" clip-rule="evenodd" d="M14.1741 6.48374C14.8387 6.49441 14.9178 6.26577 15.2408 6.10208C15.6135 5.91258 15.4552 6.04514 15.5157 5.82184C15.1963 5.83696 14.6198 6.00422 14.3796 6.17325C14.2159 6.2889 14.2088 6.28268 14.1741 6.48285V6.48374Z" fill="white"/>
<path fill-rule="evenodd" clip-rule="evenodd" d="M8.38337 10.5895C8.44031 10.4436 8.4412 10.1545 8.40294 9.96498C8.33711 9.64559 8.32999 9.47923 8.20455 9.40094C8.16452 9.45343 8.11025 9.35646 8.13249 9.73189L8.18676 10.3707C8.21256 10.5655 8.22768 10.5646 8.38337 10.5886V10.5895Z" fill="white"/>
<path fill-rule="evenodd" clip-rule="evenodd" d="M7.90741 10.0584C8.1227 9.8057 7.79087 9.30394 7.65208 9.2301C7.59336 9.34398 7.70724 9.63044 7.78108 9.85197C7.86115 10.0931 7.84602 10.0041 7.90741 10.0584V10.0584Z" fill="white"/>
<path fill-rule="evenodd" clip-rule="evenodd" d="M21.4488 16.8126C22.4834 16.1605 24.4157 16.2308 25.6328 16.6925C27.2439 17.3046 26.8222 18.8784 25.76 19.6283C25.2475 19.9895 22.8268 21.1692 22.213 21.0714C21.697 20.9886 21.793 20.8463 21.7032 20.268C21.5333 19.1826 21.3286 17.9522 21.4488 16.8126ZM21.4105 11.9649C22.3678 11.4142 22.2041 11.2514 23.7405 11.2559C27.1754 11.2665 23.5937 15.4025 21.3856 15.4167L21.4105 11.964V11.9649ZM24.6524 15.3144C24.7912 14.77 24.6755 15.0342 25.0652 14.6783C25.5278 14.2558 25.8703 13.9408 26.1505 13.2967C26.5224 12.4418 26.5847 11.2808 25.8098 10.7363C24.3143 9.68652 21.8491 10.5246 21.4826 10.5139C20.9986 10.4997 21.6053 10.0015 20.4621 10.0895C20.1499 10.7239 20.1926 10.5993 20.1872 11.4311C20.1712 14.0716 20.1054 20.1274 20.8002 22.1807C22.3304 22.7457 25.8312 21.171 27.1069 19.8801C27.7644 19.2155 28.3658 17.9691 27.5775 16.7752C26.9877 15.8829 25.6159 15.6205 24.6533 15.3144H24.6524Z" fill="white"/>
<path fill-rule="evenodd" clip-rule="evenodd" d="M40.4463 15.1561C40.0193 14.6863 39.909 14.0867 39.2052 13.9257C38.0336 13.6588 37.9268 14.1819 37.2925 14.471C36.9438 14.3242 37.0834 13.9808 36.6324 13.891C36.16 13.8963 36.1146 14.1694 36.0301 14.5707C35.8103 15.6116 35.9803 20.1674 36.0052 21.2297C36.0212 21.8889 35.9393 22.0633 36.4749 22.1496C37.4295 22.3035 37.1688 21.1692 37.1742 20.3952C37.1804 19.5589 37.2578 18.97 37.3103 18.2013C37.5674 14.4452 39.6563 13.2255 39.6412 18.3383L39.6403 21.4218L40.6616 21.4672C41.1687 19.8151 40.5931 17.881 41.2719 16.2824C41.4383 15.89 42.1491 15.0093 42.6571 14.8153C43.6268 14.4452 43.9791 14.9541 44.2673 15.7299C44.77 17.0777 44.5609 19.6639 44.496 21.2235C44.472 21.8115 44.3866 22.2047 44.9746 22.2599C45.6152 22.3204 45.5725 21.7973 45.6214 21.2564C45.7006 20.381 45.7317 19.4308 45.7317 18.4736V18.3365C45.7308 16.7734 45.5226 14.7869 44.4702 14.0369C43.6037 13.4186 42.1704 13.7024 41.207 14.4488C40.7933 14.7691 40.8377 15.0048 40.4445 15.1543L40.4463 15.1561Z" fill="white"/>
<path fill-rule="evenodd" clip-rule="evenodd" d="M49.68 15.0626C50.5171 14.8002 50.9433 15.0582 51.4521 15.5555C52.0322 16.1222 51.8863 16.962 51.6924 17.6524C51.2876 19.0963 50.5073 19.7333 49.2965 20.3409C47.6507 21.1674 47.1827 21.4192 47.4229 17.9184C47.4808 17.0715 47.7592 16.5982 48.1809 16.0679C48.7094 15.4025 48.7734 15.3473 49.6791 15.0635L49.68 15.0626ZM47.487 10.4685C45.9417 9.98275 46.3527 11.2923 46.2566 12.5325L46.2032 19.3045C46.2593 20.8302 46.1232 22.1327 47.0288 22.1825L47.8331 22.0277C51.703 20.9833 52.2048 19.2547 52.5953 18.6008C53.1282 17.5812 53.2217 16.2601 52.6185 15.213C52.4094 14.9924 52.0509 14.1374 50.728 13.9515C49.994 13.8483 49.317 13.9123 48.7618 14.1855C47.9007 14.6258 47.7343 14.778 47.3731 15.0893L47.487 10.4685V10.4685Z" fill="white"/>
<path fill-rule="evenodd" clip-rule="evenodd" d="M32.2091 14.5227C32.5204 14.3376 33.1494 14.2584 33.5497 14.4221C33.6013 14.4435 33.6458 14.4675 33.6832 14.496C34.3825 14.5849 34.7285 14.1784 34.507 13.6481C33.7891 13.2941 33.0729 12.9142 32.0898 13.3234C29.3221 14.4746 26.8543 19.559 28.7225 21.429C29.2901 21.9975 30.4342 22.2181 31.2865 21.8374C32.7704 21.1746 33.5684 18.5083 33.9021 18.3144C34.0284 19.1996 34.0595 20.9379 34.3122 21.6167C34.4438 21.9708 34.9856 22.4886 35.3646 21.9415C35.6271 21.5625 35.0506 18.6729 35.0346 16.9914C35.0186 15.3207 34.8878 15.2015 34.7757 15.0369C34.5052 14.8563 34.0782 14.8821 33.8318 15.0876C33.7312 15.5849 33.33 16.3295 32.9457 17.3366C30.9644 22.5277 29.3524 21.0162 29.2376 19.8623C29.0561 18.0359 30.6353 15.4586 32.2099 14.5236L32.2091 14.5227Z" fill="white"/>
<path fill-rule="evenodd" clip-rule="evenodd" d="M57.8914 13.6277C57.6663 14.3999 59.1405 21.848 55.6157 21.122C53.7937 20.7466 54.4511 16.2219 54.5303 14.778C54.5917 13.6535 54.8657 13.0574 53.598 13.3065L53.1354 16.0003C53.0553 18.591 53.0704 22.3062 56.1682 22.2279C60.0942 22.1291 59.5737 14.826 58.6005 13.5627L57.8923 13.6268L57.8914 13.6277Z" fill="white"/>
<path fill-rule="evenodd" clip-rule="evenodd" d="M56.6557 12.3047C55.0187 13.4052 56.4119 13.456 56.8443 13.1597C57.1103 13.0005 58.4243 12.2692 57.6806 11.9133C57.3372 11.7763 56.798 12.2371 56.6548 12.3047H56.6557Z" fill="white"/>
<path d="M20.3901 8.03888L20.8064 7.98194C20.818 8.25062 20.8678 8.43389 20.9568 8.53353C21.0457 8.63228 21.1694 8.6821 21.3278 8.6821C21.4434 8.6821 21.5439 8.65541 21.6285 8.60203C21.713 8.54776 21.7717 8.4757 21.8028 8.38407C21.8349 8.29243 21.85 8.14564 21.85 7.94458V5.5274H22.3153V7.917C22.3153 8.20969 22.2806 8.43656 22.2094 8.59847C22.1382 8.7595 22.0261 8.88138 21.8722 8.96679C21.7183 9.0513 21.5386 9.09312 21.3322 9.09312C21.0244 9.09312 20.7895 9.00504 20.6258 8.828C20.463 8.65096 20.3838 8.38762 20.391 8.03888H20.3901Z" fill="white"/>
<path d="M22.6898 9.0344L24.035 5.5274H24.5447L25.9726 9.0344H25.4442L25.0385 7.97127H23.5617L23.1809 9.0344H22.6889H22.6898ZM23.6987 7.59406H24.8935L24.5278 6.62167C24.4175 6.32631 24.3348 6.08166 24.2761 5.88949C24.228 6.11813 24.1631 6.34232 24.083 6.56473L23.6987 7.59406V7.59406Z" fill="white"/>
<path d="M26.3516 9.0344V5.5274H27.9058C28.2181 5.5274 28.4556 5.55943 28.6184 5.62171C28.7812 5.68487 28.9111 5.79519 29.0081 5.95444C29.1051 6.11368 29.1531 6.28983 29.1531 6.48289C29.1531 6.73199 29.0721 6.94195 28.9111 7.11187C28.7501 7.28268 28.5019 7.39033 28.1656 7.43659C28.2893 7.49531 28.3818 7.55402 28.4458 7.61096C28.5811 7.73462 28.7092 7.8912 28.8293 8.07803L29.436 9.03351H28.8569L28.3933 8.304C28.259 8.09226 28.1469 7.93212 28.0597 7.82003C27.9717 7.70793 27.8934 7.63053 27.824 7.58605C27.7555 7.54157 27.6843 7.51132 27.6122 7.49264C27.5597 7.48196 27.4743 7.47662 27.3542 7.47662H26.8169V9.0344H26.3516V9.0344ZM26.8169 7.07539H27.8124C28.025 7.07539 28.1896 7.05315 28.3088 7.00956C28.428 6.96597 28.5188 6.89657 28.5802 6.79871C28.6424 6.70263 28.6736 6.59765 28.6736 6.48467C28.6736 6.31919 28.614 6.18219 28.4939 6.07454C28.3738 5.96778 28.1843 5.9144 27.9254 5.9144H26.8169V7.07539V7.07539Z" fill="white"/>
<path d="M29.8782 9.0344V5.5274H31.0863C31.3585 5.5274 31.5667 5.54342 31.7108 5.57722C31.9119 5.62349 32.0827 5.708 32.2251 5.829C32.4101 5.98557 32.548 6.18486 32.6396 6.42862C32.7322 6.67149 32.7775 6.94995 32.7775 7.26311C32.7775 7.52911 32.7464 7.76487 32.6841 7.97038C32.6218 8.17589 32.5418 8.3467 32.4448 8.48104C32.3469 8.61537 32.2411 8.72213 32.1245 8.79864C32.0098 8.87604 31.8701 8.93476 31.7064 8.97479C31.5427 9.01483 31.355 9.0344 31.1424 9.0344H29.8773H29.8782ZM30.3435 8.62338H31.0916C31.323 8.62338 31.5036 8.60203 31.6352 8.55933C31.7669 8.51573 31.871 8.45524 31.9493 8.37695C32.0587 8.26663 32.1441 8.11806 32.2055 7.93212C32.2669 7.74619 32.298 7.52022 32.298 7.2551C32.298 6.88768 32.2375 6.60566 32.1174 6.40816C31.9973 6.21065 31.8514 6.0781 31.6788 6.01137C31.5552 5.96333 31.355 5.93931 31.0792 5.93931H30.3435V8.62338V8.62338Z" fill="white"/>
<path d="M33.4937 9.03438V5.52739H33.959V9.03438H33.4937ZM33.3514 5.31209L33.6645 4.6413H34.233L33.709 5.31209H33.3514Z" fill="white"/>
<path d="M34.7712 9.0344V5.5274H35.2481L37.0879 8.27998V5.5274H37.5336V9.0344H37.0567L35.2169 6.28183V9.0344H34.7712Z" fill="white"/>
</svg>
