<svg width="25" height="28" viewBox="0 0 25 28" fill="none" xmlns="http://www.w3.org/2000/svg">
<g clip-path="url(#clip0)">
<path fill-rule="evenodd" clip-rule="evenodd" d="M16.4074 0.0398865C13.5063 0.0522364 10.605 0.0645864 7.70364 0.0769364C9.91292 4.47353 10.1117 8.8987 8.37031 12.8013C10.79 12.8013 13.2097 12.8013 15.6296 12.8013C13.9372 8.48269 14.4456 4.06232 16.4074 0.0398865Z" fill="#97B56F"/>
<path fill-rule="evenodd" clip-rule="evenodd" d="M16.4074 27.0795C13.5063 27.0671 10.605 27.0548 7.70364 27.0424C9.91292 22.6458 10.1117 18.2206 8.37031 14.3181C10.79 14.3181 13.2097 14.3181 15.6296 14.3181C13.9372 18.6367 14.4456 23.057 16.4074 27.0795Z" fill="#97B56F"/>
<path fill-rule="evenodd" clip-rule="evenodd" d="M8.03709 22.6696C7.96893 17.146 5.33976 14.3787 0.0370483 14.4846C0.142023 19.3806 2.79612 22.1196 8.03709 22.6696Z" fill="#97B56F"/>
<path fill-rule="evenodd" clip-rule="evenodd" d="M8.00004 8.1882C7.93188 2.66456 5.30271 -0.102748 0 0.00314122C0.104975 4.89922 2.75907 7.63817 8.00004 8.1882Z" fill="#97B56F"/>
<path fill-rule="evenodd" clip-rule="evenodd" d="M17 14.5216C17.0681 8.99797 19.6973 6.23066 25 6.33655C24.895 11.2326 22.2409 13.9716 17 14.5216Z" fill="#97B56F"/>
</g>
<defs>
<clipPath id="clip0">
<rect width="25" height="27.0796" fill="white"/>
</clipPath>
</defs>
</svg>
