<svg width="100" height="100" viewBox="0 0 100 100" fill="none" xmlns="http://www.w3.org/2000/svg">
<g clip-path="url(#clip0)">
<path d="M83.7283 44.72C83.42 43.3406 82.5849 42.174 81.3768 41.4353C80.529 40.9169 79.5747 40.6831 78.6284 40.7046L70.6955 6.4405C69.8174 2.64847 66.4855 0 62.5932 0H37.3958C33.5035 0 30.1717 2.64847 29.2937 6.4405L21.3666 40.6784C20.2723 40.657 19.204 40.9822 18.2895 41.6292C16.0408 43.2204 15.468 46.4247 17.0131 48.7723L18.8516 51.5654C20.1142 53.4836 22.0769 54.7738 24.2842 55.1912L23.0064 72.139C22.9455 72.9448 23.5496 73.6474 24.3556 73.7083C24.3929 73.711 24.4301 73.7123 24.467 73.7123C25.2252 73.7123 25.8667 73.1274 25.9247 72.3588L27.2082 55.3375H72.7814L75.928 97.0731H75.354L68.716 61.5105C68.484 60.2682 67.398 59.3664 66.1345 59.3664H60.8652C60.0569 59.3664 59.4019 60.0216 59.4019 60.8298C59.4019 61.6379 60.0569 62.2931 60.8652 62.2931H65.8851L67.9576 73.3967L49.9808 79.6407L32.0306 73.4058L34.1048 62.2931H54.629C55.4374 62.2931 56.0924 61.6379 56.0924 60.8298C56.0924 60.0216 55.4374 59.3664 54.629 59.3664H33.8553C32.5915 59.3664 31.5057 60.2682 31.2735 61.5109L24.635 97.0733H24.0612L25.4527 78.6161C25.5136 77.8103 24.9095 77.1077 24.1035 77.0468C23.301 76.9867 22.5953 77.5902 22.5344 78.396L21.0855 97.6126C21.0392 98.2266 21.2527 98.8379 21.6714 99.2894C22.0901 99.7409 22.6837 100 23.2996 100H25.2219C26.2907 100 27.2087 99.2375 27.4048 98.187L28.923 90.0533L49.9806 82.7391L71.0683 90.0637L72.5847 98.1876C72.7814 99.2377 73.6992 99.9998 74.7675 99.9998H76.6897C77.3057 99.9998 77.8993 99.7407 78.3182 99.2892C78.7371 98.8377 78.9503 98.2264 78.9041 97.6124L75.7052 55.1855C77.9002 54.7637 79.8512 53.4779 81.1073 51.5689L83.0019 48.691C83.7786 47.5104 84.0367 46.1001 83.7283 44.72ZM29.5411 86.7403L31.487 76.3158L45.5203 81.1901L29.5411 86.7403ZM54.4404 81.1901L68.5 76.3066L70.4494 86.7506L54.4404 81.1901ZM80.5567 47.0821L78.6621 49.9602C77.652 51.4948 75.9522 52.411 74.1148 52.411H25.8507C24.0104 52.411 22.3079 51.4934 21.296 49.9563L19.4575 47.1634C18.7705 46.1192 19.0046 44.7085 19.9798 44.0186C20.4822 43.6631 21.091 43.5298 21.6939 43.6436C22.2971 43.7573 22.8152 44.1023 23.1525 44.6149L24.7718 47.0745C25.1214 47.6062 25.7101 47.9236 26.3463 47.9236H32.9583C33.7667 47.9236 34.4217 47.2684 34.4217 46.4603C34.4217 45.6521 33.7667 44.9969 32.9583 44.9969H26.9081L25.5971 43.0056C25.2133 42.4224 24.7277 41.9338 24.1673 41.5567L32.1447 7.10077C32.7139 4.64312 34.8732 2.9267 37.3958 2.9267H62.5934C65.116 2.9267 67.2751 4.64312 67.8443 7.10077L75.8266 41.5771C75.2385 41.9621 74.7177 42.468 74.3105 43.0865L73.053 44.9967H39.195C38.3866 44.9967 37.7316 45.6519 37.7316 46.4601C37.7316 47.2682 38.3866 47.9234 39.195 47.9234H73.6144C74.2508 47.9234 74.8393 47.606 75.1885 47.0749L76.7547 44.6956C77.4421 43.6512 78.8311 43.309 79.8498 43.9322C80.375 44.2533 80.7382 44.7598 80.8718 45.3584C81.006 45.9574 80.8941 46.5695 80.5567 47.0821Z" fill="black"/>
</g>
<defs>
<clipPath id="clip0">
<rect width="100" height="100" fill="white"/>
</clipPath>
</defs>
</svg>
