<svg width="100" height="100" viewBox="0 0 100 100" fill="none" xmlns="http://www.w3.org/2000/svg">
<g clip-path="url(#clip0)">
<path d="M98.5311 3.37773H93.0473V1.46875C93.0473 0.657617 92.3896 0 91.5783 0C90.767 0 90.1094 0.657617 90.1094 1.46875V3.37773H76.4203V1.46875C76.4203 0.657617 75.7627 0 74.9514 0C74.14 0 73.4824 0.657617 73.4824 1.46875V3.37773H59.7934V1.46875C59.7934 0.657617 59.1357 0 58.3244 0C57.5131 0 56.8555 0.657617 56.8555 1.46875V3.37773H43.1664V1.46875C43.1664 0.657617 42.5088 0 41.6975 0C40.8861 0 40.2285 0.657617 40.2285 1.46875V3.37773H26.5391V1.46875C26.5391 0.657617 25.8814 0 25.0701 0C24.2588 0 23.6012 0.657617 23.6012 1.46875V3.37773H9.91191V1.46875C9.91191 0.657617 9.2543 0 8.44297 0C7.63164 0 6.97402 0.657617 6.97402 1.46875V3.37773H1.46895C0.657617 3.37773 0 4.03535 0 4.84648C0 5.65762 0.657617 6.31523 1.46895 6.31523H6.97402V9.46895V95.0373C6.97402 95.308 7.04883 95.5734 7.19043 95.8043C7.29512 95.9756 9.83945 100 16.7564 100C20.3141 100 22.6836 98.9152 24.0449 98.0053C24.0559 97.998 24.5332 97.6758 25.0676 97.2082C26.4469 98.4289 29.0615 100 33.3834 100C36.941 100 39.3105 98.9152 40.6719 98.0053C40.6828 97.998 41.1604 97.6758 41.6947 97.2082C43.074 98.4289 45.6887 100 50.0107 100C52.4367 100 54.9164 99.4842 56.9986 98.1982C57.4678 97.9084 57.907 97.5711 58.3219 97.2082C59.7012 98.4289 62.3158 100 66.6379 100C69.0639 100 71.5436 99.4842 73.6258 98.1982C74.0949 97.9084 74.5342 97.5711 74.949 97.2082C76.3281 98.4289 78.9428 100 83.2646 100C86.8223 100 89.1918 98.9152 90.5531 98.0053C90.5779 97.9885 93.0471 96.323 93.0471 95.0373V9.46895V6.31523H98.5309C99.3422 6.31523 99.9998 5.65762 99.9998 4.84648C100 4.03535 99.3424 3.37773 98.5311 3.37773ZM9.91191 6.31523H23.601V8.97617C22.9756 9.69707 20.9916 11.4941 16.7564 11.4941C12.5078 11.4941 10.525 9.68555 9.91191 8.97852V6.31523ZM40.2283 94.5447C39.602 95.2662 37.617 97.0627 33.3836 97.0627C29.1486 97.0627 27.1646 95.2654 26.5391 94.5445V34.3344C26.5391 33.5232 25.8814 32.8656 25.0701 32.8656C24.2588 32.8656 23.6012 33.5232 23.6012 34.3344V94.5447C22.975 95.266 20.99 97.0625 16.7566 97.0625C12.5104 97.0625 10.5266 95.2553 9.91211 94.5473V12.7127C11.4297 13.6215 13.6533 14.4318 16.7566 14.4318C19.8602 14.4318 22.0836 13.6215 23.6012 12.7127V28.4596C23.6012 29.2707 24.2588 29.9283 25.0701 29.9283C25.8814 29.9283 26.5391 29.2707 26.5391 28.4596V12.7109C28.0566 13.6203 30.2783 14.4318 33.3836 14.4318C36.4875 14.4318 38.7107 13.6217 40.2283 12.7127V94.5447ZM40.2283 8.97617C39.6027 9.69707 37.6187 11.4941 33.3836 11.4941C29.135 11.4941 27.1521 9.68555 26.5391 8.97852V6.31523H40.2283V8.97617ZM59.7932 6.31523H73.4822V8.97617C72.8566 9.69707 70.8727 11.4941 66.6377 11.4941C62.3891 11.4941 60.4062 9.68574 59.7932 8.97852V6.31523ZM43.1662 6.31523H56.8553V8.97617C56.2297 9.69707 54.2457 11.4941 50.0107 11.4941C45.7621 11.4941 43.7793 9.68574 43.1662 8.97852V6.31523ZM90.1092 94.5447C89.483 95.266 87.498 97.0625 83.2646 97.0625C79.0297 97.0625 77.0457 95.2652 76.4201 94.5443V34.3344C76.4201 33.5232 75.7625 32.8656 74.9512 32.8656C74.1398 32.8656 73.4822 33.5232 73.4822 34.3344V94.5447C72.8559 95.266 70.8709 97.0625 66.6377 97.0625C62.4025 97.0625 60.4186 95.2652 59.7932 94.5445V76.2766C59.7932 75.4654 59.1355 74.8078 58.3242 74.8078C57.5129 74.8078 56.8553 75.4654 56.8553 76.2766V94.5447C56.2289 95.266 54.2439 97.0625 50.0107 97.0625C45.7756 97.0625 43.7916 95.2652 43.1662 94.5445V12.7109C44.6838 13.6203 46.9055 14.4316 50.0107 14.4316C53.1141 14.4316 55.3377 13.6213 56.8553 12.7125V70.4016C56.8553 71.2127 57.5129 71.8703 58.3242 71.8703C59.1355 71.8703 59.7932 71.2127 59.7932 70.4016V12.7109C61.3107 13.6203 63.5324 14.4316 66.6377 14.4316C69.741 14.4316 71.9647 13.6213 73.4822 12.7125V28.4594C73.4822 29.2705 74.1398 29.9281 74.9512 29.9281C75.7625 29.9281 76.4201 29.2705 76.4201 28.4594V12.7109C77.9377 13.6203 80.1594 14.4318 83.2646 14.4318C86.3684 14.4318 88.5916 13.6215 90.1092 12.7127V94.5447ZM90.1092 8.97617C89.4838 9.69707 87.4998 11.4941 83.2646 11.4941C79.016 11.4941 77.0332 9.68555 76.4201 8.97852V6.31523H90.1092V8.97617Z" fill="black"/>
</g>
<defs>
<clipPath id="clip0">
<rect width="100" height="100" fill="white"/>
</clipPath>
</defs>
</svg>
