<svg width="100" height="100" viewBox="0 0 100 100" fill="none" xmlns="http://www.w3.org/2000/svg">
<path d="M45.4049 87.4405C45.1603 87.2024 44.8474 87.0465 44.5099 86.9949V86.9932L40.8443 86.4309L39.1902 82.8981C38.807 82.0778 37.8314 81.7235 37.0111 82.1067C36.6627 82.2694 36.3826 82.5496 36.2197 82.8981L34.5656 86.4309L30.9 86.9932C30.0051 87.1305 29.3908 87.9672 29.5281 88.8621C29.5799 89.1996 29.7357 89.5125 29.9738 89.7572L32.6754 92.5326L32.0344 96.467C31.8877 97.3604 32.4931 98.2037 33.3865 98.3504C33.7502 98.41 34.1234 98.3455 34.4459 98.167L37.7049 96.3653L40.964 98.1686C41.7562 98.6069 42.7537 98.3203 43.192 97.5281C43.3705 97.2055 43.4351 96.8324 43.3754 96.4686L42.7345 92.5342L45.4361 89.7588C46.0677 89.11 46.0537 88.0721 45.4049 87.4405ZM39.8099 90.8375C39.4474 91.2094 39.2824 91.7313 39.3656 92.244L39.5967 93.6653L38.4984 93.0555C38.0047 92.7824 37.4051 92.7824 36.9115 93.0555L35.8131 93.6653L36.0443 92.244C36.1275 91.7313 35.9625 91.2094 35.6 90.8375L34.5443 89.7522L35.9279 89.5391C36.4687 89.4559 36.9324 89.1086 37.164 88.6129L37.7049 87.4653L38.2459 88.6129C38.4775 89.1086 38.9412 89.4559 39.482 89.5391L40.8656 89.7522L39.8099 90.8375Z" fill="black"/>
<path d="M66.7163 80.1061C66.4717 79.868 66.1588 79.7121 65.8213 79.6604V79.6588L59.8901 78.7506L57.2213 73.067C56.836 72.2475 55.8596 71.8957 55.0403 72.2807C54.6946 72.4432 54.4166 72.7213 54.2541 73.067L51.5852 78.7506L45.6541 79.6588C44.7592 79.7959 44.1448 80.6328 44.2821 81.5276C44.334 81.8651 44.4897 82.1781 44.7278 82.4227L49.0688 86.8719L48.0409 93.1736C47.8952 94.0672 48.5014 94.9096 49.395 95.0553C49.7581 95.1145 50.1305 95.05 50.4524 94.8719L55.7377 91.9424L61.0229 94.8637C61.8125 95.307 62.8116 95.0262 63.2549 94.2367C63.4375 93.9113 63.5036 93.5334 63.4426 93.1652L62.4065 86.8717L66.7475 82.4242C67.3791 81.7756 67.3651 80.7377 66.7163 80.1061ZM59.4819 85.167C59.1188 85.5393 58.9541 86.0619 59.0377 86.5752L59.6557 90.3621L56.5311 88.6342C56.0375 88.3611 55.4379 88.3611 54.9442 88.6342L51.8196 90.3621L52.4377 86.5752C52.5213 86.0619 52.3565 85.5393 51.9934 85.167L49.3032 82.4096L52.9459 81.8522C53.4866 81.7715 53.9508 81.4248 54.1819 80.9293L55.7377 77.6162L57.2934 80.9293C57.5245 81.4248 57.9887 81.7715 58.5295 81.8522L62.1721 82.4096L59.4819 85.167Z" fill="black"/>
<path d="M98.3607 9.8227H90.8426L95.7607 4.90466H98.3607C99.266 4.90466 100 4.17065 100 3.26532C100 2.35999 99.266 1.62598 98.3607 1.62598H1.63934C0.734016 1.62598 0 2.35999 0 3.26532C0 4.17065 0.734016 4.90466 1.63934 4.90466H9.15738L4.23934 9.8227H1.63934C0.734016 9.8227 0 10.5567 0 11.462C0 12.3674 0.734016 13.1014 1.63934 13.1014H6.62459L6.55738 19.3588L3.57377 22.4866C0.853279 25.3403 0.957582 29.8579 3.80656 32.5834L10.4951 38.9768C10.8 39.269 11.2057 39.4321 11.6279 39.4325H11.6656C11.8617 39.4233 12.0547 39.3801 12.2361 39.3047L30.5098 65.5604L21.3951 92.9047C21.109 93.7647 21.5744 94.694 22.4344 94.9801C23.2945 95.2661 24.2238 94.8008 24.5098 93.9407L32.8492 68.9194L38.0016 76.326C38.5186 77.0692 39.5404 77.2528 40.2836 76.7358C41.0268 76.2188 41.2104 75.1971 40.6934 74.4538L34.1361 65.0391L44.1738 34.9243C44.2242 34.7588 44.2473 34.586 44.2426 34.4129H54.1131C54.1078 34.6022 54.1363 34.7907 54.1967 34.9702L61.3262 54.7178L54.3951 64.6211C53.8539 65.3469 54.0037 66.3741 54.7295 66.9151C55.4553 67.4561 56.4826 67.3065 57.0236 66.5807C57.0432 66.5543 57.0621 66.5272 57.0803 66.4997L62.6885 58.4883L75.5082 93.9866C75.7428 94.6358 76.359 95.0684 77.0492 95.0686C77.2393 95.0688 77.4281 95.0356 77.6066 94.9702C78.4574 94.662 78.8975 93.7229 78.5902 92.8719L64.9836 55.203L79.5311 34.4227L89.9607 37.9883L78.7311 83.1981C78.5127 84.0768 79.0477 84.9661 79.9264 85.1846C79.9268 85.1848 79.9275 85.1848 79.9279 85.185C80.0588 85.2163 80.193 85.2323 80.3279 85.2325C81.0807 85.2321 81.7367 84.719 81.918 83.9883L93.0852 39.0227C93.1971 39.0536 93.3121 39.0729 93.4279 39.0801C94.1289 39.0799 94.7523 38.6338 94.9787 37.9702L97.9738 29.2178C99.2488 25.4862 97.2586 21.4276 93.5279 20.1506L93.4426 20.1194V13.1014H98.3607C99.266 13.1014 100 12.3674 100 11.462C100 10.5567 99.266 9.8227 98.3607 9.8227ZM91.1246 4.90466L86.8852 9.14401L82.6459 4.90466H91.1246ZM82.9279 9.8227H74.4492L78.6885 5.58335L82.9279 9.8227ZM74.7311 4.90466L70.4918 9.14401L66.2525 4.90466H74.7311ZM66.5344 9.8227H58.0557L62.2951 5.58335L66.5344 9.8227ZM58.3377 4.90466L54.0984 9.14401L49.859 4.90466H58.3377ZM50.141 9.8227H41.6623L45.9016 5.58335L50.141 9.8227ZM41.9443 4.90466L37.7049 9.14401L33.4656 4.90466H41.9443ZM33.7475 9.8227H25.2689L29.5082 5.58335L33.7475 9.8227ZM25.5508 4.90466L21.3115 9.14401L17.0721 4.90466H25.5508ZM13.1148 5.58335L17.3541 9.8227H8.87541L13.1148 5.58335ZM11.5754 35.4702L6.06557 30.2129C4.52336 28.7383 4.4668 26.2932 5.93934 24.7489L9.67213 20.8538C10.3764 20.1118 11.3477 19.6817 12.3705 19.6588H12.459C13.4533 19.6565 14.4094 20.0403 15.1262 20.7293L20.6295 25.9834L11.5754 35.4702ZM31.8033 61.6866L14.6377 37.0096L21.4426 29.8834L38.4639 40.7145C38.5555 40.7659 38.6516 40.8094 38.7508 40.844L31.8033 61.6866ZM40.9 34.3965L39.8049 37.6752L23.7525 27.4604L24.1361 27.0588C24.7613 26.4038 24.7371 25.3661 24.0822 24.7409L24.082 24.7407L17.3934 18.3473C16.0318 17.0262 14.1912 16.3159 12.2951 16.3801C11.4619 16.4053 10.6395 16.5768 9.86557 16.8866L9.90492 13.1014H47.541V16.3801H46.4869C42.5443 16.3854 39.3496 19.5803 39.3443 23.5227V32.7735C39.3469 33.643 40.0316 34.3571 40.9 34.3965ZM55.7377 31.1342H42.6229V23.5227C42.6266 21.3901 44.3543 19.6625 46.4869 19.6588H51.8738C54.0064 19.6625 55.734 21.3901 55.7377 23.5227V31.1342ZM79.3607 22.8522L76.3672 31.6063C76.2262 32.0178 76.2545 32.4682 76.4459 32.8588C76.4705 32.9063 76.5131 32.9375 76.541 32.9834L63.6262 51.4325L57.4738 34.3932C58.3363 34.3479 59.0133 33.637 59.0164 32.7735V23.5227C59.0111 19.5801 55.8162 16.3854 51.8738 16.3801H50.8197V13.1014H90.1639V19.003L88.4311 18.4096C84.7 17.1389 80.6441 19.1256 79.3607 22.8522ZM94.8803 28.1588L92.4213 35.3588L80 31.1145L82.459 23.9211C83.1463 21.8989 85.3426 20.8166 87.365 21.5038C87.3691 21.5053 87.3732 21.5065 87.377 21.5079L92.4754 23.2506C94.4939 23.943 95.5701 26.1395 94.8803 28.1588Z" fill="black"/>
</svg>
