<svg width="84" height="67" viewBox="0 0 84 67" fill="none" xmlns="http://www.w3.org/2000/svg">
<g clip-path="url(#clip0)">
<path fill-rule="evenodd" clip-rule="evenodd" d="M2.11182 9.26221L15.9396 1.41125H26.454L13.7944 9.26221H2.11182Z" fill="white" stroke="black" stroke-width="2.82249" stroke-miterlimit="22.9256" stroke-linejoin="bevel"/>
<path fill-rule="evenodd" clip-rule="evenodd" d="M13.7944 9.26221L26.454 1.41125L31.9194 16.9131L19.8668 26.4867L13.7944 9.26221Z" fill="white" stroke="black" stroke-width="2.82249" stroke-miterlimit="22.9256" stroke-linejoin="bevel"/>
<path fill-rule="evenodd" clip-rule="evenodd" d="M25.7644 9.26221L37.2271 1.41125H47.6118L37.3029 9.26221H25.7644Z" fill="white" stroke="black" stroke-width="2.82249" stroke-miterlimit="22.9256" stroke-linejoin="bevel"/>
<path fill-rule="evenodd" clip-rule="evenodd" d="M37.3029 9.26221L47.6117 1.41125L38.0239 25.8135L26.6499 36.3756L37.3029 9.26221Z" fill="white" stroke="black" stroke-width="2.82249" stroke-miterlimit="22.9256" stroke-linejoin="bevel"/>
<path fill-rule="evenodd" clip-rule="evenodd" d="M19.6593 47.2553L31.7324 35.6049L25.6354 51.7868L12.885 65.2349L19.6593 47.2553Z" fill="white" stroke="black" stroke-width="2.82249" stroke-miterlimit="22.9256" stroke-linejoin="bevel"/>
<path fill-rule="evenodd" clip-rule="evenodd" d="M26.6499 36.3756L38.0239 25.8135L48.5164 51.7867L38.3086 65.2349L26.6499 36.3756Z" fill="white" stroke="black" stroke-width="2.82249" stroke-miterlimit="22.9256" stroke-linejoin="bevel"/>
<path fill-rule="evenodd" clip-rule="evenodd" d="M38.3481 9.26221L48.5525 1.41125H58.5139L49.4162 9.26221H38.3481Z" fill="white" stroke="black" stroke-width="2.82249" stroke-miterlimit="22.9256" stroke-linejoin="bevel"/>
<path fill-rule="evenodd" clip-rule="evenodd" d="M49.4163 9.26221L58.5139 1.41125L65.4657 37.6688L57.1409 49.548L49.4163 9.26221Z" fill="white" stroke="black" stroke-width="2.82249" stroke-miterlimit="22.9256" stroke-linejoin="bevel"/>
<path fill-rule="evenodd" clip-rule="evenodd" d="M64.7535 9.26221L72.3177 1.41125H81.9917L75.5028 9.26221H64.7535Z" fill="white" stroke="black" stroke-width="2.82249" stroke-miterlimit="22.9256" stroke-linejoin="bevel"/>
<path fill-rule="evenodd" clip-rule="evenodd" d="M75.5029 9.26221L81.9917 1.41125L70.5365 51.7867L62.775 65.2349L75.5029 9.26221Z" fill="white" stroke="black" stroke-width="2.82249" stroke-miterlimit="22.9256" stroke-linejoin="bevel"/>
<path d="M2.11184 9.26221H13.7944L19.8668 26.4867L25.7637 9.26221H37.3029L26.6499 36.3756L38.3086 65.2355H26.3864L19.6592 47.2553L12.8843 65.2355H1.05835L12.8768 36.0636L2.11184 9.26289V9.26221ZM38.3482 9.26221H49.4163L57.1409 49.548L64.7536 9.26221H75.5022L62.7743 65.2355H51.2993L38.3482 9.26221V9.26221Z" fill="white"/>
<path d="M2.11184 9.26221H13.7944L19.8668 26.4867L25.7637 9.26221H37.3029L26.6499 36.3756L38.3086 65.2355H26.3864L19.6592 47.2553L12.8843 65.2355H1.05835L12.8768 36.0636L2.11184 9.26289V9.26221ZM38.3482 9.26221H49.4163L57.1409 49.548L64.7536 9.26221H75.5022L62.7743 65.2355H51.2993L38.3482 9.26221V9.26221Z" stroke="black" stroke-width="2.11653" stroke-miterlimit="22.9256" stroke-linejoin="round"/>
</g>
<defs>
<clipPath id="clip0">
<rect width="83.3676" height="66.2938" fill="white"/>
</clipPath>
</defs>
</svg>
