<svg width="100" height="100" viewBox="0 0 100 100" fill="none" xmlns="http://www.w3.org/2000/svg">
<g clip-path="url(#clip0)">
<path fill-rule="evenodd" clip-rule="evenodd" d="M3.15077 10.0765H32.0563V13.0469H3.05132V45.3749H36.2651V29.8324H39.3167V45.1675C39.3167 46.9151 37.8988 48.3449 36.1659 48.3449H3.15048C1.4176 48.3449 -0.000244141 46.9151 -0.000244141 45.1675V13.2539C-0.000244141 11.5064 1.4176 10.0765 3.15048 10.0765H3.15077Z" fill="black"/>
<path fill-rule="evenodd" clip-rule="evenodd" d="M6.57556 16.4764H28.974V19.4768H9.65813V38.9445H29.6591V35.5656H32.7417V41.9446H6.57556V16.4764Z" fill="black"/>
<path fill-rule="evenodd" clip-rule="evenodd" d="M96.8494 10.0765H67.9438V13.0469H96.9488V45.3749H63.735V29.8324H60.6835V45.1675C60.6835 46.9151 62.1013 48.3449 63.8342 48.3449H96.8497C98.5825 48.3449 100 46.9151 100 45.1675V13.2539C100 11.5064 98.5825 10.0765 96.8497 10.0765H96.8494Z" fill="black"/>
<path fill-rule="evenodd" clip-rule="evenodd" d="M93.4245 16.4764H71.0261V19.4768H90.342V38.9445H70.341V35.5656H67.2584V41.9446H93.4245V16.4764Z" fill="black"/>
<path fill-rule="evenodd" clip-rule="evenodd" d="M45.0989 32.3013C45.6005 25.9494 45.1085 19.2583 49.8617 19.4158C54.236 19.5607 53.8326 26.1373 54.2889 32.2942L45.0989 32.3013ZM57.8966 28.9855C58.1098 26.2294 58.3994 23.5956 58.6475 20.879C59.2422 14.3658 65.7063 14.2357 66.3554 21.1861C66.5941 23.7431 66.8916 26.4179 67.0457 28.9855H57.8966ZM32.3243 28.9855C32.5358 26.2532 32.7938 23.5821 33.0638 20.8787C33.7137 14.3717 40.1772 14.1755 40.7801 21.2436C41.0024 23.8481 41.3166 26.3751 41.4912 28.987L32.3246 28.9855H32.3243ZM51.3368 3.19103L60.8303 3.2102L60.8408 13.2126C57.0872 14.1153 56.8897 15.8077 55.4927 19.2834C53.2043 15.9788 51.5755 17.4122 51.3336 15.7201V9.08859L51.3366 3.19103H51.3368ZM38.5479 3.1869L48.0521 3.19103C48.0519 22.2678 48.9391 13.2896 43.8861 19.2772C42.64 15.7649 42.205 14.0861 38.5432 13.2079L38.5684 6.14099L38.5482 3.1866L38.5479 3.1869ZM32.0803 3.20401L35.2653 3.21286L35.2498 13.2112C31.6959 14.0498 30.2635 16.3502 29.8964 20.5672C29.557 24.4667 29.1891 28.3775 28.7538 32.2313C33.1135 32.2824 37.4524 32.2901 41.8095 32.3113L41.5805 35.4719L57.7769 35.5144L57.5704 32.3378C62.0817 32.2682 64.7565 32.2945 70.6361 32.2871C70.2813 28.3185 69.8451 24.4783 69.4994 20.5436C69.1284 16.3237 67.689 14.0649 64.1196 13.2079V3.19073L67.3166 3.14707L67.2762 0.0602301L32.0946 -0.000244141L32.0803 3.20371V3.20401Z" fill="black"/>
<path fill-rule="evenodd" clip-rule="evenodd" d="M4.0184 65.2502C4.79182 64.401 6.82834 64.1605 8.03849 64.8933C9.64559 65.8662 12.9256 77.528 13.8602 80.3957C14.0743 81.0523 14.2525 81.7745 14.4669 82.3715C15.4723 85.1711 16.26 83.5831 26.8834 83.863C31.9376 83.9961 32.8035 88.4207 31.4699 89.6299C30.4238 90.8052 23.1506 90.258 21.0161 90.258C8.92541 90.2574 11.3636 91.7279 5.44589 73.7715C4.71606 71.5564 2.51368 66.9025 4.01869 65.2502H4.0184ZM11.6947 64.1756C9.00059 58.9235 -1.30077 60.851 0.388532 68.5937C0.93174 71.0829 2.28669 74.3586 3.10194 76.8822C4.44665 81.0452 6.4507 89.8326 9.91061 92.1409C12.5664 93.9127 15.6589 93.4519 19.3081 93.4519L19.3721 96.7736L12.9648 96.7738L13.0739 100.001L28.9261 99.9218L28.9583 96.8036L22.4951 96.7544L22.4828 93.461C24.9751 93.4864 31.0799 93.8873 32.8818 92.8946C35.3688 91.5244 35.9267 88.1269 34.4831 85.0339C31.8925 79.4841 23.9287 80.475 17.1885 80.562L11.6944 64.1762L11.6947 64.1756Z" fill="black"/>
<path fill-rule="evenodd" clip-rule="evenodd" d="M83.8504 83.8728C85.1863 83.2238 86.5343 77.4431 87.0035 76.0017C88.1542 72.4665 89.7549 65.4397 91.8429 64.665C93.2104 64.1576 94.9436 64.5635 95.5512 65.4471C96.7543 67.1976 94.6335 71.6269 93.9479 73.778C92.9729 76.8357 89.9503 87.9184 87.8644 89.3813C85.8167 90.8173 68.9577 90.6672 67.9292 89.6182C66.5862 88.4211 67.825 86.2434 68.5511 85.3938C70.6935 82.8867 79.0402 83.8725 83.8507 83.8725L83.8504 83.8728ZM80.1167 93.462C89.702 93.3764 90.9487 93.0782 93.6349 84.8841L99.0749 68.2979C100.363 60.8578 90.2022 58.6365 87.461 64.681C86.2631 67.3221 83.249 79.5874 81.6592 80.5633C74.7686 80.5633 67.2859 79.5895 64.8089 85.3065C63.4525 88.437 64.0913 91.7534 66.7474 93.0124C68.6429 93.911 74.4061 93.4313 76.8961 93.4667L76.8937 96.7361L70.4431 96.8898L70.5101 99.9888L86.362 99.9911L86.4082 96.7733H80.1L80.117 93.462H80.1167Z" fill="black"/>
<path fill-rule="evenodd" clip-rule="evenodd" d="M45.1267 96.773C44.1164 96.2222 44.2091 95.1942 43.9616 93.8844C42.6459 86.9216 39.9251 77.4094 38.9587 71.0142L60.4305 71.0213L56.1129 90.8905C55.8791 91.9619 55.5904 93.1274 55.3819 94.2053C54.7111 97.6724 55.3631 96.7727 45.127 96.7727L45.1267 96.773ZM38.643 99.9885L60.7891 99.9911L60.8324 96.7762L58.0877 96.742L63.7833 71.0234L67.3234 70.8859L67.3395 67.6781L32.0631 67.7601L32.0927 70.9269L35.6421 70.9824L41.2684 96.7541H38.5366L38.6433 99.9888L38.643 99.9885Z" fill="black"/>
</g>
<defs>
<clipPath id="clip0">
<rect width="100" height="100" fill="white"/>
</clipPath>
</defs>
</svg>
