<svg width="100" height="100" viewBox="0 0 100 100" fill="none" xmlns="http://www.w3.org/2000/svg">
<path d="M80.7251 62.6777V33.6928H75.3272V32.9318C76.7899 32.6342 78.5946 31.602 78.5946 28.0174C78.5946 24.527 75.42 19.935 75.0577 19.423L73.8612 17.7305L72.6647 19.423C72.3026 19.9352 69.128 24.5271 69.128 28.0174C69.128 31.6027 70.9335 32.6346 72.3961 32.932V33.6928H66.9985V62.6777H65.6461V66.025C65.6461 70.0107 68.5 73.3416 72.2713 74.0844C71.6563 77.3141 68.8131 79.7641 65.4073 79.7641H52.3895V74.123C56.7985 73.4186 60.1786 69.59 60.1786 64.9859V59.807H58.6182V21.1824H52.3895V19.2225C54.953 18.7168 56.1604 16.7475 56.1604 13.1324C56.1604 8.60664 52.337 2.30762 52.1741 2.0418L50.9249 0L49.6752 2.0418C49.5124 2.30742 45.6889 8.60664 45.6889 13.1324C45.6889 16.7475 46.8963 18.7168 49.4598 19.2225V21.1826H43.2311V59.8072H41.6709V64.9861C41.6709 69.5904 45.0512 73.4187 49.4598 74.1232V79.7643H36.9108C33.4692 79.7643 30.603 77.2633 30.0286 73.9836C33.5745 73.0738 36.203 69.8506 36.203 66.0252V62.6777H34.8506V33.6928H29.453V32.9318C30.9157 32.6342 32.7204 31.602 32.7204 28.0174C32.7204 24.527 29.5458 19.935 29.1834 19.423L27.987 17.7305L26.7905 19.423C26.4284 19.9352 23.2538 24.5271 23.2538 28.0174C23.2538 31.6027 25.0592 32.6346 26.5219 32.932V33.6928H21.1241V62.6777H19.7717V66.025C19.7717 70.2527 22.9823 73.7436 27.0932 74.1906C27.7825 78.9918 31.9211 82.6943 36.91 82.6943H49.459V91.9168H35.3284V100H66.5202V91.917H52.3895V82.6945H65.4073C70.4194 82.6945 74.5723 78.9572 75.2327 74.1238C79.1118 73.4689 82.0766 70.0879 82.0766 66.0252V62.6777H80.7251ZM26.1844 28.0176C26.1844 26.5959 27.1104 24.5867 27.9846 23.0361C28.854 24.5844 29.7895 26.6084 29.7895 28.0176C29.7895 28.9496 29.6292 29.6203 29.3495 29.8578C29.1364 30.0387 28.7032 30.1227 27.9866 30.1227C27.27 30.1227 26.8372 30.0385 26.6239 29.8578C26.3448 29.6203 26.1844 28.9498 26.1844 28.0176ZM24.0549 36.6232H31.9198V62.6777H24.0549V36.6232ZM27.9875 71.31C25.0735 71.31 22.7028 68.9393 22.7028 66.0252V65.6082H33.2723V66.0252C33.2723 68.9391 30.9014 71.31 27.9875 71.31ZM48.6192 13.1324C48.6192 11.0135 49.8422 8.03535 50.9249 5.86172C52.0075 8.03555 53.2305 11.0135 53.2305 13.1324C53.2305 16.425 52.2635 16.425 50.9249 16.425C49.5862 16.425 48.6192 16.4248 48.6192 13.1324ZM46.1614 24.1129H55.6885V59.807H46.1614V24.1129ZM44.601 64.9859V62.7375H57.2487V64.9859C57.2487 68.473 54.4118 71.3098 50.9249 71.3098C47.4379 71.3098 44.601 68.4729 44.601 64.9859ZM63.5903 94.8475V97.0695H38.2594V94.8475H63.5903ZM72.0588 28.0176C72.0588 26.5959 72.9848 24.5867 73.859 23.0361C74.7284 24.5844 75.6639 26.6084 75.6639 28.0176C75.6639 28.9496 75.5036 29.6203 75.2239 29.8578C75.0108 30.0387 74.5776 30.1227 73.861 30.1227C73.1444 30.1227 72.7114 30.0385 72.4983 29.8578C72.2196 29.6203 72.0588 28.9498 72.0588 28.0176ZM69.9297 36.6232H77.795V62.6777H69.9297V36.6232ZM79.1469 66.025C79.1469 68.9391 76.7762 71.3098 73.8622 71.3098C70.9481 71.3098 68.5774 68.9391 68.5774 66.025V65.608H79.1469V66.025Z" fill="black"/>
</svg>
