<svg width="100" height="81" viewBox="0 0 100 81" fill="none" xmlns="http://www.w3.org/2000/svg">
<g clip-path="url(#clip0)">
<path fill-rule="evenodd" clip-rule="evenodd" d="M92.4647 7.05283e-06C64.155 8.4634e-05 35.8452 7.05283e-06 7.53544 7.05283e-06C3.38139 7.05283e-06 0.000244141 3.38116 0.000244141 7.5352V43.9623C0.000244141 44.7898 0.670299 45.4599 1.49781 45.4599C3.10772 45.4599 4.64833 45.1565 6.03278 44.3087C7.07456 43.6707 7.84532 42.8423 8.65107 41.9424C10.1802 40.2345 11.1405 39.4221 13.5731 39.4221C16.0428 39.4221 17.0284 40.2553 18.614 41.9625C19.4446 42.8568 20.2397 43.6808 21.298 44.3149C22.6947 45.1519 24.2331 45.4597 25.8496 45.4597C27.4594 45.4597 29.0001 45.1563 30.3846 44.3086C31.4263 43.6706 32.1971 42.8422 33.0029 41.9424C34.532 40.2346 35.4924 39.4221 37.9248 39.4221C39.6514 39.4221 40.8074 39.8409 42.0187 41.0505L42.465 41.4962V66.7356C42.465 72.5689 37.7206 77.3136 31.8871 77.3134L25.8495 77.3132C25.0221 77.3132 24.352 77.9833 24.352 78.8108C24.352 79.6384 25.022 80.3084 25.8496 80.3084L74.1506 80.3083C74.9781 80.3083 75.6481 79.6382 75.6481 78.8107C75.6481 77.9832 74.9781 77.3132 74.1506 77.3132L68.1129 77.3132C62.2796 77.3132 57.5352 72.5689 57.5352 66.7355V41.4961L57.9814 41.0504C59.1927 39.8407 60.3487 39.4219 62.0753 39.4219C64.5079 39.4219 65.4681 40.2344 66.9973 41.9421C67.803 42.842 68.5738 43.6704 69.6156 44.3084C71 45.1562 72.5406 45.4596 74.1506 45.4596C75.7604 45.4596 77.3011 45.1562 78.6855 44.3084C79.7273 43.6705 80.4981 42.842 81.3038 41.9422C82.8329 40.2344 83.7933 39.4219 86.2258 39.4219C88.6955 39.4219 89.6812 40.2552 91.2668 41.9624C92.0947 42.8538 92.8876 43.6756 93.9413 44.309C95.3298 45.1438 96.8583 45.4549 98.4668 45.4596C98.4787 45.4597 98.4906 45.4598 98.5023 45.4598C99.3299 45.4598 99.9999 44.7898 99.9999 43.9622V7.53511C99.9999 3.38107 96.6188 0 92.4647 0L92.4647 7.05283e-06ZM7.53551 2.99505H92.4647C94.969 2.99505 97.0049 5.03092 97.0049 7.5352V28.2426L94.4432 25.8411C94.1009 25.5203 93.7806 25.1738 93.4614 24.8301C92.6309 23.9358 91.8357 23.1119 90.7776 22.4778C89.3809 21.6409 87.8424 21.333 86.2259 21.333C84.6161 21.333 83.0754 21.6364 81.6909 22.4842C80.6491 23.1221 79.8784 23.9505 79.0726 24.8503C77.5435 26.5581 76.5831 27.3706 74.1507 27.3706C71.7181 27.3706 70.7579 26.5581 69.2287 24.8504C68.4229 23.9505 67.6522 23.1221 66.6104 22.4842C65.2259 21.6364 63.6852 21.333 62.0754 21.333C60.4656 21.333 58.9249 21.6364 57.5404 22.4842C56.4986 23.1221 55.7279 23.9505 54.9221 24.8503C53.393 26.5581 52.4327 27.3706 50.0002 27.3706C47.5677 27.3706 46.6074 26.5581 45.0782 24.8504C44.2725 23.9505 43.5017 23.1221 42.4599 22.4842C41.0755 21.6364 39.5348 21.333 37.925 21.333C36.3151 21.333 34.7744 21.6364 33.39 22.4842C32.3481 23.1221 31.5775 23.9505 30.7717 24.8503C29.2426 26.5581 28.2822 27.3706 25.8497 27.3706C23.38 27.3706 22.3944 26.5374 20.8088 24.8302C19.9781 23.9359 19.183 23.1119 18.1248 22.4778C16.7281 21.6409 15.1897 21.333 13.5732 21.333C11.9633 21.333 10.4226 21.6364 9.03813 22.4842C7.99635 23.1221 7.22567 23.9505 6.41999 24.8504C6.14965 25.1524 5.87871 25.4557 5.59195 25.7421L2.99548 28.3361V7.5352C2.99548 5.031 5.03135 2.99505 7.53555 2.99505H7.53551ZM42.7386 74.8773C44.5108 72.5219 45.4601 69.6835 45.4601 66.7355V44.6061L47.3837 45.1337C48.2348 45.3672 49.1192 45.4595 50.0002 45.4595C50.8813 45.4595 51.7655 45.3671 52.6167 45.1337L54.5403 44.6063V66.7355C54.5403 69.6835 55.4896 72.522 57.2617 74.8773L59.0944 77.3132H40.9059L42.7386 74.8773H42.7386ZM93.4615 39.9242C92.6309 39.0299 91.8357 38.206 90.7775 37.5718C89.3808 36.7348 87.8424 36.427 86.2258 36.427C84.616 36.427 83.0753 36.7304 81.6909 37.5781C80.6491 38.2161 79.8783 39.0445 79.0726 39.9444C77.5434 41.6522 76.5831 42.4646 74.1506 42.4646C71.718 42.4646 70.7578 41.6522 69.2286 39.9444C68.4228 39.0445 67.6521 38.2162 66.6103 37.5781C65.2258 36.7304 63.6852 36.427 62.0753 36.427C60.4655 36.427 58.9248 36.7304 57.5404 37.5781C56.4986 38.2161 55.7278 39.0445 54.9221 39.9444C53.3929 41.6521 52.4326 42.4646 50.0001 42.4646C47.5676 42.4646 46.6074 41.6522 45.0782 39.9444C44.2724 39.0445 43.5016 38.2162 42.4599 37.5781C41.0754 36.7304 39.5348 36.427 37.9249 36.427C36.3151 36.427 34.7744 36.7304 33.3899 37.5781C32.3481 38.2161 31.5774 39.0445 30.7716 39.9444C29.2425 41.6522 28.2821 42.4646 25.8496 42.4646C23.3799 42.4646 22.3943 41.6314 20.8087 39.9242C19.9781 39.0299 19.183 38.2059 18.1247 37.5718C16.728 36.7348 15.1896 36.427 13.5731 36.427C11.9632 36.427 10.4226 36.7304 9.03813 37.5782C7.99627 38.2162 7.22559 39.0445 6.41991 39.9444C6.1495 40.2465 5.87886 40.5505 5.5921 40.8372L2.9954 43.4322V30.3469L4.11423 30.04C6.14273 29.4835 7.29723 28.3606 8.65119 26.8484C10.1803 25.1405 11.1406 24.3279 13.5732 24.3279C16.0429 24.3279 17.0285 25.1611 18.6141 26.8683C19.4448 27.7626 20.2399 28.5866 21.2981 29.2207C22.6948 30.0577 24.2332 30.3655 25.8497 30.3655C27.4595 30.3655 29.0002 30.0621 30.3847 29.2144C31.4265 28.5764 32.1972 27.748 33.003 26.8482C34.5321 25.1404 35.4925 24.3279 37.925 24.3279C40.3575 24.3279 41.3177 25.1404 42.847 26.8481C43.6527 27.748 44.4235 28.5763 45.4652 29.2144C46.8497 30.0621 48.3903 30.3655 50.0002 30.3655C51.61 30.3655 53.1507 30.0621 54.5351 29.2144C55.5769 28.5764 56.3477 27.748 57.1534 26.8482C58.6825 25.1404 59.6429 24.3279 62.0754 24.3279C64.5079 24.3279 65.4682 25.1404 66.9974 26.8481C67.8031 27.748 68.5739 28.5763 69.6157 29.2144C71.0001 30.0621 72.5407 30.3655 74.1507 30.3655C75.7605 30.3655 77.3012 30.0621 78.6856 29.2144C79.7274 28.5764 80.4982 27.748 81.3039 26.8482C82.833 25.1404 83.7934 24.3279 86.2259 24.3279C88.6956 24.3279 89.6812 25.1611 91.2669 26.8683C92.6562 28.3642 93.8449 29.4853 95.8832 30.0402L97.005 30.3456V43.3378L94.4432 40.9364C94.1008 40.6154 93.7809 40.268 93.4615 39.9242H93.4615Z" fill="black"/>
</g>
<defs>
<clipPath id="clip0">
<rect width="100" height="80.3084" fill="white"/>
</clipPath>
</defs>
</svg>
