<svg width="100" height="100" viewBox="0 0 100 100" fill="none" xmlns="http://www.w3.org/2000/svg">
<path d="M95.0128 40.6824H79.7491V33.0877C83.8069 32.3898 86.905 28.848 86.905 24.5941V14.9752C86.905 13.8363 85.9784 12.9099 84.8398 12.9099H71.729C70.5901 12.9099 69.6638 13.8365 69.6638 14.9752V24.5939C69.6638 28.8478 72.7618 32.3896 76.8196 33.0875V40.6822H61.556C60.2739 40.6822 59.231 41.7252 59.231 43.0074V44.7834C59.231 47.4929 61.4355 49.6974 64.145 49.6974H69.5665V52.0568C69.5665 53.0847 69.9376 54.0508 70.594 54.8009L69.7952 57.0031C69.2278 56.8402 68.6284 56.8845 68.089 57.1365C67.4976 57.4132 67.0495 57.9037 66.828 58.5164L62.9675 69.1629L60.7214 62.5451C59.0138 57.5121 55.2022 53.5 50.264 51.5373L43.0511 48.6701V43.2779C44.9159 41.9994 46.52 40.4433 47.2722 38.9779C47.6358 38.2697 47.9009 37.2035 48.0903 35.924H50.2425C53.0286 35.924 55.2952 33.6574 55.2952 30.8713C55.2952 29.6605 54.8665 28.5482 54.1532 27.6773C56.1083 22.4466 56.9456 18.6632 56.639 16.4281C56.3923 14.6299 55.3366 12.9861 53.586 11.6746C52.3788 10.7701 51.0854 10.2056 50.0995 9.92497C47.1063 5.84802 38.6099 0.346843 30.478 0.00192114C29.7456 -0.0303054 29.0616 0.34489 28.6903 0.978288C28.3169 1.61501 28.3251 2.40016 28.7103 3.02477C29.0735 3.61657 29.3632 4.10876 29.5972 4.52419C26.3095 3.64762 20.536 2.68923 15.0271 4.62985C14.4073 4.84704 13.9364 5.35622 13.7673 5.99196C13.5978 6.62946 13.754 7.30739 14.1882 7.80856C15.6423 9.47751 17.2116 11.024 18.162 11.9293C16.8188 14.4066 14.2224 20.7164 17.6136 27.8904C16.9999 28.7265 16.6364 29.7572 16.6364 30.8716C16.6364 33.6578 18.9022 35.9244 21.6872 35.9244H23.8382C24.0269 37.19 24.2915 38.2621 24.6589 38.9771C25.4104 40.4435 27.0149 42.0006 28.8804 43.2795V48.2761C23.5179 48.839 18.2909 52.5084 12.9483 59.4463C12.4548 60.0873 12.5741 61.007 13.2153 61.5006C13.4815 61.7056 13.796 61.8049 14.1079 61.8049C14.547 61.8049 14.9812 61.6084 15.2696 61.2336C17.3411 58.5435 19.3649 56.4025 21.3585 54.7947L23.3571 66.3187C23.7771 68.7398 23.1103 71.2431 21.5704 73.1357H19.5657V68.9437C19.5657 68.1347 18.9099 67.4789 18.1009 67.4789C17.2919 67.4789 16.636 68.1347 16.636 68.9437V73.1414C13.6731 73.2578 11.2981 75.7033 11.2981 78.6941V84.3853C8.09971 84.0738 5.5915 81.3695 5.5915 78.0896C5.5915 76.9115 5.95967 75.6964 6.65576 74.5761C7.14326 73.7922 10.2056 68.6646 11.3493 66.8744C11.7849 66.1927 11.5853 65.2869 10.9034 64.8513C10.2218 64.4158 9.31592 64.6152 8.88037 65.2972C7.71279 67.1246 6.66768 68.8746 5.74561 70.4185C5.17783 71.3693 4.6415 72.2674 4.16748 73.0295C3.18232 74.6146 2.66162 76.3644 2.66162 78.0896C2.66162 82.9855 6.48252 87.0035 11.2979 87.3226V89.0515C11.2979 89.8605 11.9538 90.5164 12.7628 90.5164C13.5718 90.5164 14.2276 89.8605 14.2276 89.0515V78.6941C14.2276 77.2447 15.4069 76.0654 16.8563 76.0654H32.4089V97.0703H28.1192V89.9291C28.1192 89.1201 27.4634 88.4642 26.6544 88.4642C25.8454 88.4642 25.1896 89.1201 25.1896 89.9291V97.0703H21.447V94.232C21.447 93.423 20.7911 92.7672 19.9821 92.7672C19.1731 92.7672 18.5173 93.423 18.5173 94.232V97.0703H14.228V95.8877C14.228 95.0787 13.5722 94.4228 12.7632 94.4228C11.9542 94.4228 11.2983 95.0787 11.2983 95.8877V98.1347C11.2983 99.1633 12.1351 99.9998 13.1634 99.9998H52.8296C54.1898 99.9998 55.2964 98.8941 55.2964 97.5349V88.8666C56.9028 91.8441 60.047 93.7144 63.4198 93.7144C63.8995 93.7144 64.3841 93.6765 64.8689 93.5988C68.1722 93.0687 70.9325 90.7857 72.0728 87.6406L76.8829 74.3724C77.1587 73.6119 76.7655 72.7718 76.005 72.4961C75.2442 72.2199 74.4042 72.6133 74.1286 73.374L69.3185 86.6422C68.5407 88.7875 66.6577 90.3447 64.4048 90.7062C61.4681 91.1777 58.5761 89.4996 57.5272 86.717L55.2964 80.7992V77.9238C55.2964 77.9138 55.2948 77.9043 55.2946 77.8943V68.9437C55.2946 68.1347 54.6388 67.4789 53.8298 67.4789C53.0208 67.4789 52.3649 68.1347 52.3649 68.9437V74.9646L51.7909 74.5271C49.2632 72.5965 48.0304 69.4511 48.5735 66.3185L50.5546 54.8896C54.0228 56.684 56.6778 59.7476 57.9464 63.4865L61.3694 73.5715L60.1187 77.0217C59.8429 77.7822 60.236 78.6222 60.9966 78.898C61.1614 78.9578 61.33 78.9861 61.4958 78.9861C62.0948 78.9861 62.6571 78.6158 62.873 78.0201L68.1976 63.333C68.1983 63.331 68.1987 63.3291 68.1993 63.3273L69.4155 59.973L77.8753 63.0408L76.4585 66.9457C76.1825 67.7062 76.5753 68.5463 77.3358 68.8222C78.0962 69.0984 78.9366 68.7054 79.2124 67.9449L80.7962 63.5797C81.0187 62.9668 80.9888 62.3039 80.7122 61.7129C80.4593 61.1724 80.0263 60.7541 79.486 60.5168L81.0384 56.2341H82.1401C85.3905 56.2341 88.0347 53.5908 88.0347 50.3418V49.6972H92.4239C95.1335 49.6972 97.338 47.4927 97.338 44.7832V43.0072C97.3378 41.7254 96.2948 40.6824 95.0128 40.6824ZM83.9751 15.8396V21.3316H72.5933V15.8396H83.9751ZM72.5933 24.5939V24.2611H83.9751V24.5939C83.9751 27.7318 81.4222 30.2849 78.2841 30.2849C75.1462 30.2849 72.5933 27.732 72.5933 24.5939ZM50.2419 32.9945H48.3825C48.4679 31.6379 48.5042 30.189 48.5081 28.7504H50.2417C51.4124 28.7504 52.3647 29.7019 52.3647 30.8715C52.3647 32.0422 51.4124 32.9945 50.2419 32.9945ZM17.3813 6.97673C23.1298 5.5195 28.9862 7.31442 30.7462 7.94098C31.481 8.2029 32.305 8.00934 32.8452 7.44743C33.3839 6.88727 33.545 6.05954 33.2577 5.34313C33.0579 4.83962 32.7675 4.18571 32.156 3.09841C39.0194 4.08278 45.9249 8.79704 47.9763 12.0062C48.194 12.3472 48.5433 12.5828 48.9409 12.6572C50.405 12.9312 53.4142 14.4826 53.7358 16.8267C53.9558 18.4299 53.1974 21.7357 51.6415 26.0195C51.1968 25.891 50.7274 25.8209 50.2417 25.8209H48.4751C48.4056 22.9476 48.2431 20.4355 48.1364 19.2359C47.9556 17.1744 46.256 15.6199 44.1831 15.6199H39.728C39.3479 15.6199 38.9827 15.7675 38.7095 16.032C34.9019 19.7156 29.9341 22.2033 24.7214 23.0367C24.0298 23.1472 23.5132 23.7318 23.4886 24.4316C23.4733 24.8636 23.4593 25.3302 23.4476 25.8209H21.687C21.103 25.8209 20.5427 25.9216 20.0204 26.1047C16.931 18.8476 21.0407 12.7752 21.2255 12.5086C21.6505 11.9037 21.5579 11.0767 21.0099 10.5806C20.9892 10.5617 19.2126 8.9488 17.3813 6.97673ZM21.6874 32.9945C20.5179 32.9945 19.5663 32.0422 19.5663 30.8715C19.5663 30.2238 19.8589 29.6439 20.3179 29.2547C20.3194 29.2533 20.3208 29.2519 20.3224 29.2506C20.6917 28.939 21.1677 28.7506 21.6874 28.7506H23.4159C23.4202 30.15 23.4558 31.609 23.5435 32.9947H21.6874V32.9945ZM27.2657 37.6396C26.9765 37.0763 26.7495 35.9541 26.5933 34.4117C26.5911 34.3463 26.5847 34.2822 26.5743 34.2191C26.4009 32.4002 26.3222 30.0291 26.3521 27.3134C26.3522 27.3041 26.3534 27.2949 26.3534 27.2855C26.3534 27.28 26.3526 27.2748 26.3526 27.2691C26.3585 26.7611 26.3679 26.2416 26.3813 25.7111C31.5466 24.6535 36.4349 22.1437 40.3118 18.5494H44.1835C44.7263 18.5494 45.1712 18.9547 45.2185 19.4933C45.4573 22.1822 45.5724 24.7459 45.5968 27.0625C45.5856 27.1353 45.578 27.2095 45.578 27.2855C45.578 27.3707 45.5868 27.4537 45.6009 27.5349C45.6284 32.748 45.1907 36.6173 44.6655 37.64C44.0747 38.7912 42.5206 40.1599 40.8046 41.2412C40.7911 41.2498 40.7769 41.2576 40.7636 41.2666C39.0558 42.3367 37.1942 43.1195 35.9647 43.1195C33.4872 43.1195 28.4472 39.9449 27.2657 37.6396ZM35.9646 46.0492C37.1624 46.0492 38.6317 45.6279 40.1208 44.9455V49.6644C40.1208 50.0806 40.2997 50.4648 40.5937 50.7369L39.9759 52.342C37.237 54.1129 34.6565 54.1047 31.9155 52.3162L31.3138 50.7615C31.6177 50.4931 31.8104 50.1015 31.8104 49.6642V44.9465C33.2985 45.6283 34.7671 46.0492 35.9646 46.0492ZM38.4821 56.2224L35.962 62.7691L33.4249 56.2154C34.2692 56.456 35.1177 56.5783 35.9661 56.5783C36.8062 56.5781 37.646 56.4582 38.4821 56.2224ZM39.6817 77.0564H41.256C42.9108 77.0564 44.2573 78.4029 44.2573 80.0578V81.0089C44.2573 82.6638 42.9108 84.0103 41.256 84.0103H35.3392V74.1461C35.3392 74.0369 35.428 73.948 35.5372 73.948H38.1276C38.1769 73.948 38.2169 73.9881 38.2169 74.0373V75.5916C38.2169 76.4006 38.8728 77.0564 39.6817 77.0564ZM50.0142 76.8566L52.3651 78.648V81.0617C52.3651 81.0722 52.3665 81.0826 52.3667 81.0931C52.3667 81.0976 52.3667 81.1019 52.3669 81.1064V97.0703H35.3392V86.9398H41.256C44.5263 86.9398 47.187 84.2791 47.187 81.0088V80.0576C47.187 76.7871 44.5263 74.1265 41.256 74.1265H41.1466V74.0371C41.1466 72.3724 39.7923 71.0181 38.1276 71.0181H35.5372C34.1663 71.0181 33.0015 71.906 32.58 73.1359H25.0647C26.2413 70.9166 26.6804 68.3347 26.2438 65.8181L24.0138 52.9591C25.4804 52.1164 26.9345 51.5672 28.3833 51.307L33.6864 65.006C34.0534 65.9539 34.9468 66.566 35.963 66.566H35.9653C36.9825 66.565 37.8759 65.9511 38.2415 65.0017L43.2796 51.914L47.7866 53.7056L45.687 65.8181C44.9567 70.0306 46.6142 74.2599 50.0142 76.8566ZM85.105 50.3422C85.105 51.9758 83.7749 53.3049 82.1401 53.3049H80.0112C79.3946 53.3049 78.844 53.691 78.6341 54.2705L76.7349 59.5103L72.5519 57.9935L73.689 54.8591C73.9245 54.2099 73.6745 53.4843 73.0892 53.1179C72.7175 52.8853 72.4956 52.4884 72.4956 52.0568V49.6974H85.105V50.3422ZM94.4081 44.7836C94.4081 45.8777 93.5179 46.7679 92.4237 46.7679H64.1444C63.0503 46.7679 62.1601 45.8777 62.1601 44.7836V43.6121H94.4081V44.7836Z" fill="black"/>
</svg>
